<svg width="321" height="63" viewBox="0 0 321 63" fill="none" xmlns="http://www.w3.org/2000/svg">
<path fill-rule="evenodd" clip-rule="evenodd" d="M154.034 1.88397C154.034 0.843482 154.878 0 155.918 0H164.487C165.528 0 166.371 0.843482 166.371 1.88397C166.371 3.37209 168.031 4.29314 169.366 3.63472C173.53 1.58002 178.218 0.425676 183.176 0.425676C200.445 0.425676 214.444 14.4334 214.444 31.7128C214.444 44.3428 206.965 55.2248 196.197 60.1666C193.389 61.4551 190.479 59.1732 190.479 56.0838C190.479 54.0507 191.792 52.2845 193.586 51.3289C200.596 47.5965 205.368 40.2123 205.368 31.7128C205.368 19.4488 195.432 9.50676 183.176 9.50676C177.396 9.50676 172.132 11.7176 168.183 15.3402C166.945 16.4752 166.371 18.1311 166.371 19.8101V56.4057C166.371 59.8125 163.61 62.5743 160.203 62.5743H155.617C154.743 62.5743 154.034 61.8657 154.034 60.9917C154.034 59.7415 152.642 58.9704 151.531 59.5432C147.245 61.7527 142.383 63 137.23 63C119.961 63 105.961 48.9923 105.961 31.7128C105.961 14.4334 119.961 0.425676 137.23 0.425676C142.187 0.425676 146.875 1.58002 151.04 3.63472C152.375 4.29314 154.034 3.37209 154.034 1.88397ZM137.23 9.50676C143.01 9.50676 148.274 11.7176 152.223 15.3402C153.46 16.4752 154.034 18.1311 154.034 19.8101V43.6156C154.034 45.2946 153.46 46.9505 152.223 48.0854C148.274 51.7081 143.01 53.9189 137.23 53.9189C124.973 53.9189 115.037 43.9769 115.037 31.7128C115.037 19.4488 124.973 9.50676 137.23 9.50676Z" fill="#B1DBDF"/>
<path d="M167.612 37.555C167.598 37.555 167.584 37.555 167.57 37.5567C167.107 37.5973 166.75 37.6159 166.414 37.6159C166.149 37.6159 165.906 37.6041 165.672 37.5804C165.636 37.577 165.601 37.5736 165.565 37.5685L165.54 37.5652L165.49 37.5584C165.435 37.5499 165.376 37.5398 165.319 37.5262C165.154 37.4907 165.011 37.45 164.881 37.3992C164.87 37.3942 164.859 37.3908 164.848 37.3857C164.838 37.3806 164.826 37.3755 164.815 37.3705C164.801 37.3637 164.785 37.3569 164.78 37.3552C164.72 37.3247 164.66 37.2892 164.604 37.2536C164.573 37.2333 164.542 37.2113 164.511 37.1893C164.496 37.1775 164.483 37.1673 164.472 37.1571L164.442 37.1301C164.412 37.1013 164.384 37.0708 164.358 37.0403C164.352 37.0335 164.346 37.0268 164.341 37.02C164.335 37.0132 164.329 37.0048 164.322 36.998L164.309 36.9743C164.289 36.9421 164.271 36.91 164.258 36.8829C164.256 36.8795 164.254 36.8761 164.253 36.8727C164.251 36.8659 164.249 36.8609 164.245 36.8541C164.242 36.8473 164.236 36.8355 164.233 36.8253C164.219 36.7796 164.205 36.7305 164.195 36.6797C164.193 36.6679 164.191 36.6577 164.19 36.6458C164.186 36.6289 164.184 36.6137 164.181 36.5968C164.18 36.59 164.179 36.5832 164.176 36.5781C164.176 36.5781 164.176 36.5747 164.176 36.5731C164.176 36.5477 164.176 36.524 164.175 36.5019C164.17 36.3868 164.172 36.2632 164.182 36.121C164.186 36.0635 164.191 36.0059 164.196 35.95C164.199 35.9331 164.2 35.9162 164.202 35.9009V35.8891C164.202 35.8891 164.203 35.8891 164.203 35.8874C164.203 35.8874 164.203 35.8857 164.203 35.884L164.205 35.8671V35.8569C164.226 35.7096 164.248 35.5674 164.269 35.4252C164.325 35.0561 164.405 34.682 164.505 34.3112C164.62 33.8879 164.763 33.4596 164.901 33.0465C165.025 32.674 165.153 32.288 165.264 31.8986C165.325 31.6853 165.312 31.45 165.228 31.2536C165.111 30.9827 164.869 30.8066 164.61 30.8066C164.504 30.8066 164.404 30.8354 164.312 30.893C164.021 31.0708 163.73 31.2502 163.44 31.428C163.431 31.3501 163.415 31.2722 163.395 31.1977C163.151 30.2784 162.242 30.0228 161.97 29.9669C161.676 29.906 161.37 29.8772 161.034 29.8772C160.321 29.8772 159.603 30.0143 158.932 30.1616C157.084 30.5679 155.495 31.0741 154.078 31.709C154.074 31.709 154.071 31.709 154.066 31.709C154.022 31.709 153.981 31.7141 153.94 31.7226C153.027 31.9257 152.115 32.1289 151.204 32.3337C148.142 33.0194 144.975 33.7271 141.852 34.3755C140.478 34.6599 139.125 34.9308 137.827 35.178C137.695 34.7717 137.454 34.4263 137.106 34.147C136.613 33.7508 136.044 33.2649 135.568 32.6723C135.567 32.6723 135.566 32.669 135.564 32.6673C135.663 32.5758 135.896 32.4675 136.258 32.3439L136.325 32.3202C136.783 32.1627 137.28 32.0815 137.719 32.0104C138.106 31.9477 138.267 31.5702 138.255 31.2248C138.24 30.7948 137.964 30.3495 137.527 30.3495C137.494 30.3495 137.458 30.3529 137.424 30.358C136.767 30.4647 136.071 30.595 135.416 30.9116L135.404 30.9184C135.045 31.0928 134.527 31.3433 134.231 31.748C134.167 31.7243 134.098 31.7107 134.029 31.7107C133.984 31.7107 133.937 31.7158 133.89 31.7259C133.006 31.924 132.12 32.1238 131.236 32.3236C128.165 33.016 124.99 33.7305 121.858 34.3857C120.5 34.6701 119.162 34.9376 117.879 35.1848C117.748 34.7818 117.508 34.4365 117.162 34.1571C116.675 33.761 116.114 33.2767 115.641 32.6774C115.64 32.6757 115.638 32.674 115.637 32.6723C115.734 32.5809 115.967 32.4709 116.33 32.3473L116.395 32.3253C116.851 32.1678 117.347 32.0866 117.784 32.0155C118.171 31.9528 118.332 31.5753 118.32 31.2299C118.304 30.7999 118.029 30.3546 117.592 30.3546C117.558 30.3546 117.523 30.358 117.489 30.3631C116.857 30.4663 116.185 30.5916 115.545 30.8913C115.223 31.042 114.694 31.2891 114.372 31.6701C110.525 32.8975 106.426 34.2689 102.481 35.9653C100.36 36.8778 98.4651 37.7971 96.6873 38.7774C96.6073 38.8214 96.5262 38.8671 96.4439 38.9128C97.2173 37.643 98.0173 36.3326 98.8184 35.0527C99.3407 34.2198 99.814 33.4782 100.265 32.7858C100.618 32.2457 100.722 31.7209 100.575 31.2265C100.423 30.7152 100.004 30.4206 99.4262 30.4206C99.3429 30.4206 99.2584 30.4274 99.1762 30.4393C99.1284 30.446 99.0807 30.4528 99.0329 30.4596C98.8918 30.4782 98.7462 30.4968 98.6018 30.5358C98.3395 30.6069 98.1106 30.7474 97.8884 30.8845L97.854 30.9065C97.4717 31.1419 97.0673 31.3992 96.6184 31.6921C96.0362 32.073 95.4495 32.4675 94.8817 32.8501C94.6394 33.0143 94.3961 33.1769 94.1539 33.3394C92.6927 34.318 90.9849 35.4337 89.2038 36.27C88.3282 36.6814 87.4237 37.0183 86.516 37.2723C86.1826 37.3654 85.7426 37.4822 85.2937 37.5618C85.2826 37.5635 85.257 37.5685 85.2337 37.5719L85.1826 37.5804C85.117 37.5889 85.047 37.599 84.977 37.6058C84.8759 37.6159 84.7792 37.6244 84.6859 37.6295C84.9159 37.4365 85.1504 37.2452 85.3782 37.0589C85.8426 36.6797 86.3237 36.2869 86.7804 35.8721C87.5938 35.1357 88.2271 34.3992 88.7193 33.6204C88.8238 33.4562 88.866 33.2344 88.836 33.0126C88.8004 32.7502 88.6649 32.5149 88.4827 32.3981C88.386 32.3371 88.2827 32.305 88.176 32.305C87.9638 32.305 87.7549 32.4353 87.6171 32.652C87.3404 33.0905 87.0037 33.5138 86.5882 33.9489C86.5415 33.9573 86.4959 33.9709 86.4526 33.9895C82.0181 35.9551 77.6791 37.3264 73.5579 38.0629L73.5146 38.0714C72.7723 38.2034 71.9312 38.3541 71.1212 38.3541C70.3934 38.3541 69.7934 38.2339 69.2867 37.9867C68.9667 37.831 68.7478 37.599 68.6556 37.3146C68.5845 37.0979 68.5834 36.8389 68.6511 36.546C68.6678 36.4732 68.6889 36.3987 68.7167 36.314C70.7012 35.2288 72.7234 33.915 74.7301 32.4099C76.8691 30.8049 79.0558 28.9172 81.6103 26.4708C83.5981 24.5679 85.887 22.2654 87.7938 19.6243C88.8316 18.1852 89.5549 16.9188 90.0694 15.6372C90.3683 14.8906 90.5994 14.1863 90.7772 13.482C90.8938 13.0181 91.1361 12.0531 90.5594 11.464C90.3616 11.2625 90.1205 11.1592 89.8405 11.1592C89.4771 11.1592 89.1093 11.3251 88.7849 11.4707C88.7327 11.4944 88.6815 11.5164 88.6327 11.5384C87.9993 11.8127 87.3826 12.1175 86.7993 12.4408C85.6348 13.0876 84.4526 13.8917 83.287 14.833C81.3225 16.4177 79.3714 18.3698 77.148 20.9719C75.2191 23.2287 73.3812 25.6802 71.6845 28.2553C70.839 29.5403 70.0178 30.8744 69.2434 32.2203C68.8611 32.8857 68.4867 33.5612 68.13 34.2265C67.9978 34.472 67.8489 34.7564 67.7144 35.0527C66.15 35.8925 64.7177 36.5087 63.3388 36.932C61.8365 37.3942 60.191 37.6667 58.1854 37.7802C58.6843 36.2074 59.2109 34.6227 59.7521 33.0651C61.8743 26.955 64.3755 20.7332 67.3989 14.0458C68.9078 10.7072 70.5212 7.31099 72.3312 3.66254C72.4457 3.43229 72.4657 3.15802 72.3846 2.91084C72.2801 2.59255 72.0245 2.37754 71.749 2.37754C71.5912 2.37754 71.4412 2.44865 71.3145 2.58409C68.4978 5.6112 66.18 9.18346 63.9388 12.6372C62.8999 14.2371 61.8265 15.8929 60.721 17.464C59.0732 19.8071 57.2331 22.0199 55.3353 24.2682C54.5808 25.1621 53.8664 25.9782 53.1553 26.757C53.0286 26.6063 52.9119 26.4759 52.7975 26.3557C51.3097 24.7897 49.4263 23.9279 47.4929 23.9279C46.9507 23.9279 46.4007 23.9956 45.8596 24.1277C44.5495 24.4477 43.2206 25.1181 42.015 26.0645C40.775 27.0397 39.9816 28.0944 39.5883 29.2931C39.1616 30.5933 39.2583 32.0053 39.8672 33.3783C40.2994 34.3518 40.9917 35.2982 41.8439 36.0888C39.9028 37.2621 37.8394 38.3406 35.7049 39.2971C30.087 41.8163 23.9958 43.5771 17.6001 44.5336C14.7356 44.9619 12.53 45.1532 10.4488 45.1532C9.86102 45.1532 9.2799 45.1363 8.72211 45.1041C7.22652 45.0178 5.92316 44.7791 4.73536 44.3745C3.59756 43.9868 2.75643 43.4382 2.1642 42.6933C1.83974 42.2853 1.55641 41.7672 1.32307 41.1493C1.20529 40.8394 0.961949 40.6532 0.673054 40.6532C0.45416 40.6532 0.176377 40.7683 0.054152 41.09C-0.0214051 41.2898 -0.0180717 41.5302 0.0652634 41.7486C0.585274 43.1216 1.29084 44.1425 2.22197 44.8688C3.23311 45.6578 4.43758 46.0353 5.48315 46.3011C6.89874 46.66 8.45766 46.8344 10.251 46.8344C11.4311 46.8344 12.6866 46.7633 14.3222 46.6025C20.7857 45.9693 27.0969 44.4693 33.0815 42.1465C36.6982 40.7413 40.0983 39.0499 43.1884 37.1148C45.534 38.5979 48.4096 39.0872 50.3785 39.3276C51.4652 39.4596 52.5719 39.4783 53.6419 39.4952L53.8808 39.4986C54.3831 39.507 54.8486 39.5104 55.3009 39.5104C55.3009 39.5172 55.3009 39.5257 55.3009 39.5324C55.3131 40.8225 55.2942 41.8671 55.2397 42.8152C54.3342 46.0438 53.5342 49.2842 52.8597 52.4484C52.8119 52.6736 52.8353 52.9005 52.9253 53.0901C53.0475 53.3474 53.2842 53.5066 53.543 53.5066C53.8408 53.5066 54.0753 53.2831 54.1553 52.9242C54.3586 52.01 54.7008 51.116 55.0331 50.2509C55.2586 49.6617 55.4931 49.0523 55.6853 48.4292C56.1164 47.0393 56.3998 45.4207 56.5498 43.4822C56.5564 43.3908 56.5631 43.2977 56.5698 43.2063L56.572 43.1741C56.9209 41.9348 57.2865 40.6888 57.6609 39.4664C58.0376 39.4495 58.4043 39.4275 58.7543 39.4021C60.4754 39.2751 61.871 39.0533 63.1466 38.7012C64.3933 38.3575 65.6966 37.8479 67.1311 37.1436C67.1744 37.1233 67.2167 37.1013 67.26 37.0793C67.2867 37.9342 67.6144 38.6707 68.1945 39.1515C68.9545 39.7813 69.9556 39.9184 70.6423 39.9659C70.8478 39.9811 71.0623 39.9879 71.2801 39.9879C72.7501 39.9879 74.229 39.656 75.6602 39.336C75.8291 39.2988 75.9957 39.2616 76.1635 39.2243C78.1269 38.7909 80.2658 38.1476 82.7048 37.257C82.7825 37.2282 82.8614 37.1995 82.9414 37.1707C82.817 37.3366 82.7192 37.5313 82.6759 37.7751C82.6314 38.0223 82.6559 38.2678 82.7459 38.4845C82.9481 38.9737 83.4103 39.1515 83.5992 39.2057C83.8515 39.2768 84.1248 39.3123 84.4348 39.3123C84.8792 39.3123 85.3304 39.2379 85.6737 39.1718C89.3716 38.4641 92.6005 36.292 95.7228 34.1893L95.9417 34.042C96.8306 33.4444 97.5795 32.9483 98.3451 32.4726C98.3895 32.4455 98.434 32.4167 98.4795 32.3862C98.6029 32.305 98.7306 32.222 98.8451 32.1797C98.8895 32.1627 98.9329 32.1492 98.9762 32.1374C98.9495 32.1763 98.924 32.2152 98.8973 32.2525C98.8184 32.3693 98.7362 32.4895 98.6595 32.6097C98.4306 32.9669 98.1973 33.3326 97.9495 33.7271C97.5284 34.3958 97.0784 35.1204 96.5317 36.011C96.1228 36.678 95.715 37.3451 95.3084 38.0121C94.8039 38.8383 94.2828 39.6933 93.7661 40.5313C93.0261 41.0071 92.265 41.5167 91.4416 42.0872C87.9571 44.5031 85.0915 46.6194 82.4303 49.0946C79.2547 52.0489 76.9458 55.0438 75.3735 58.2521C75.3379 58.3232 75.3013 58.396 75.2635 58.4705C75.0368 58.9158 74.7802 59.422 74.7568 59.9942C74.7268 60.7154 75.1324 61.3503 75.7224 61.5027C75.8502 61.5349 75.9835 61.5518 76.1191 61.5518C76.7913 61.5518 77.4335 61.1522 77.9991 60.7984C78.0836 60.7459 78.1669 60.6934 78.2469 60.6443C79.6858 59.7724 81.1347 58.6991 82.5548 57.4513C84.9715 55.3266 87.3404 52.633 89.7971 49.2216C91.6449 46.6549 93.2961 44.0426 94.6695 41.8197C94.6872 41.8079 94.7061 41.796 94.7239 41.7841C94.7606 41.7604 94.7961 41.7367 94.8328 41.713C96.5228 40.6549 98.3818 39.6391 100.357 38.6944C104.436 36.7424 108.685 35.2576 111.932 34.1825C112.633 33.9506 113.395 33.7034 114.321 33.4054C114.609 33.959 115.162 34.5719 115.97 35.2339C116.049 35.2982 116.127 35.3558 116.201 35.4116C116.232 35.4353 116.264 35.459 116.295 35.4827C116.14 35.5115 115.985 35.5403 115.83 35.5691C114.94 35.7299 114.029 35.8688 113.149 36.0025C112.065 36.1667 110.946 36.3377 109.852 36.5527C107.998 36.915 106.975 37.4466 106.634 38.222C106.514 38.4946 106.48 38.8011 106.534 39.1109C106.73 40.2198 107.741 40.7819 109.539 40.7819C109.768 40.7819 110 40.7717 110.23 40.7531C113.03 40.5178 115.821 40.0217 117.27 37.9935C117.517 37.6498 117.709 37.2757 117.834 36.9049C119.218 36.6425 120.677 36.3496 122.174 36.0364C125.305 35.3829 128.478 34.6667 131.546 33.976C132.434 33.7762 133.322 33.5764 134.21 33.3766C134.224 33.3733 134.236 33.3699 134.249 33.3665C134.365 33.573 134.52 33.7847 134.721 34.0115L134.817 34.1199C135.178 34.5262 135.55 34.9461 135.977 35.2813C136.033 35.3253 136.088 35.3676 136.141 35.4066C136.173 35.4303 136.204 35.454 136.234 35.476C136.063 35.5081 135.89 35.5386 135.719 35.5691C134.854 35.7248 133.967 35.8586 133.109 35.9873C132.014 36.1515 130.88 36.3225 129.775 36.5409C128.607 36.7728 127.003 37.1961 126.555 38.2051C126.433 38.4777 126.397 38.7841 126.449 39.0956C126.681 40.4788 128.222 40.7683 129.475 40.7683C129.669 40.7683 129.865 40.7616 130.057 40.748C132.708 40.555 135.621 40.0894 137.139 38.0934C137.425 37.7175 137.646 37.3061 137.784 36.8947C139.228 36.6221 140.752 36.3191 142.316 35.9923C144.966 35.4404 147.669 34.8428 150.142 34.2892C149.881 34.555 149.643 34.8292 149.429 35.1137C149.044 35.6267 148.563 36.2649 148.552 37.0894C148.542 37.814 148.963 38.5302 149.625 38.9145C149.953 39.1041 150.341 39.1972 150.812 39.1972C151.005 39.1972 151.21 39.182 151.456 39.1515C152.074 39.0719 152.632 38.9602 153.163 38.8095C153.821 38.6233 154.424 38.3439 154.927 38.0951C155.541 37.792 156.175 37.467 156.814 37.1267C158.936 35.9991 160.989 34.7869 163.36 33.3428C163.33 33.441 163.301 33.5392 163.272 33.6374C163.056 34.3941 162.914 35.1797 162.848 35.9686C162.778 36.8118 162.925 37.5262 163.276 38.0375C163.802 38.8044 164.612 39.0821 165.198 39.182C165.583 39.248 165.991 39.2785 166.443 39.2785C166.79 39.2785 167.16 39.2599 167.605 39.2209C167.829 39.2006 168.032 39.0686 168.151 38.8637C168.234 38.7198 168.274 38.5488 168.267 38.3693C168.248 37.9224 167.959 37.5584 167.621 37.5584L167.612 37.555ZM164.609 31.1436C164.621 31.1436 164.633 31.1436 164.644 31.1452C164.63 31.1452 164.616 31.1452 164.602 31.1452C164.604 31.1452 164.606 31.1452 164.609 31.1452V31.1436ZM164.299 34.1791C164.48 33.5138 164.715 32.867 164.923 32.2102C164.716 32.867 164.48 33.5121 164.299 34.1791C164.273 34.2756 164.248 34.3704 164.224 34.4669C164.248 34.3704 164.272 34.2739 164.299 34.1791ZM137.794 31.643C137.764 31.6548 137.73 31.665 137.695 31.6701C137.588 31.687 137.481 31.7056 137.376 31.7226C137.483 31.7039 137.589 31.687 137.695 31.6701C137.731 31.665 137.764 31.6548 137.794 31.643ZM137.447 30.6915C137.475 30.6864 137.5 30.6847 137.526 30.6847C137.53 30.6847 137.535 30.6847 137.54 30.6847C137.51 30.6847 137.479 30.6847 137.447 30.6898C137.363 30.7034 137.279 30.7169 137.195 30.7322C137.278 30.7169 137.363 30.7034 137.447 30.6898V30.6915ZM117.591 30.6881C117.591 30.6881 117.6 30.6881 117.604 30.6881C117.574 30.6881 117.543 30.6881 117.511 30.6932C117.539 30.6881 117.565 30.6864 117.591 30.6864V30.6881ZM100.371 31.3603C100.386 31.4144 100.398 31.4669 100.405 31.5211C100.398 31.4686 100.386 31.4144 100.371 31.3603C100.362 31.3298 100.351 31.2993 100.338 31.2705C100.351 31.2993 100.362 31.3281 100.371 31.3603ZM88.3938 32.7062C88.4104 32.7164 88.4249 32.7299 88.4393 32.7435C88.4249 32.7299 88.4093 32.7164 88.3938 32.7062ZM88.1727 32.6402C88.1782 32.6402 88.1849 32.6419 88.1904 32.6436C88.1793 32.6436 88.1682 32.6436 88.1582 32.6436C88.1626 32.6436 88.1682 32.6419 88.1727 32.6419V32.6402ZM88.556 33.3817C88.6082 33.2988 88.626 33.2023 88.6182 33.1058C88.626 33.2023 88.6082 33.3005 88.556 33.3817ZM71.7401 2.71107C71.7623 2.71107 71.7845 2.71445 71.8068 2.71784C71.7845 2.71445 71.7612 2.71107 71.739 2.71107C71.739 2.71107 71.739 2.71107 71.7401 2.71107ZM72.1457 3.45261C72.159 3.42552 72.169 3.39843 72.1779 3.36965C72.169 3.39674 72.159 3.42383 72.1457 3.45261C71.9323 3.88094 71.7212 4.31096 71.509 4.74099C71.7201 4.31096 71.9323 3.88094 72.1457 3.45261ZM39.7783 29.437C39.6739 29.7553 39.6061 30.0736 39.5694 30.3902C39.605 30.0736 39.6739 29.7553 39.7783 29.437ZM0.657498 40.985C0.657498 40.985 0.661942 40.985 0.665276 40.985C0.668609 40.985 0.670832 40.985 0.673054 40.985C0.668609 40.985 0.663054 40.985 0.658609 40.985H0.657498ZM5.51093 45.9608C5.25982 45.8965 5.00648 45.8271 4.75536 45.7509C5.00759 45.8271 5.25982 45.8982 5.51093 45.9608C5.51538 45.9608 5.51982 45.9625 5.52427 45.9642C5.51982 45.9642 5.51538 45.9625 5.51093 45.9608ZM10.2421 46.489C10.1899 46.489 10.1388 46.489 10.0866 46.4873C10.1599 46.4873 10.2333 46.4873 10.3055 46.4873C10.2844 46.4873 10.2633 46.4873 10.241 46.4873L10.2421 46.489ZM28.5003 43.3874C29.3025 43.1386 30.1003 42.8728 30.8937 42.5951C30.1003 42.8744 29.3025 43.1386 28.5003 43.3874ZM35.7605 39.6154C36.8838 39.1109 37.9983 38.5708 39.0972 37.9901C37.9983 38.5691 36.8838 39.1109 35.7605 39.6154ZM53.5353 53.1612C53.5175 53.1612 53.5008 53.1612 53.483 53.1578C53.5064 53.1612 53.5297 53.1612 53.553 53.1578C53.5475 53.1578 53.5408 53.1578 53.5353 53.1578V53.1612ZM67.2089 13.8477C67.4067 13.4109 67.6056 12.9724 67.8056 12.5373C67.6056 12.9741 67.4067 13.4109 67.2089 13.8477ZM69.6656 6.43231C69.3645 7.05703 69.0645 7.68176 68.7678 8.30817C69.0656 7.68176 69.3645 7.05703 69.6656 6.43231ZM60.8654 17.7078C62.2832 15.6931 63.6155 13.5921 64.9733 11.5114C63.6155 13.5921 62.2821 15.6914 60.8654 17.7078C60.211 18.6373 59.5287 19.5464 58.8276 20.4386C59.5276 19.5464 60.211 18.6373 60.8654 17.7078ZM55.4642 24.5323C55.6975 24.2564 55.9298 23.9804 56.162 23.7028C55.9298 23.9804 55.6964 24.2564 55.4642 24.5323C55.2742 24.7575 55.0842 24.981 54.8931 25.2028C55.0842 24.981 55.2753 24.7558 55.4642 24.5323ZM52.6641 26.63C52.5597 26.5199 52.453 26.415 52.3452 26.3134C52.453 26.4167 52.5597 26.5216 52.6641 26.63ZM49.7585 30.5713C49.8674 30.4714 49.9774 30.3749 50.0852 30.275C50.5008 29.8873 50.9097 29.4929 51.313 29.0899C50.9108 29.4929 50.5019 29.8873 50.0852 30.275C49.9774 30.3749 49.8674 30.4731 49.7585 30.5713ZM47.4863 24.2614C47.5451 24.2614 47.6029 24.2648 47.6607 24.2665C47.5651 24.2631 47.4696 24.2631 47.3729 24.2665C47.4107 24.2665 47.4485 24.2631 47.4863 24.2631V24.2614ZM45.8884 24.4561C46.0351 24.4206 46.1818 24.3901 46.3273 24.3647C46.1807 24.3901 46.0351 24.4206 45.8884 24.4561C45.7362 24.4934 45.5862 24.5357 45.4362 24.5814C45.5862 24.5357 45.7373 24.4934 45.8884 24.4561ZM42.1106 26.3591C42.2506 26.249 42.3939 26.1424 42.5395 26.0374C42.3939 26.1407 42.2506 26.249 42.1106 26.3591C42.0472 26.4082 41.985 26.459 41.9239 26.5098C41.9861 26.459 42.0484 26.4082 42.1106 26.3591ZM41.8639 36.4291C42.025 36.3326 42.1873 36.2361 42.3473 36.1363C42.1873 36.2344 42.025 36.3309 41.8639 36.4291ZM41.6306 33.6221C41.2461 33.0736 40.3917 31.6345 40.7794 30.104C41.0239 29.1407 41.7161 28.2248 42.8373 27.3834C44.3873 26.2186 46.0796 25.5769 47.6007 25.5769C48.384 25.5769 49.1318 25.7428 49.823 26.0679C50.6619 26.4624 51.4363 27.06 52.1275 27.8473C51.3808 28.6294 50.6719 29.332 49.9685 29.9855C47.9351 31.8766 45.6595 33.6407 43.2051 35.2271C42.5817 34.7632 42.0517 34.2231 41.6295 33.6221H41.6306ZM47.9918 37.2198C46.6696 36.9066 45.6073 36.5527 44.7051 36.1193C46.1429 35.1492 47.5251 34.1148 48.8196 33.0363C50.2163 31.8732 51.5986 30.5747 53.0408 29.0713C53.4486 29.7197 53.7908 30.424 54.0597 31.1689C54.742 33.0567 55.122 35.1848 55.2475 37.8411C55.1153 37.8411 54.9831 37.8411 54.8497 37.8411C52.6441 37.8259 50.2985 37.7666 47.9907 37.2215L47.9918 37.2198ZM50.5552 37.9867C51.1185 38.046 51.6819 38.0883 52.2486 38.1154C51.683 38.0866 51.1185 38.046 50.5552 37.9867ZM55.3331 39.1634C54.8486 39.1634 54.3631 39.1583 53.8786 39.1515C53.6342 39.1481 53.3886 39.143 53.1441 39.1397C53.3886 39.1447 53.6342 39.1481 53.8786 39.1515C54.4231 39.16 54.9675 39.1651 55.5131 39.1634C55.4531 39.1634 55.3942 39.1634 55.3342 39.1634H55.3331ZM55.4831 38.178H55.4864C55.4864 38.178 55.4842 38.178 55.4831 38.178ZM55.2197 31.0166C55.3297 31.3349 55.4297 31.6565 55.5209 31.9816C55.4297 31.6565 55.3297 31.3332 55.2197 31.0166ZM56.3242 43.4331C56.312 43.5855 56.2998 43.7379 56.2853 43.892C56.2987 43.7396 56.312 43.5855 56.3242 43.4331C56.3275 43.3891 56.3309 43.3451 56.3331 43.3011C56.3298 43.3451 56.3275 43.3891 56.3242 43.4331ZM56.4553 39.463C56.4864 39.3598 56.5187 39.2548 56.5509 39.1515C56.5187 39.2548 56.4875 39.3598 56.4553 39.463ZM56.6231 37.8293C56.5487 36.4647 56.402 35.1475 56.1875 33.9099C55.7809 31.5685 55.0653 29.5775 54.0586 27.9861C56.2442 25.6057 58.2654 23.0916 60.1265 20.7214C61.9432 18.4087 63.581 15.8878 65.1655 13.4515C66.1622 11.9177 67.1833 10.3466 68.2522 8.82285C66.1711 13.2315 64.3344 17.3878 62.6643 21.4578C60.331 27.148 58.3831 32.5047 56.7142 37.8293C56.6842 37.8293 56.6531 37.8293 56.6231 37.831V37.8293ZM63.3788 37.2553C63.1532 37.3248 62.9255 37.3891 62.6977 37.45C62.9255 37.3908 63.1521 37.3264 63.3788 37.2553C63.8133 37.1216 64.2433 36.9726 64.6688 36.8084C64.2433 36.9709 63.8133 37.1216 63.3788 37.2553ZM67.4944 36.5883C67.3489 36.6628 67.2033 36.739 67.0567 36.8101C67.2033 36.7373 67.3478 36.6611 67.4944 36.5883ZM83.4659 22.8664C83.4203 22.9155 83.3737 22.9629 83.327 23.0103C83.3726 22.9629 83.4203 22.9138 83.4659 22.8664C83.6192 22.7056 83.7737 22.5413 83.927 22.3771C83.7737 22.5413 83.6192 22.7039 83.4659 22.8664ZM88.5482 16.1604C88.3093 16.6361 88.0482 17.0983 87.7682 17.5503C88.0471 17.0983 88.3093 16.6361 88.5482 16.1604C88.6304 15.9978 88.7093 15.8336 88.7849 15.6677C88.7082 15.8336 88.6293 15.9978 88.5482 16.1604ZM89.836 11.491C89.8594 11.491 89.8838 11.491 89.9071 11.4944C89.8782 11.4927 89.8494 11.4927 89.8205 11.4927C89.826 11.4927 89.8305 11.4927 89.836 11.4927V11.491ZM89.8127 12.4611C89.8127 12.4611 89.8049 12.4628 89.8016 12.4679C89.8049 12.4645 89.8082 12.4611 89.8127 12.4611ZM88.9293 12.8065C88.7838 12.8692 88.6404 12.9352 88.4971 13.0012C88.6404 12.9335 88.7849 12.8692 88.9293 12.8065ZM88.6882 11.855C88.7316 11.8364 88.776 11.8161 88.8204 11.7958C88.7749 11.8161 88.7304 11.8364 88.6882 11.855C88.5793 11.9024 88.4704 11.9515 88.3627 12.0006C88.4715 11.9515 88.5793 11.9024 88.6882 11.855ZM86.4048 14.1423C85.8537 14.4843 85.3159 14.8517 84.7926 15.2394C85.317 14.8517 85.8537 14.4843 86.4048 14.1423ZM71.8356 28.4855C72.6712 27.2158 73.5435 25.9748 74.4513 24.7643C75.3579 23.5538 76.3013 22.3737 77.278 21.231C77.4247 21.0583 77.5735 20.8873 77.7213 20.7163C77.5724 20.8873 77.4247 21.0583 77.278 21.231C76.3002 22.3754 75.3579 23.5538 74.4513 24.7643C73.5446 25.9748 72.6723 27.2175 71.8356 28.4855C71.4112 29.1289 70.9967 29.7807 70.5923 30.4393C70.9978 29.7807 71.4123 29.1289 71.8356 28.4855ZM70.4812 32.9365C73.3868 27.915 76.7646 23.3828 80.5214 19.4634C82.5914 17.3032 84.5437 15.666 86.4904 14.4572C87.0349 14.1186 87.5904 13.8071 88.1404 13.5311C88.4315 13.3855 88.7182 13.2501 88.9916 13.1316C89.0216 13.118 89.0749 13.0909 89.1416 13.0571C89.226 13.0131 89.3727 12.9386 89.5071 12.8793C89.4993 12.9081 89.4916 12.9386 89.4838 12.9673C89.3993 13.3043 89.3005 13.6446 89.1905 13.9815C88.9738 14.6417 88.6982 15.3054 88.3727 15.9538C87.1171 18.4527 85.2115 20.6181 83.3403 22.5871C81.4325 24.5933 79.3847 26.5419 77.2535 28.3806C75.0691 30.2649 72.8212 31.941 70.5723 33.3614C70.3967 33.4731 70.2245 33.5798 70.0567 33.6831C70.1989 33.4308 70.3412 33.1819 70.4823 32.9365H70.4812ZM68.4911 36.2243C68.4711 36.2903 68.4534 36.3563 68.4378 36.4224C68.4022 36.5764 68.3811 36.7271 68.3767 36.8727C68.3811 36.7288 68.4022 36.5781 68.4378 36.4224C68.4534 36.3547 68.4711 36.2886 68.4911 36.2243ZM70.6456 39.6171C70.7556 39.6256 70.8645 39.6306 70.9745 39.634C70.8645 39.6306 70.7545 39.6256 70.6456 39.6171ZM71.2734 39.6391C71.2112 39.6391 71.1479 39.6374 71.0856 39.6357C71.159 39.6357 71.2323 39.6391 71.3067 39.6391C71.2956 39.6391 71.2845 39.6391 71.2734 39.6391ZM76.1246 38.8789C76.6757 38.757 77.2258 38.6233 77.7747 38.4777C77.2269 38.6233 76.6769 38.7587 76.1246 38.8789ZM83.5248 36.5883C83.2326 36.7 82.9392 36.8101 82.6459 36.9184C81.6458 37.2841 80.6358 37.6312 79.6169 37.9461C80.6358 37.6312 81.647 37.2841 82.6459 36.9184C82.9392 36.8118 83.2326 36.7017 83.5248 36.5883C83.817 36.4765 84.1081 36.3614 84.3992 36.2463C84.1081 36.3631 83.817 36.4765 83.5248 36.5883ZM83.7459 37.8631C83.7459 37.8631 83.7459 37.8631 83.7448 37.8631C83.7448 37.8631 83.7448 37.8631 83.7459 37.8631ZM83.7626 38.0697C83.7526 38.09 83.747 38.1002 83.747 38.1002C83.747 38.1002 83.7514 38.09 83.7626 38.0697ZM84.0237 37.9444C83.9881 37.9376 83.9526 37.9292 83.9181 37.919C83.9526 37.9275 83.9881 37.9376 84.0237 37.9444C84.0237 37.9444 84.0237 37.9444 84.0248 37.9444C84.0248 37.9444 84.027 37.9444 84.0281 37.9444C84.0259 37.9444 84.0237 37.9444 84.0237 37.9444ZM85.357 36.6814C85.0304 36.9489 84.7037 37.2147 84.3815 37.489C84.7026 37.2147 85.0304 36.9489 85.357 36.6814ZM84.427 38.9619C84.4181 38.9619 84.4092 38.9619 84.4003 38.9619C84.4326 38.9619 84.4659 38.9619 84.4981 38.9602C84.4737 38.9602 84.4504 38.9636 84.4259 38.9636L84.427 38.9619ZM84.9915 37.9325C84.8204 37.9512 84.6492 37.963 84.477 37.9664C84.6481 37.963 84.8204 37.9512 84.9915 37.9325ZM86.5548 37.5939C86.3504 37.6515 86.1459 37.7057 85.9393 37.7565C86.1459 37.7074 86.3504 37.6515 86.5548 37.5939C87.0182 37.4636 87.476 37.3146 87.9293 37.1453C87.4771 37.3146 87.0182 37.4636 86.5548 37.5939ZM94.2428 33.6391C93.895 33.8727 93.5461 34.1029 93.1961 34.3315C93.5472 34.1029 93.895 33.8727 94.2428 33.6391ZM99.4507 31.7344C99.4507 31.7344 99.4484 31.7344 99.4473 31.7344C99.4484 31.7344 99.4507 31.7344 99.4518 31.7344H99.4507ZM99.4273 30.7474C99.434 30.7474 99.4407 30.7474 99.4473 30.7474C99.4373 30.7474 99.4273 30.7474 99.4184 30.7474C99.4218 30.7474 99.4251 30.7474 99.4273 30.7474ZM99.3718 31.7259C99.3718 31.7259 99.3718 31.7259 99.3707 31.7259C99.3207 31.7293 99.274 31.7327 99.2273 31.7378C99.274 31.7327 99.3218 31.7293 99.3718 31.7259ZM98.8651 31.8123C98.9807 31.775 99.0907 31.753 99.2073 31.7412C99.0918 31.7547 98.9818 31.7767 98.8651 31.8123ZM98.8106 32.8349C98.8662 32.7485 98.924 32.6622 98.9818 32.5775C98.924 32.6639 98.8662 32.7485 98.8106 32.8349C98.6918 33.0194 98.574 33.2073 98.4562 33.3919C98.574 33.2056 98.6918 33.0194 98.8106 32.8349ZM75.7524 61.159C75.6313 61.1268 75.5202 61.0727 75.4224 61.0016C75.5202 61.0744 75.6313 61.1285 75.7524 61.159ZM76.1124 61.2047C76.1057 61.2047 76.1002 61.2047 76.0935 61.2047C76.1268 61.2047 76.1602 61.2047 76.1935 61.203C76.1668 61.203 76.1391 61.2064 76.1124 61.2064V61.2047ZM78.1591 60.3227C78.1591 60.3227 78.148 60.3294 78.1436 60.3328C78.1491 60.3294 78.1547 60.326 78.1591 60.3227ZM80.368 58.8294C81.0781 58.3012 81.7681 57.7391 82.437 57.1499C81.767 57.7391 81.0781 58.2995 80.368 58.8294ZM80.2747 57.326C79.5825 57.8627 78.8736 58.3638 78.1658 58.8159C77.8024 59.0478 77.4313 59.273 77.0635 59.4829L76.9602 59.5422C76.8302 59.6167 76.6835 59.7013 76.5846 59.7487C76.5535 59.764 76.4413 59.8063 76.3746 59.8266C76.3502 59.8351 76.3246 59.8401 76.3002 59.8469L76.2135 59.8706C76.2057 59.8706 76.1957 59.8706 76.1824 59.8723C76.1746 59.8723 76.168 59.8723 76.1602 59.874C76.2824 59.554 76.4502 59.2324 76.6135 58.9208C76.6502 58.8514 76.6857 58.782 76.7213 58.7143C77.1402 57.9 77.618 57.0873 78.1413 56.2984C79.0991 54.8525 80.2369 53.449 81.617 52.01C84.3626 49.1454 87.4437 46.8276 90.0949 44.9365C90.6127 44.5675 91.1538 44.1832 91.7027 43.7988C91.3461 44.3541 91.0094 44.8705 90.686 45.3564C88.3493 48.8694 86.2548 51.5647 84.0959 53.835C82.8125 55.1844 81.5636 56.3271 80.2769 57.326H80.2747ZM84.2203 54.1144C83.9137 54.4377 83.6003 54.7526 83.2837 55.0642C83.6003 54.7526 83.9137 54.436 84.2203 54.1144ZM89.6405 48.9625C89.4727 49.1945 89.3049 49.4264 89.1338 49.6584C89.3038 49.4281 89.4727 49.1962 89.6405 48.9625C90.126 48.287 90.6027 47.603 91.0705 46.914C90.6027 47.6047 90.1271 48.287 89.6405 48.9625ZM90.8405 45.5968C90.5838 45.9828 90.3238 46.3688 90.0616 46.7514C90.3238 46.3688 90.5838 45.9845 90.8405 45.5968ZM93.8894 40.8056C94.1239 40.4247 94.3561 40.0437 94.5894 39.6628C94.3561 40.0437 94.1239 40.4264 93.8894 40.8056ZM94.7428 41.3914C95.415 40.9698 96.0961 40.5669 96.785 40.1792C96.0961 40.5669 95.415 40.9715 94.7428 41.3914ZM102.544 36.2785C103.943 35.6774 105.357 35.1171 106.781 34.5888C105.357 35.1171 103.944 35.6774 102.544 36.2785ZM114.642 33.4461C114.703 33.5392 114.771 33.6323 114.842 33.722C114.771 33.6306 114.703 33.5392 114.642 33.4461ZM109.875 36.8795C110.223 36.8118 110.572 36.7474 110.922 36.6882C110.572 36.7491 110.223 36.8118 109.875 36.8795C109.84 36.8863 109.802 36.8947 109.761 36.9015C109.802 36.893 109.841 36.8863 109.875 36.8778V36.8795ZM109.089 38.1357C109.391 38.0358 109.696 37.9579 110.003 37.8936C110.31 37.8293 110.619 37.7768 110.929 37.7277C110.619 37.7768 110.31 37.8276 110.003 37.8936C109.696 37.9596 109.392 38.0358 109.089 38.1357ZM107.934 38.7316C107.964 38.669 108.019 38.6013 108.104 38.5302C108.019 38.6013 107.964 38.6673 107.934 38.7316ZM109.535 40.4331C109.498 40.4331 109.46 40.4331 109.422 40.4331C109.461 40.4331 109.5 40.4331 109.538 40.4331C109.538 40.4331 109.536 40.4331 109.535 40.4331ZM110.214 40.4043C110.743 40.3603 111.322 40.3045 111.915 40.2181C111.321 40.3045 110.743 40.3586 110.214 40.4043ZM115.585 37.5161C114.69 38.1916 113.57 38.4641 112.501 38.6842C112.388 38.7079 112.274 38.7316 112.159 38.7553C111.343 38.928 110.501 39.1058 109.676 39.1058C109.251 39.1058 108.875 39.0584 108.529 38.9619C108.38 38.9196 108.276 38.8705 108.21 38.8298C108.21 38.8298 108.211 38.8298 108.212 38.8298C108.379 38.6927 108.678 38.6047 108.918 38.5353C108.995 38.5132 109.07 38.4912 109.138 38.4692C109.866 38.2305 110.599 38.1205 111.374 38.0036L111.574 37.9732C112.957 37.7649 114.377 37.5279 115.894 37.2553C115.799 37.3485 115.697 37.4365 115.588 37.5194L115.585 37.5161ZM116.582 36.7864C116.163 36.8626 115.745 36.9387 115.327 37.0132C115.745 36.9387 116.164 36.8642 116.582 36.7864ZM116.83 35.7147C116.617 35.7553 116.403 35.7943 116.19 35.8332C116.403 35.7943 116.617 35.7536 116.83 35.7147ZM117.115 37.7328C117.054 37.8191 116.99 37.9004 116.923 37.9799C116.99 37.9004 117.054 37.8174 117.115 37.7328C117.148 37.6871 117.179 37.643 117.209 37.5973C117.179 37.643 117.148 37.6887 117.115 37.7328ZM117.061 34.4449C117.17 34.533 117.265 34.6278 117.348 34.726C117.265 34.6278 117.17 34.5347 117.061 34.4449ZM122.14 35.691C121.813 35.7587 121.486 35.8247 121.158 35.8925C121.486 35.8247 121.812 35.7604 122.14 35.691ZM133.926 32.051C133.962 32.0425 133.998 32.0392 134.031 32.0392C133.997 32.0392 133.961 32.0425 133.925 32.051H133.926ZM135.487 31.2231C135.644 31.1469 135.803 31.0826 135.963 31.0267C135.801 31.0826 135.643 31.1486 135.487 31.2231ZM126.66 38.9991C126.651 38.9467 126.647 38.8976 126.645 38.8468C126.647 38.8959 126.651 38.9467 126.66 38.9991C126.667 39.0415 126.676 39.0804 126.686 39.1193C126.676 39.0804 126.667 39.0398 126.66 38.9991ZM135.74 35.8941C135.914 35.8637 136.086 35.8315 136.258 35.7993C136.086 35.8315 135.913 35.8637 135.74 35.8941ZM129.799 36.8659C129.772 36.871 129.744 36.8778 129.714 36.8829C129.744 36.8761 129.772 36.871 129.799 36.8659ZM129.471 40.4179C129.451 40.4179 129.431 40.4179 129.412 40.4179C129.438 40.4179 129.462 40.4179 129.487 40.4179C129.481 40.4179 129.477 40.4179 129.472 40.4179H129.471ZM135.529 37.5059C134.598 38.2051 133.395 38.4845 132.241 38.7096C132.132 38.7316 132.021 38.7537 131.909 38.7757C131.144 38.9297 130.352 39.0889 129.577 39.0889C129.158 39.0889 128.788 39.0432 128.447 38.9483C128.297 38.906 128.192 38.8569 128.126 38.8163C128.292 38.6792 128.592 38.5911 128.833 38.5217C128.911 38.4997 128.986 38.4777 129.055 38.4557C129.798 38.2136 130.544 38.1018 131.334 37.985C131.438 37.9698 131.542 37.9545 131.647 37.9376C132.986 37.7345 134.364 37.5059 135.839 37.2418C135.743 37.3349 135.639 37.4246 135.528 37.5076L135.529 37.5059ZM136.186 37.2824C136.295 37.1521 136.394 37.0132 136.48 36.8643C136.394 37.0132 136.296 37.1521 136.186 37.2824ZM136.533 36.7745C136.22 36.8321 135.908 36.8863 135.596 36.9421C135.908 36.8863 136.22 36.8304 136.533 36.7745ZM136.516 35.3168C136.578 35.3727 136.633 35.432 136.676 35.4946C136.631 35.432 136.577 35.3727 136.516 35.3168ZM164.065 37.0369C164.065 37.0369 164.065 37.0369 164.063 37.0336C164.064 37.0369 164.064 37.0369 164.064 37.0369H164.065ZM161.943 30.292C162.063 30.3174 162.186 30.3546 162.308 30.4037C162.186 30.3546 162.063 30.3157 161.943 30.292ZM162.245 31.9579C162.242 31.9664 162.239 31.9731 162.236 31.9782C162.239 31.9731 162.242 31.9647 162.245 31.9579ZM161.974 31.3196C161.88 31.2841 161.783 31.2587 161.685 31.2401C161.682 31.2401 161.679 31.2401 161.674 31.2384C161.679 31.2384 161.683 31.2384 161.685 31.2401C161.783 31.2604 161.88 31.2858 161.974 31.3196ZM161.48 31.213C161.361 31.2028 161.241 31.1994 161.121 31.1977C161.241 31.1977 161.36 31.2028 161.48 31.213ZM161.672 31.2384C161.654 31.235 161.629 31.2333 161.608 31.2299C161.629 31.2333 161.654 31.2367 161.672 31.2384ZM161.578 31.2248C161.578 31.2248 161.578 31.2248 161.576 31.2248C161.576 31.2248 161.576 31.2248 161.578 31.2248ZM161.036 30.2056C161.078 30.2056 161.12 30.2073 161.161 30.209C161.065 30.2073 160.969 30.2073 160.873 30.209C160.928 30.209 160.982 30.2056 161.036 30.2056ZM160.095 31.2739C160.33 31.2417 160.564 31.218 160.8 31.2062C160.564 31.218 160.329 31.2417 160.095 31.2739C160.09 31.2739 160.083 31.2739 160.077 31.2756C160.084 31.2756 160.09 31.2739 160.095 31.2739ZM154.068 32.0375C154.082 32.0375 154.096 32.0375 154.11 32.0375C154.094 32.0375 154.077 32.0375 154.061 32.0375C154.063 32.0375 154.066 32.0375 154.068 32.0375ZM158.472 31.6159C158.357 31.6447 158.243 31.6752 158.13 31.7056C157.32 31.9173 156.515 32.1543 155.726 32.4404C156.516 32.1543 157.321 31.9173 158.13 31.7056C158.244 31.6752 158.359 31.6464 158.472 31.6159ZM151.445 34.7531C151.441 34.7564 151.437 34.7598 151.434 34.7632C151.437 34.7598 151.442 34.7564 151.445 34.7531ZM151.397 34.7937C151.378 34.8106 151.36 34.8259 151.341 34.8428C151.138 35.0206 150.943 35.2085 150.757 35.4066C150.943 35.2085 151.138 35.0206 151.341 34.8411C151.36 34.8242 151.378 34.8089 151.397 34.792V34.7937ZM137.629 36.5731C137.625 36.59 137.618 36.6086 137.614 36.6255C137.619 36.6086 137.625 36.59 137.629 36.5731C138.497 36.4088 139.365 36.2395 140.23 36.0668C139.364 36.2395 138.497 36.4105 137.629 36.5731ZM141.883 34.7006C141.184 34.8462 140.485 34.9884 139.786 35.1272C140.486 34.9884 141.185 34.8462 141.883 34.7006C142.893 34.4906 143.902 34.2756 144.909 34.0589C143.902 34.2773 142.893 34.4923 141.883 34.7006ZM149.013 34.191C149.761 34.0251 150.507 33.8575 151.254 33.6898C150.507 33.8575 149.759 34.0234 149.013 34.191ZM150.211 36.0584C150.187 36.0888 150.164 36.121 150.141 36.1532C150.141 36.1532 150.141 36.1532 150.139 36.1532C150.139 36.1532 150.139 36.1532 150.141 36.1515C150.164 36.1193 150.187 36.0888 150.211 36.0567V36.0584ZM149.685 36.9963C149.691 36.9692 149.697 36.9438 149.705 36.9184C149.697 36.9438 149.691 36.9709 149.685 36.9963C149.685 36.9963 149.685 37.0014 149.683 37.0082C149.683 37.0014 149.684 36.998 149.685 36.9963ZM149.676 37.1504C149.676 37.1233 149.676 37.0979 149.676 37.0708C149.676 37.0962 149.676 37.1233 149.676 37.1504C149.679 37.1605 149.683 37.1724 149.686 37.1842C149.683 37.1724 149.678 37.1588 149.676 37.1504ZM149.703 37.2604C149.703 37.2604 149.705 37.2604 149.704 37.257C149.704 37.2587 149.704 37.2621 149.704 37.2621C149.704 37.2621 149.704 37.2621 149.702 37.2621L149.703 37.2604ZM150.008 36.3445C150.039 36.2971 150.073 36.2497 150.105 36.2023C150.105 36.2023 150.105 36.2023 150.106 36.2006C150.106 36.2006 150.106 36.2006 150.105 36.2023C150.073 36.2497 150.041 36.2971 150.008 36.3445ZM149.817 37.45C149.847 37.4856 149.881 37.5178 149.913 37.5499C149.879 37.5178 149.847 37.4856 149.817 37.45ZM150.294 37.7988C150.263 37.7886 150.233 37.7751 150.203 37.7666C150.234 37.7751 150.264 37.7903 150.294 37.7988C150.331 37.8106 150.369 37.8191 150.407 37.8276C150.369 37.8191 150.332 37.8106 150.294 37.7988ZM150.488 37.8479C150.501 37.8479 150.51 37.8496 150.515 37.8513C150.51 37.8513 150.501 37.8513 150.49 37.8496L150.488 37.8479ZM150.572 37.8564C150.553 37.8564 150.534 37.853 150.514 37.8496C150.533 37.8513 150.552 37.8547 150.572 37.8564C150.634 37.8614 150.696 37.8648 150.76 37.8665C150.697 37.8665 150.634 37.8631 150.572 37.8564ZM150.52 37.8513C150.52 37.8513 150.525 37.8513 150.526 37.8513C150.526 37.8513 150.522 37.8513 150.52 37.8513ZM150.807 38.8535C150.8 38.8535 150.792 38.8535 150.785 38.8535C150.807 38.8535 150.831 38.8535 150.853 38.8535C150.837 38.8535 150.823 38.8552 150.807 38.8552V38.8535ZM151.131 37.8547C151.203 37.8496 151.275 37.8411 151.347 37.8327C151.378 37.8293 151.408 37.8259 151.44 37.8208C151.41 37.8242 151.378 37.8293 151.347 37.8327C151.275 37.8411 151.203 37.8479 151.131 37.8547ZM151.433 38.8095C151.433 38.8095 151.433 38.8095 151.432 38.8095C151.432 38.8095 151.432 38.8095 151.433 38.8095C151.575 38.7909 151.716 38.7706 151.858 38.7486C151.717 38.7706 151.575 38.7909 151.433 38.8095ZM151.467 37.8191C151.473 37.8191 151.481 37.8174 151.487 37.8157C151.506 37.8123 151.562 37.8039 151.563 37.8039C151.565 37.8039 151.507 37.8123 151.488 37.8157C151.482 37.8157 151.474 37.8174 151.468 37.8191H151.467ZM153.771 37.2181C153.644 37.2706 153.516 37.318 153.387 37.362C153.516 37.318 153.645 37.2706 153.771 37.2181ZM156.702 35.7248C156.994 35.5674 157.285 35.4083 157.575 35.2474C157.949 35.0409 158.32 34.8309 158.69 34.621C158.32 34.8326 157.947 35.0409 157.575 35.2474C157.285 35.4083 156.993 35.5674 156.702 35.7248ZM162.043 31.814C162.036 31.8309 162.026 31.8512 162.016 31.8732C161.985 31.9427 161.953 32.0121 161.921 32.0815L161.872 32.1865C161.838 32.2609 161.812 32.3422 161.796 32.4269C160.129 33.4342 158.761 34.2316 157.5 34.9308C156.264 35.6148 155.114 36.2158 153.982 36.7661C153.922 36.7948 153.865 36.8219 153.808 36.849C153.795 36.8541 153.777 36.8626 153.754 36.8727C153.736 36.8812 153.718 36.888 153.712 36.8913C153.598 36.9387 153.476 36.9845 153.337 37.0319C153.09 37.1165 152.831 37.1944 152.545 37.2655C152.284 37.3315 152.024 37.3857 151.773 37.428C151.722 37.4365 151.67 37.445 151.618 37.4534L151.54 37.4653C151.527 37.4653 151.506 37.4703 151.464 37.4771L151.433 37.4805C151.398 37.4856 151.364 37.489 151.328 37.494C151.258 37.5025 151.188 37.5093 151.117 37.5144C151.011 37.5228 150.913 37.5262 150.818 37.5262C150.8 37.5262 150.782 37.5262 150.763 37.5262C150.698 37.5262 150.64 37.5228 150.583 37.5178C150.567 37.5178 150.552 37.5144 150.536 37.5127C150.525 37.5093 150.513 37.5076 150.501 37.5059L150.473 37.5025C150.427 37.4924 150.381 37.4805 150.337 37.467C150.326 37.4636 150.315 37.4585 150.304 37.4551C150.293 37.45 150.281 37.4466 150.27 37.4416C150.251 37.4297 150.231 37.4179 150.211 37.406C150.192 37.3959 150.173 37.3857 150.156 37.3722C150.137 37.3586 150.119 37.3451 150.102 37.3298C150.084 37.3129 150.067 37.2977 150.053 37.2858H150.051C150.013 37.2469 149.982 37.213 149.954 37.1808C149.947 37.1707 149.939 37.1622 149.934 37.1538C149.927 37.1436 149.919 37.1334 149.915 37.125C149.913 37.1216 149.912 37.1182 149.909 37.1148C149.907 37.1047 149.904 37.0928 149.902 37.0826C149.908 37.0573 149.916 37.0285 149.925 37.0031C149.937 36.976 149.949 36.9489 149.963 36.9218C150.022 36.8067 150.096 36.6916 150.167 36.5832C150.197 36.5375 150.228 36.4918 150.261 36.4461L150.268 36.4342L150.292 36.4021C150.314 36.3716 150.336 36.3411 150.358 36.3123C150.522 36.0956 150.7 35.884 150.887 35.6825C151.064 35.4946 151.254 35.3101 151.454 35.134L151.516 35.0798L151.537 35.0612L151.554 35.0476C151.596 35.0138 151.638 34.9782 151.682 34.9444C151.79 34.858 151.901 34.7734 152.014 34.6904C152.806 34.1131 153.776 33.5815 154.895 33.1108C155.834 32.7164 156.874 32.3744 158.17 32.0358C158.675 31.9037 159.096 31.7954 159.537 31.709C159.635 31.6904 159.733 31.6718 159.831 31.6548C159.885 31.6447 159.94 31.6362 159.994 31.6278L160.041 31.621H160.054L160.061 31.6176L160.116 31.6091C160.365 31.5753 160.592 31.5533 160.809 31.5431C160.915 31.538 161.014 31.5346 161.109 31.5346C161.236 31.5346 161.354 31.5397 161.469 31.5499C161.49 31.5516 161.511 31.555 161.532 31.5566C161.542 31.5566 161.552 31.5583 161.561 31.56C161.573 31.5634 161.585 31.5651 161.598 31.5668C161.62 31.5702 161.645 31.5719 161.656 31.5753C161.756 31.5956 161.843 31.6193 161.921 31.6481C161.931 31.6515 161.94 31.6548 161.949 31.6582L161.974 31.6684C161.982 31.6718 161.99 31.6735 161.996 31.6769C162.014 31.6887 162.034 31.7022 162.046 31.7124C162.055 31.7192 162.064 31.7259 162.072 31.731C162.072 31.731 162.071 31.7344 162.07 31.7361C162.064 31.7513 162.059 31.7683 162.052 31.7869L162.042 31.8106L162.043 31.814ZM163.81 32.696C163.228 33.0533 162.644 33.4071 162.06 33.7593C162.644 33.4071 163.228 33.0516 163.81 32.696ZM163.985 36.7762C163.98 36.7525 163.976 36.7271 163.972 36.7034C163.976 36.7271 163.981 36.7525 163.985 36.7779C163.996 36.8321 164.012 36.8846 164.028 36.9387C164.012 36.8863 163.996 36.8321 163.985 36.7779V36.7762ZM164.04 36.9878C164.04 36.9878 164.04 36.9895 164.041 36.9912C164.051 37.0132 164.06 37.0335 164.07 37.0556C164.06 37.0335 164.05 37.0115 164.04 36.9895V36.9878ZM164.168 37.2333C164.17 37.2384 164.171 37.2384 164.172 37.2418C164.17 37.2384 164.17 37.2367 164.168 37.2333ZM164.328 37.4145C164.328 37.4145 164.329 37.4145 164.331 37.4179C164.329 37.4162 164.328 37.4145 164.328 37.4145ZM164.416 37.4907C164.416 37.4907 164.385 37.4653 164.366 37.45C164.385 37.4653 164.418 37.4907 164.416 37.4907ZM164.829 37.726C164.913 37.7582 165 37.7852 165.086 37.8106C165 37.7869 164.913 37.7599 164.829 37.726ZM164.8 37.7141C164.8 37.7141 164.8 37.7141 164.796 37.7124C164.799 37.7124 164.801 37.7141 164.8 37.7141ZM164.789 37.7108C164.789 37.7108 164.776 37.7057 164.769 37.7023C164.765 37.7023 164.762 37.6989 164.759 37.6989C164.772 37.704 164.782 37.7091 164.789 37.7108ZM164.714 37.6752C164.694 37.665 164.674 37.6515 164.654 37.6413C164.674 37.6532 164.693 37.665 164.714 37.6752ZM164.708 38.7181C164.874 38.774 165.046 38.8146 165.218 38.8451C165.045 38.8163 164.874 38.774 164.708 38.7181ZM165.474 37.8953C165.48 37.8953 165.486 37.897 165.494 37.8987C165.486 37.8987 165.479 37.897 165.474 37.8953ZM165.662 37.919C165.662 37.919 165.662 37.919 165.663 37.919C165.663 37.919 165.663 37.919 165.662 37.919ZM166.439 38.9382C166.433 38.9382 166.428 38.9382 166.421 38.9382C166.437 38.9382 166.453 38.9382 166.469 38.9382C166.459 38.9382 166.449 38.9382 166.439 38.9382ZM167.589 37.8953C167.599 37.8953 167.609 37.8953 167.619 37.8953C167.63 37.8953 167.641 37.8987 167.652 37.9004C167.631 37.8987 167.611 37.8953 167.589 37.897V37.8953ZM168.042 38.388C168.041 38.3575 168.037 38.327 168.03 38.2965C168.037 38.327 168.04 38.3575 168.042 38.388ZM216.832 47.62H216.82C216.796 47.62 216.773 47.62 216.75 47.62C215.438 47.62 214.143 46.9174 213.104 45.6442C212.643 45.0788 212.275 44.4371 212.042 43.7887C211.809 43.1436 211.719 42.4884 211.75 41.6639C211.819 39.8236 212.321 37.9021 213.379 35.432C214.137 33.6594 215.049 31.7564 216.248 29.4404C217.104 27.7846 218.021 26.1288 218.908 24.5273C219.793 22.9274 220.709 21.2733 221.567 19.6158C222.869 17.1017 224.289 14.0915 224.947 10.8291C225.089 10.1265 225.207 9.2952 225.011 8.4707C224.81 7.62419 224.272 6.93344 223.498 6.52543C222.883 6.20206 222.203 6.03784 221.477 6.03784C221.171 6.03784 220.858 6.06831 220.545 6.12588C219.689 6.28671 218.852 6.65579 218.042 7.01302C217.929 7.06211 217.816 7.1129 217.705 7.16031C214.48 8.56551 211.184 10.5971 207.632 13.3737C204.055 16.1671 200.689 19.1909 198.156 21.5103C195.09 24.319 191.969 27.3427 188.88 30.4985C186.016 33.424 183.065 36.5815 180.109 39.8795C178.81 41.3287 177.503 42.8118 176.158 44.3677C178.256 40.8919 180.302 37.3975 182.26 33.9455C185.882 27.5594 189.386 21.0126 192.673 14.4843C194.523 10.8104 196.352 7.04349 198.111 3.29008C198.225 3.04628 198.242 2.76524 198.158 2.51637C198.053 2.20316 197.802 2 197.518 2C197.417 2 197.316 2.0254 197.218 2.07788C193 4.30589 188.679 6.4594 184.372 8.47917C180.645 10.2281 176.289 12.1716 171.759 13.1011C170.007 13.46 168.273 13.6429 166.607 13.6429C165.833 13.6429 165.06 13.6039 164.309 13.526C164.293 13.526 164.276 13.5243 164.261 13.5243C164.099 13.5243 163.941 13.609 163.815 13.7631C163.681 13.9273 163.604 14.1508 163.604 14.3725C163.604 14.8297 163.881 15.1767 164.278 15.2191C165.031 15.2969 165.809 15.3359 166.589 15.3359C169.977 15.3359 173.613 14.6096 177.707 13.1163C181.979 11.5571 186.159 9.4899 190.201 7.49214L190.545 7.32284C192.287 6.46109 194.08 5.55194 195.886 4.61571C193.074 10.5311 190.109 16.4262 187.067 22.1536C183.638 28.6091 179.99 35.0832 176.226 41.3964C174.107 44.9501 171.893 48.546 169.647 52.0878C169.512 52.2995 169.474 52.5771 169.544 52.8294C169.641 53.1764 169.932 53.4287 170.235 53.4287C170.403 53.4287 170.555 53.3508 170.677 53.2052C173.567 49.7108 176.258 46.5483 178.906 43.5381C181.816 40.2283 184.712 37.064 187.512 34.1334C190.545 30.959 193.599 27.9167 196.592 25.0927C199.922 21.9471 203.025 19.1875 206.077 16.653C209.735 13.6175 212.676 11.5621 215.613 9.99103C216.496 9.51868 217.373 9.09373 218.22 8.72973C218.351 8.67386 218.482 8.6163 218.615 8.55704C219.384 8.21844 220.179 7.86968 220.97 7.75964C221.14 7.73593 221.314 7.72408 221.488 7.72408C222.247 7.72408 222.9 7.94756 223.329 8.35388C223.65 8.65863 223.772 9.07511 223.722 9.70491C223.674 10.3161 223.503 10.951 223.338 11.5638L223.314 11.6485C223.134 12.3189 222.912 13.0164 222.657 13.7224C222.201 14.9753 221.608 16.3161 220.789 17.9431C219.839 19.8325 218.796 21.7101 217.789 23.5267C217.064 24.832 216.316 26.1813 215.605 27.5273C214.515 29.5911 213.574 31.5008 212.726 33.3648C211.822 35.3541 210.933 37.5093 210.561 39.7932C210.416 40.6803 210.269 41.8451 210.416 42.9997C210.514 43.7633 210.756 44.5404 211.137 45.309C211.916 46.8818 213.157 48.1567 214.541 48.8068C215.262 49.1454 216 49.3181 216.733 49.3181C216.763 49.3181 216.793 49.3181 216.822 49.3181C217.264 49.3096 217.494 48.8796 217.492 48.458C217.49 48.0449 217.262 47.625 216.829 47.625L216.832 47.62ZM224.732 10.7309C224.768 10.5565 224.8 10.3787 224.825 10.1993C224.8 10.3787 224.767 10.5548 224.732 10.7309ZM164.225 13.868C164.236 13.868 164.246 13.863 164.258 13.863C164.269 13.863 164.28 13.863 164.291 13.8646C164.269 13.863 164.248 13.8646 164.225 13.868ZM166.587 14.9973C166.391 14.9973 166.195 14.9939 166.001 14.9905C166.245 14.9973 166.49 14.9973 166.733 14.9956C166.684 14.9956 166.635 14.9973 166.587 14.9973ZM180.913 11.4995C184.15 10.1349 187.32 8.55874 190.474 6.99947C187.32 8.55874 184.15 10.1332 180.913 11.4995ZM184.434 8.80422C182.279 9.81495 180.1 10.7969 177.878 11.6333C180.1 10.7986 182.279 9.81495 184.434 8.80422C187.138 7.53616 189.827 6.22576 192.498 4.87474C189.827 6.22576 187.139 7.53616 184.435 8.80422H184.434ZM197.513 2.3403C197.513 2.3403 197.516 2.3403 197.517 2.3403C197.513 2.3403 197.507 2.3403 197.503 2.3403C197.506 2.3403 197.509 2.3403 197.513 2.3403ZM197.286 2.39955C196.938 2.5824 196.59 2.76524 196.242 2.9464C196.589 2.76355 196.938 2.5824 197.286 2.39955ZM170.233 53.0884C170.233 53.0884 170.233 53.0884 170.232 53.0884C170.248 53.0884 170.263 53.085 170.279 53.0833C170.264 53.085 170.249 53.0884 170.234 53.0884H170.233ZM170.537 52.9377C170.514 52.9648 170.491 52.9868 170.467 53.0054C170.491 52.9868 170.514 52.9631 170.537 52.9377ZM180.891 40.8767C182.017 39.6205 183.155 38.3778 184.298 37.1419C183.154 38.3778 182.017 39.6222 180.891 40.8767ZM217.092 7.78672C213.761 9.32229 210.664 11.381 207.728 13.675C210.665 11.381 213.761 9.32229 217.092 7.78672ZM215.536 9.66936C216.394 9.21055 217.268 8.78391 218.156 8.40298C217.268 8.7856 216.394 9.21055 215.536 9.66936ZM221.332 6.37983C221.379 6.37983 221.425 6.37644 221.471 6.37644C221.517 6.37644 221.563 6.37814 221.61 6.37983C221.518 6.37644 221.424 6.37644 221.332 6.37983ZM221.694 18.8066C221.984 18.2343 222.269 17.6553 222.542 17.0695C222.27 17.6553 221.985 18.2343 221.694 18.8066ZM222.428 14.9736C222.28 15.3342 222.127 15.6914 221.968 16.0452C222.127 15.6897 222.28 15.3325 222.428 14.9736ZM220.964 18.1463C220.555 18.9589 220.132 19.7648 219.702 20.5656C220.132 19.7648 220.555 18.9606 220.964 18.1463ZM211.314 45.1008C212.034 46.5534 213.205 47.8214 214.606 48.4783C213.205 47.8197 212.034 46.5534 211.314 45.1008ZM216.733 48.9744C216.698 48.9744 216.661 48.9727 216.625 48.971C216.69 48.971 216.754 48.9744 216.82 48.9727C216.791 48.9727 216.762 48.9727 216.733 48.9727V48.9744ZM216.82 47.9586C216.82 47.9586 216.826 47.9586 216.83 47.9586C216.848 47.9586 216.863 47.962 216.88 47.9636C216.86 47.962 216.841 47.9586 216.82 47.9586ZM320.295 37.7091C320.279 37.7091 320.262 37.7091 320.245 37.7124C319.25 37.8191 318.242 37.8733 317.25 37.8733C317.01 37.8733 316.766 37.8699 316.526 37.8631C316.032 37.8496 315.38 37.8259 314.723 37.7548C314.152 37.6921 313.711 37.555 313.334 37.3247C312.656 36.9083 312.172 36.2632 311.761 35.2322C311.714 35.1154 311.668 34.9969 311.622 34.8766C311.37 34.2248 311.083 33.4867 310.639 32.8789C309.907 31.8749 308.832 31.3653 307.442 31.3653C306.635 31.3653 305.706 31.538 304.682 31.88C302.654 32.5555 300.559 33.419 298.088 34.5973C297.84 34.7158 297.588 34.8377 297.33 34.9647C297.816 34.5143 298.31 34.0606 298.804 33.6187C299.483 33.0126 300.123 32.4726 300.759 31.9697C300.794 31.9427 300.826 31.9122 300.859 31.8749C301.022 31.7192 301.11 31.4906 301.11 31.2299C301.11 31.1943 301.107 31.1656 301.105 31.1486C301.103 31.1182 301.099 31.0877 301.095 31.0589C301.095 31.0555 301.094 31.0504 301.093 31.0471C301.093 31.0454 301.093 31.042 301.09 31.0386C301.072 30.9353 301.04 30.8422 300.996 30.7592C300.969 30.7101 300.936 30.6627 300.895 30.617C300.775 30.468 300.623 30.3868 300.467 30.3851C300.445 30.3817 300.423 30.3817 300.401 30.3817C300.344 30.3817 300.287 30.3919 300.234 30.4088C297.776 30.7559 295.597 31.0284 293.576 31.2384C293.218 31.2756 292.845 31.2942 292.436 31.2942C291.695 31.2942 290.96 31.2333 290.277 31.1689C289.638 31.108 288.993 31.025 288.36 30.9235L288.282 30.9099L288.245 30.9031C287.908 30.5273 287.435 30.3055 286.963 30.3055C286.896 30.3055 286.829 30.3106 286.762 30.3191C286.615 30.3394 286.417 30.3952 286.259 30.6255C286.138 30.5036 285.98 30.4359 285.807 30.4359C285.758 30.4359 285.708 30.4409 285.66 30.4528C284.686 30.678 283.862 30.9776 283.143 31.3636C282.963 31.4601 282.782 31.5651 282.589 31.6819C279.053 33.1803 275.439 34.2045 272.41 34.5702C271.352 34.6972 270.275 34.8208 269.234 34.9393C268.461 35.0273 267.689 35.1154 266.916 35.2068C266.641 34.4077 266.07 33.9319 265.515 33.4698C265.33 33.3157 265.137 33.1549 264.962 32.9872C264.942 32.9686 264.921 32.9483 264.897 32.9263C264.81 32.8433 264.555 32.6046 264.492 32.4726C264.543 32.4235 264.659 32.3591 264.747 32.3117L264.774 32.2965C265.254 32.0307 265.879 31.9562 266.43 31.8902L266.595 31.8699C267.036 31.8157 267.255 31.3586 267.244 30.937C267.234 30.5696 267.041 30.1751 266.637 30.1751C266.612 30.1751 266.586 30.1751 266.559 30.1802C264.407 30.446 263.28 31.0013 263.044 31.9173C259.706 33.2107 256.718 34.2638 253.914 35.134C250.926 36.0601 247.992 36.9252 244.945 37.3095C244.533 37.362 244.154 37.3874 243.788 37.3874C243.583 37.3874 243.376 37.3789 243.175 37.3637C243.035 37.3518 242.89 37.3383 242.745 37.3231C242.68 37.3163 242.617 37.3095 242.553 37.301C242.543 37.301 242.523 37.2977 242.499 37.2943C242.469 37.2909 242.435 37.2858 242.415 37.2824L242.402 37.279C242.381 37.2723 242.358 37.2672 242.336 37.2604C242.319 37.2553 242.301 37.2519 242.285 37.2469C242.193 37.2215 242.096 37.1893 241.988 37.1504C241.736 37.0589 241.534 36.9658 241.352 36.8558C241.241 36.7881 241.16 36.7305 241.111 36.6831C241.106 36.678 241.094 36.6645 241.081 36.6492C241.072 36.6391 241.062 36.6289 241.054 36.6188L241.051 36.6154C241.045 36.5866 241.037 36.5578 241.029 36.5307C241.028 36.4749 241.027 36.4275 241.029 36.3817C241.029 36.3665 241.032 36.3343 241.036 36.3056C241.037 36.292 241.038 36.2785 241.039 36.2666L241.042 36.248L241.047 36.226C241.054 36.1921 241.059 36.1566 241.066 36.1227C241.092 35.9907 241.129 35.8501 241.177 35.6961C241.199 35.6233 241.224 35.5505 241.251 35.4709C241.268 35.4252 241.285 35.3795 241.301 35.3338L241.311 35.305C241.315 35.2965 241.319 35.2864 241.322 35.2779C241.395 35.1001 241.471 34.9224 241.552 34.7514C241.567 34.7192 241.584 34.6887 241.599 34.6566C242.184 34.3738 242.713 34.1097 243.211 33.8524C245.726 32.5606 248.287 31.064 250.824 29.4065C253.329 27.7694 255.679 26.0154 257.806 24.1971C259.778 22.5092 261.733 20.613 263.782 18.4002C264.714 17.3929 265.693 16.2924 266.773 15.0379C266.895 14.8957 267.02 14.7535 267.145 14.6113C267.843 13.8139 268.564 12.9894 269.074 12.0074C269.46 11.2642 269.623 10.6124 269.574 10.0164C269.509 9.21055 269.054 8.54012 268.39 8.26923C268.153 8.17273 267.883 8.12363 267.587 8.12363C267.065 8.12363 266.537 8.27093 266.09 8.41483C265.272 8.67894 264.486 9.0531 263.76 9.41879C261.288 10.6615 258.801 12.4679 256.154 14.9397C254.375 16.6022 252.655 18.3985 250.99 20.1356C250.627 20.5148 250.265 20.894 249.902 21.2699L249.702 21.4781C248.635 22.5854 247.53 23.7315 246.524 24.9454C245.5 26.1796 244.519 27.4409 243.607 28.6955C242.567 30.1244 241.485 31.6548 240.654 33.3021C240.455 33.397 240.256 33.4918 240.056 33.5849C237.067 34.9765 234.326 35.9923 231.676 36.6949C229.554 37.2553 227.324 37.5855 224.858 37.7023C224.495 37.7192 224.193 37.7277 223.909 37.7277C223.71 37.7277 223.524 37.7243 223.343 37.7158L223.264 37.7124C222.889 37.6955 222.617 37.6854 222.287 37.555C222.262 37.5398 222.239 37.5262 222.219 37.5161L222.198 37.5059C222.157 37.4839 222.113 37.4653 222.068 37.4466C223.225 37.1165 224.297 36.7136 225.159 36.3716C226.453 35.8586 227.732 35.2474 228.96 34.5567C229.546 34.2265 230.276 33.8168 230.863 33.2768C231.135 33.0279 231.5 32.6266 231.539 32.0171C231.577 31.4246 231.373 30.9218 230.994 30.6695C230.754 30.5104 230.452 30.4325 230.071 30.4325C229.737 30.4325 229.392 30.4917 229.089 30.5425C228.982 30.5612 228.881 30.5781 228.786 30.5916C228.011 30.7034 227.1 30.8439 226.212 31.0487C224.172 31.5177 222.539 32.1289 221.219 32.9144C220.895 33.1074 220.565 33.3343 220.21 33.6086L220.101 33.6915C219.811 33.9133 219.512 34.1419 219.263 34.4398L219.248 34.4585C218.975 34.7818 218.694 35.1171 218.562 35.5928C218.492 35.8451 218.465 36.1244 218.484 36.4224C217.886 36.4782 217.276 36.507 216.664 36.507C216.404 36.507 216.139 36.5019 215.876 36.4918C215.868 36.4918 215.859 36.4918 215.851 36.4918C215.428 36.4918 215.202 36.9032 215.199 37.3112C215.195 37.7328 215.423 38.1679 215.865 38.1848C216.128 38.195 216.393 38.2 216.655 38.2C217.504 38.2 218.36 38.1459 219.199 38.0392C219.735 38.5082 220.484 38.7215 221.092 38.8959L221.134 38.9077L221.257 38.9416C221.378 38.9754 221.498 39.0093 221.618 39.0465C221.621 39.0465 221.624 39.0482 221.628 39.0499C221.731 39.1177 221.847 39.16 221.941 39.1955C222.418 39.3733 222.959 39.3936 223.393 39.4105C223.567 39.4173 223.749 39.4207 223.933 39.4207C224.675 39.4207 225.409 39.3682 226.159 39.309C227.718 39.1871 228.981 39.0195 230.133 38.7824C231.585 38.4845 233.073 38.0764 234.685 37.5313C236.341 36.9726 238.01 36.3123 239.772 35.5183C239.7 35.8264 239.661 36.1193 239.656 36.3987C239.647 36.827 239.728 37.2198 239.894 37.5347C240.189 38.1001 240.726 38.3981 241.262 38.6385C241.701 38.8349 242.144 38.9517 242.654 39.0076C243.015 39.0482 243.443 39.0889 243.883 39.0889C244.113 39.0889 244.325 39.0787 244.531 39.055C246.027 38.8942 247.434 38.6521 248.712 38.3355C251.958 37.5296 255.323 36.5036 258.994 35.2C260.387 34.7057 261.847 34.1605 263.454 33.5375C263.782 34.0234 264.209 34.3823 264.624 34.731C264.773 34.8563 264.927 34.985 265.074 35.1171C265.177 35.2102 265.27 35.305 265.349 35.3998C265.136 35.4252 264.925 35.4506 264.713 35.4777C263.429 35.6402 261.915 35.84 260.428 36.0787L260.357 36.0905C259.265 36.2666 258.136 36.4478 257.079 36.8812L257.063 36.888C256.387 37.1656 255.258 37.6278 255.392 38.8332C255.515 39.9455 256.544 40.3654 257.384 40.5212C257.803 40.599 258.254 40.638 258.724 40.638C260.634 40.638 262.59 39.9963 263.895 39.4596C265.016 38.9974 266.524 38.2373 266.96 36.9015C267.727 36.8118 268.495 36.7237 269.264 36.6357C270.322 36.5155 271.416 36.3902 272.492 36.2598C274.44 36.0245 276.477 35.5793 278.562 34.9376C277.788 35.8586 277.37 36.7254 277.285 37.5838C277.248 37.9664 277.314 38.3219 277.475 38.6131C277.931 39.4342 279.021 39.5307 279.344 39.5409C279.391 39.5409 279.438 39.5426 279.484 39.5426C280.39 39.5426 281.284 39.2717 282.04 39.0076C284.067 38.2982 285.753 37.3095 287.051 36.0719C288.151 35.0239 288.731 33.9777 288.826 32.8738C288.83 32.8163 288.833 32.757 288.836 32.696C288.93 32.7096 289.023 32.7214 289.117 32.7333C290.22 32.8806 291.224 32.9602 292.182 32.9754C292.257 32.9754 292.331 32.9771 292.407 32.9771C293.606 32.9771 294.813 32.8196 295.98 32.669C296.248 32.6334 296.516 32.5995 296.783 32.5657C297.118 32.5251 297.461 32.481 297.819 32.4353C297.237 32.9602 296.663 33.4952 296.101 34.0183C295.217 34.8411 294.304 35.6927 293.377 36.4901C292.726 37.0505 292.046 37.5939 291.355 38.1052C291.045 38.3338 290.979 38.713 291.021 38.9907C291.082 39.3953 291.364 39.6882 291.691 39.6882C291.794 39.6882 291.896 39.6611 291.997 39.6052C296.245 37.3061 300.098 35.283 304.24 33.7999L304.259 33.7931C305.286 33.4257 306.347 33.0465 307.428 33.0448C307.932 33.0448 308.419 33.1413 308.768 33.3089C309.115 33.4748 309.328 33.6458 309.584 33.9641C309.612 33.998 309.638 34.0335 309.664 34.0674L309.673 34.0792C309.673 34.0792 309.683 34.0945 309.689 34.1046C309.733 34.1707 309.771 34.2316 309.804 34.2875C309.888 34.4314 309.971 34.5922 310.055 34.7768C310.187 35.0663 310.288 35.3338 310.395 35.6148C310.441 35.7333 310.486 35.8552 310.537 35.9839C311.001 37.169 311.581 37.9986 312.362 38.5945C313.466 39.4376 314.791 39.4901 316.071 39.5409L316.14 39.5443C316.509 39.5595 316.883 39.5663 317.254 39.5663C318.259 39.5663 319.277 39.5121 320.282 39.4038C320.679 39.3614 320.955 39.0127 320.955 38.559C320.955 38.1052 320.65 37.7108 320.301 37.7108L320.295 37.7091ZM300.89 31.2316C300.89 31.2316 300.89 31.2248 300.89 31.2214C300.89 31.2248 300.89 31.2282 300.89 31.2316ZM266.64 30.5104C266.647 30.5104 266.654 30.5121 266.662 30.5138C266.635 30.5138 266.609 30.5121 266.579 30.5138C266.6 30.5104 266.62 30.5104 266.639 30.5104H266.64ZM268.155 11.1609C268.191 11.0898 268.222 11.0153 268.252 10.9425C268.222 11.0153 268.19 11.0898 268.155 11.1609ZM267.59 8.45716C267.597 8.45716 267.605 8.45716 267.613 8.45716C267.595 8.45716 267.578 8.45716 267.56 8.45716C267.57 8.45716 267.579 8.45716 267.589 8.45716H267.59ZM266.137 8.74158C266.137 8.74158 266.141 8.74158 266.142 8.74158C266.141 8.74158 266.139 8.74158 266.137 8.74158ZM259.24 13.9256C259.46 13.7478 259.683 13.5734 259.907 13.4025C259.683 13.5751 259.46 13.7478 259.24 13.9256ZM256.271 15.2224C256.505 15.004 256.742 14.7873 256.979 14.5723C256.741 14.7873 256.505 15.004 256.271 15.2224C256.002 15.4747 255.734 15.7287 255.467 15.9843C255.733 15.7287 256.001 15.473 256.271 15.2224ZM253.203 19.6649C253.931 18.9149 254.659 18.1649 255.398 17.4267C254.659 18.1632 253.931 18.9149 253.203 19.6649C252.996 19.8782 252.788 20.0899 252.582 20.3032C252.789 20.0899 252.996 19.8782 253.203 19.6649ZM250.027 21.5425C249.167 22.4364 248.302 23.3269 247.475 24.2581C248.302 23.3269 249.167 22.4347 250.027 21.5425ZM248.876 24.1633C248.674 24.3817 248.473 24.6017 248.274 24.8235C248.474 24.6017 248.675 24.3833 248.876 24.1633ZM247.051 26.2507C246.724 26.6503 246.4 27.0549 246.08 27.4629C246.4 27.0549 246.724 26.652 247.051 26.2507ZM243.756 28.9392C243.988 28.6193 244.224 28.3027 244.461 27.9861C244.224 28.301 243.988 28.6193 243.756 28.9392C243.623 29.1221 243.489 29.3066 243.356 29.4929C243.489 29.3083 243.623 29.1238 243.756 28.9392ZM246.223 27.722C246.851 26.9229 247.603 25.9849 248.405 25.0978C249.694 23.6706 251.058 22.2722 252.377 20.9211C252.694 20.5961 253.012 20.271 253.327 19.946L253.438 19.8308C255.308 17.9059 257.243 15.9149 259.343 14.2236C260.572 13.2348 261.808 12.3731 263.021 11.6654C263.707 11.2642 264.387 10.9086 265.043 10.6073C265.736 10.289 266.476 9.96733 267.219 9.85051C267.329 9.83358 267.474 9.81326 267.617 9.81326C267.761 9.81326 267.876 9.83358 267.97 9.87252C268.021 9.89453 268.069 9.93008 268.123 9.98595C268.145 10.0097 268.153 10.0181 268.156 10.0249C268.162 10.035 268.169 10.0486 268.175 10.0604C268.181 10.0723 268.187 10.0825 268.194 10.0943C268.215 10.1603 268.217 10.2247 268.189 10.3652C268.15 10.5531 268.082 10.741 267.976 10.9577C267.566 11.8009 266.932 12.5272 266.319 13.2281C266.207 13.355 266.097 13.482 265.987 13.609C263.86 16.0859 262.062 18.0379 260.328 19.7513C258.44 21.617 256.466 23.3421 254.462 24.8794C252.318 26.5216 249.95 28.1164 247.225 29.7502C245.839 30.5815 244.445 31.3636 243.066 32.0849C243.926 30.7491 244.909 29.3896 246.223 27.7203V27.722ZM242.512 32.4827C242.438 32.6029 242.364 32.7231 242.29 32.8433C242.363 32.7214 242.438 32.6029 242.512 32.4827ZM241.466 34.3637C241.436 34.4263 241.402 34.4889 241.372 34.5516C241.402 34.4873 241.435 34.4263 241.466 34.3637ZM215.802 36.8253C215.818 36.8253 215.831 36.8202 215.846 36.8202C215.853 36.8202 215.86 36.8202 215.866 36.8202C216.119 36.8304 216.372 36.8338 216.624 36.8355C216.371 36.8355 216.119 36.8304 215.866 36.8202C215.843 36.8202 215.823 36.8219 215.802 36.8253ZM216.652 37.8513C216.393 37.8513 216.133 37.8462 215.874 37.836C216.145 37.8462 216.416 37.8513 216.688 37.8513C216.675 37.8513 216.664 37.8513 216.652 37.8513ZM218.763 35.7147C218.718 35.8772 218.698 36.0465 218.696 36.2175C218.696 36.0465 218.718 35.8772 218.763 35.7147ZM228.881 34.2299C228.371 34.516 227.851 34.7869 227.324 35.0443C227.85 34.7852 228.371 34.516 228.881 34.2299ZM228.021 33.5646C227.862 33.6475 227.702 33.7305 227.541 33.8117C227.701 33.7305 227.861 33.6475 228.021 33.5646ZM231.315 31.9934C231.296 32.2271 231.206 32.4302 231.079 32.6097C231.206 32.4302 231.296 32.2254 231.315 31.9934ZM230.903 30.9709C230.87 30.9489 230.836 30.9285 230.8 30.9116C230.836 30.9302 230.87 30.9489 230.903 30.9709ZM230.256 32.0899C230.267 32.0781 230.276 32.0679 230.284 32.0561C230.276 32.0662 230.266 32.0781 230.256 32.0899C230.236 32.112 230.213 32.1323 230.192 32.1526C230.213 32.1306 230.236 32.112 230.256 32.0899ZM230.069 30.7626C230.086 30.7626 230.102 30.7626 230.119 30.7626C230.093 30.7626 230.068 30.7626 230.042 30.7626C230.051 30.7626 230.06 30.7626 230.069 30.7626ZM226.243 31.3738C226.454 31.3247 226.667 31.2807 226.88 31.2384C226.668 31.2807 226.456 31.3247 226.243 31.3738ZM220.308 33.9015C220.361 33.8608 220.415 33.8202 220.469 33.7796C220.415 33.8202 220.361 33.8591 220.308 33.9015ZM220.413 35.068C220.307 35.1577 220.205 35.2542 220.111 35.3575C220.205 35.2542 220.308 35.1577 220.413 35.068ZM219.852 36.2192C219.854 36.0888 219.985 35.9331 220.111 35.7824C220.13 35.7604 220.149 35.7367 220.168 35.7147C220.38 35.4574 220.658 35.2474 220.928 35.0443L220.983 35.0019C222.388 33.9387 224.044 33.3749 225.33 33.0008C226.094 32.779 226.883 32.5979 227.741 32.4489C227.843 32.4302 227.947 32.4133 228.049 32.3947C228.601 32.2965 229.171 32.1949 229.73 32.1577C229.202 32.5369 228.604 32.9026 227.949 33.2446C224.893 34.8411 222.351 35.7858 219.948 36.2158C219.915 36.2209 219.883 36.2277 219.852 36.2328C219.852 36.2277 219.852 36.2243 219.852 36.2192ZM219.7 36.5968C219.791 36.5815 219.882 36.568 219.973 36.5527C219.882 36.5697 219.791 36.5832 219.7 36.5968ZM221.697 38.7215C221.683 38.7164 221.671 38.7113 221.658 38.7062C221.497 38.6555 221.333 38.6114 221.17 38.564C221.332 38.6097 221.495 38.6555 221.658 38.7062C221.671 38.7096 221.683 38.7164 221.697 38.7215C221.73 38.7435 221.765 38.7638 221.802 38.7807C221.765 38.7621 221.73 38.7435 221.697 38.7215ZM221.892 37.7226C221.932 37.7362 221.971 37.7497 222.009 37.7666C221.97 37.7514 221.931 37.7362 221.892 37.7226ZM223.929 39.0736C223.893 39.0736 223.857 39.0719 223.821 39.0719C223.888 39.0719 223.955 39.0719 224.022 39.0719C223.991 39.0719 223.96 39.0719 223.929 39.0719V39.0736ZM230.099 38.4388C229.771 38.5065 229.442 38.5657 229.114 38.6199C229.443 38.5657 229.771 38.5065 230.099 38.4388C231.248 38.2034 232.386 37.9038 233.511 37.555C232.386 37.9021 231.248 38.2017 230.099 38.4388ZM241.118 35.1391C241.118 35.1391 241.121 35.1289 241.124 35.1255C241.124 35.1255 241.127 35.1188 241.131 35.1086C241.127 35.1188 241.125 35.1255 241.124 35.1255C241.122 35.1289 241.121 35.1323 241.118 35.1391C241.115 35.1458 241.112 35.1543 241.109 35.1645C241.091 35.2119 241.074 35.2593 241.057 35.3084C241.029 35.3879 241.002 35.4675 240.977 35.5488C241.001 35.4675 241.029 35.3879 241.057 35.3084C241.074 35.261 241.091 35.2119 241.109 35.1645C241.114 35.1543 241.116 35.1458 241.118 35.1391ZM240.062 37.3163C240.047 37.2858 240.031 37.2536 240.018 37.2232C240.031 37.2553 240.046 37.2858 240.062 37.3163C240.096 37.3789 240.132 37.4382 240.172 37.4957C240.132 37.4399 240.095 37.3806 240.062 37.3163ZM240.786 33.5849C240.889 33.3783 240.996 33.1735 241.107 32.9703C240.997 33.1735 240.889 33.3783 240.786 33.5849ZM240.809 36.3326C240.811 36.3056 240.815 36.2683 240.817 36.2378C240.815 36.2666 240.811 36.3056 240.809 36.3326ZM240.852 36.0177C240.842 36.0651 240.835 36.1126 240.826 36.1583C240.825 36.165 240.822 36.1803 240.82 36.1955C240.822 36.1803 240.825 36.1633 240.826 36.1583C240.835 36.1109 240.842 36.0635 240.852 36.0177C240.864 35.9619 240.878 35.906 240.891 35.8518C240.878 35.9077 240.864 35.9619 240.852 36.0177ZM240.951 36.9201C240.968 36.9387 240.985 36.9574 240.992 36.9641C240.986 36.9574 240.969 36.9387 240.951 36.9201ZM241.318 38.305C241.24 38.2695 241.161 38.2339 241.082 38.195C241.161 38.2339 241.24 38.2711 241.318 38.305C241.406 38.3439 241.492 38.3778 241.58 38.41C241.494 38.3778 241.406 38.3439 241.318 38.305ZM243.876 38.7418C243.867 38.7418 243.858 38.7418 243.849 38.7418C243.874 38.7418 243.898 38.7418 243.923 38.7418C243.907 38.7418 243.89 38.7418 243.875 38.7418H243.876ZM253.959 35.459C253.628 35.5623 253.297 35.6639 252.966 35.7655C253.298 35.6639 253.629 35.5623 253.959 35.459C255.131 35.095 256.296 34.7124 257.457 34.3129C256.296 34.7124 255.131 35.0967 253.959 35.459ZM258.936 34.8631C258.611 34.9782 258.284 35.0917 257.958 35.2051C258.285 35.0917 258.611 34.9782 258.936 34.8631ZM263.517 33.1532C263.137 33.3005 262.757 33.4477 262.376 33.5933C262.757 33.4477 263.137 33.3021 263.517 33.1532C263.549 33.2056 263.581 33.2547 263.615 33.3038C263.582 33.2547 263.549 33.2056 263.517 33.1532ZM264.699 31.9731C264.769 31.9342 264.841 31.9003 264.914 31.8682C264.84 31.9003 264.767 31.9342 264.699 31.9731C264.623 32.0155 264.553 32.0527 264.492 32.0916C264.553 32.0527 264.623 32.0138 264.699 31.9731ZM265.181 34.8191C265.07 34.7192 264.956 34.6227 264.843 34.5262C264.956 34.621 265.07 34.7175 265.181 34.8191C265.215 34.8513 265.25 34.8817 265.283 34.9156C265.25 34.8834 265.216 34.8513 265.181 34.8191ZM255.603 38.7706C255.564 38.4235 255.687 38.1492 255.888 37.9292C255.687 38.1492 255.564 38.4218 255.603 38.7706ZM259.604 36.5477C259.305 36.6001 259.007 36.656 258.711 36.722C259.007 36.656 259.305 36.5984 259.604 36.5477ZM258.486 37.814C259.357 37.5872 260.245 37.4162 261.14 37.2757C260.245 37.4162 259.357 37.5855 258.486 37.814C258.175 37.8953 257.866 37.9935 257.565 38.1086C257.866 37.9918 258.175 37.8936 258.486 37.814ZM258.716 40.2926C258.694 40.2926 258.673 40.2926 258.651 40.2926C258.748 40.2926 258.846 40.2926 258.945 40.2892C258.868 40.2909 258.792 40.2943 258.716 40.2943V40.2926ZM260.413 38.713C260.345 38.7266 260.274 38.7401 260.2 38.7537C259.678 38.8552 258.964 38.9941 258.322 38.9941C257.808 38.9941 257.408 38.906 257.135 38.7316C257.109 38.7147 257.087 38.7012 257.068 38.6859C257.214 38.5962 257.439 38.5065 257.543 38.4658C257.838 38.3473 258.16 38.2441 258.524 38.1476C260.395 37.6583 262.37 37.4314 264.279 37.2113C264.485 37.1876 264.692 37.1639 264.899 37.1402C263.662 38.1001 261.747 38.4625 260.414 38.7147L260.413 38.713ZM266.8 36.5731C266.785 36.6357 266.767 36.6949 266.747 36.7559C266.767 36.6966 266.785 36.6357 266.8 36.5731C267.744 36.4613 268.689 36.3547 269.633 36.248C268.689 36.3563 267.744 36.463 266.8 36.5731ZM287.148 30.9963C287.146 30.9912 287.143 30.9878 287.141 30.9827C287.143 30.9861 287.146 30.9912 287.148 30.9963ZM286.965 30.6424C286.965 30.6424 286.968 30.6424 286.97 30.6424C286.909 30.6424 286.848 30.6458 286.787 30.6543C286.846 30.6458 286.906 30.6424 286.966 30.6424H286.965ZM286.333 31.0267C286.318 31.0691 286.306 31.108 286.298 31.1486C286.306 31.1097 286.318 31.0691 286.333 31.0267ZM285.808 30.7711C285.826 30.7711 285.845 30.7728 285.862 30.7762C285.841 30.7745 285.82 30.7728 285.799 30.7728C285.802 30.7728 285.805 30.7728 285.808 30.7728V30.7711ZM283.288 32.7892C283.351 32.7519 283.414 32.7147 283.477 32.6774C283.413 32.7147 283.35 32.7519 283.288 32.7892C283.274 32.801 283.261 32.8112 283.247 32.8213C283.261 32.8112 283.276 32.801 283.288 32.7892ZM278.624 38.0307C278.601 38.0172 278.58 38.002 278.558 37.9884C278.58 38.0036 278.602 38.0172 278.624 38.0307ZM278.453 37.5161C278.434 37.5956 278.423 37.6718 278.421 37.7429C278.423 37.6718 278.434 37.5939 278.453 37.5161ZM279.477 39.1972C279.431 39.1972 279.386 39.1972 279.341 39.1955C279.423 39.1972 279.504 39.1955 279.587 39.1938C279.55 39.1938 279.513 39.1972 279.477 39.1972ZM281.982 38.6707C281.879 38.7062 281.774 38.7418 281.67 38.7774C281.774 38.7435 281.879 38.7079 281.982 38.6707C282.474 38.498 282.962 38.3033 283.442 38.0832C282.963 38.3033 282.474 38.498 281.982 38.6707ZM287.441 32.7875C287.32 33.5459 286.729 34.2045 286.227 34.6955C285.187 35.713 283.809 36.5544 282.132 37.1961C281.379 37.4856 280.579 37.7615 279.832 37.8259C279.702 37.8377 279.575 37.8428 279.457 37.8428C279.401 37.8428 279.347 37.8428 279.291 37.8394C279.1 37.831 279.049 37.8259 278.889 37.7819C278.825 37.7649 278.77 37.7463 278.72 37.7243L278.714 37.7209L278.7 37.7141C278.683 37.704 278.667 37.6938 278.65 37.6837C278.67 37.5668 278.733 37.3654 278.912 37.0234C279.071 36.722 279.258 36.4495 279.519 36.143C280.002 35.5759 280.593 35.0426 281.436 34.4178C281.903 34.0708 282.523 33.6204 283.171 33.2226L283.186 33.2158L283.212 33.2039C283.271 33.1786 283.327 33.143 283.381 33.0973L283.461 33.0499C283.532 33.0076 283.602 32.9652 283.674 32.9246C284.293 32.5826 285.025 32.3202 285.973 32.1001C286.087 32.073 286.192 32.007 286.279 31.9071C286.525 32.2085 286.933 32.3591 287.271 32.4336C287.327 32.4455 287.382 32.4573 287.438 32.4675C287.453 32.5742 287.455 32.691 287.439 32.7892L287.441 32.7875ZM287.306 32.0967C287.157 32.0646 286.971 32.007 286.798 31.9223C286.97 32.007 287.157 32.0646 287.306 32.0967ZM289.128 32.3896C289.365 32.4218 289.601 32.4489 289.839 32.476C289.601 32.4506 289.365 32.4218 289.128 32.3896ZM290.263 31.5042C289.645 31.4449 289.028 31.3653 288.415 31.2671C289.029 31.3653 289.646 31.4449 290.263 31.5042ZM292.398 32.6334C292.325 32.6334 292.25 32.6334 292.176 32.6317C292.315 32.6334 292.454 32.6317 292.592 32.63C292.527 32.63 292.462 32.6334 292.397 32.6334H292.398ZM293.591 31.5736C293.419 31.5922 293.247 31.6024 293.074 31.6125C293.247 31.6041 293.419 31.5922 293.591 31.5736C294.045 31.5262 294.497 31.4771 294.949 31.4263C294.497 31.4771 294.044 31.5279 293.591 31.5736ZM300.463 30.722C300.478 30.722 300.494 30.7254 300.509 30.7288C300.493 30.7254 300.476 30.722 300.458 30.722C300.459 30.722 300.46 30.722 300.463 30.722ZM300.401 30.7186C300.42 30.7186 300.439 30.7186 300.458 30.722C300.43 30.7186 300.404 30.7186 300.377 30.722C300.386 30.722 300.394 30.7203 300.403 30.7203L300.401 30.7186ZM300.474 31.8157C299.889 32.2829 299.318 32.7672 298.757 33.2683C299.318 32.7688 299.889 32.2829 300.474 31.8157ZM291.682 39.3445C291.67 39.3445 291.659 39.3428 291.648 39.3411C291.665 39.3411 291.681 39.3428 291.698 39.3411C291.694 39.3411 291.688 39.3428 291.682 39.3428V39.3445ZM298.155 34.9207C297.824 35.0798 297.494 35.2423 297.164 35.4049C297.494 35.2423 297.823 35.0798 298.155 34.9207C298.691 34.665 299.23 34.4145 299.771 34.1707C299.229 34.4145 298.69 34.665 298.155 34.9207ZM307.419 32.7028C307.263 32.7028 307.108 32.7113 306.953 32.7265C307.107 32.7113 307.263 32.7028 307.419 32.7028ZM307.431 31.7039C307.431 31.7039 307.438 31.7039 307.442 31.7039C307.462 31.7039 307.482 31.7039 307.502 31.7039C307.478 31.7039 307.455 31.7039 307.431 31.7039ZM309.716 33.6966C309.718 33.6983 309.719 33.7017 309.721 33.7034C309.718 33.7017 309.717 33.6983 309.716 33.6966ZM310.231 34.5804C310.189 34.4906 310.147 34.4026 310.103 34.3163C310.147 34.4026 310.189 34.4923 310.231 34.5804C310.279 34.687 310.323 34.7886 310.365 34.8902C310.323 34.7903 310.279 34.687 310.231 34.5804ZM313.251 37.6363C313.413 37.7362 313.581 37.8157 313.753 37.8784C313.58 37.814 313.412 37.7362 313.251 37.6363ZM316.522 38.2C316.067 38.1882 315.613 38.1696 315.16 38.1323C315.613 38.1679 316.068 38.1882 316.522 38.2ZM317.247 39.226C317.235 39.226 317.223 39.226 317.211 39.226C317.252 39.226 317.293 39.226 317.333 39.226C317.304 39.226 317.275 39.226 317.247 39.226ZM320.294 38.046C320.305 38.046 320.315 38.0494 320.326 38.0511C320.305 38.0494 320.283 38.046 320.261 38.0477C320.272 38.0477 320.283 38.046 320.294 38.046Z" fill="#04ADBF"/>
</svg>
