<svg width="209" height="40" viewBox="0 0 209 40" fill="none" xmlns="http://www.w3.org/2000/svg">
<path d="M109.081 23.4406C109.071 23.4406 109.063 23.4406 109.053 23.4417C108.752 23.4681 108.52 23.4802 108.301 23.4802C108.129 23.4802 107.971 23.4725 107.818 23.4571C107.795 23.4549 107.772 23.4527 107.749 23.4494L107.732 23.4472L107.7 23.4428C107.664 23.4372 107.626 23.4306 107.588 23.4218C107.481 23.3987 107.388 23.3722 107.303 23.3392C107.296 23.3359 107.289 23.3337 107.282 23.3304C107.275 23.3271 107.268 23.3238 107.261 23.3205C107.251 23.316 107.241 23.3116 107.238 23.3105C107.199 23.2907 107.16 23.2676 107.123 23.2444C107.103 23.2312 107.083 23.2169 107.063 23.2026C107.053 23.1949 107.045 23.1882 107.037 23.1816L107.018 23.164C106.998 23.1453 106.98 23.1254 106.963 23.1056C106.959 23.1012 106.956 23.0968 106.952 23.0924C106.948 23.088 106.944 23.0825 106.94 23.0781L106.931 23.0626C106.918 23.0417 106.906 23.0208 106.898 23.0031C106.897 23.0009 106.896 22.9987 106.895 22.9965C106.893 22.9921 106.892 22.9888 106.89 22.9844C106.888 22.98 106.884 22.9723 106.882 22.9657C106.872 22.9359 106.864 22.904 106.857 22.8709C106.856 22.8632 106.854 22.8566 106.854 22.8489C106.852 22.8379 106.85 22.828 106.848 22.8169C106.847 22.8125 106.846 22.8081 106.845 22.8048C106.845 22.8048 106.845 22.8026 106.845 22.8015C106.845 22.785 106.845 22.7696 106.844 22.7552C106.841 22.6803 106.842 22.5999 106.849 22.5073C106.852 22.4699 106.854 22.4324 106.858 22.396C106.859 22.385 106.86 22.374 106.862 22.3641V22.3564C106.862 22.3564 106.862 22.3564 106.862 22.3553C106.862 22.3553 106.862 22.3542 106.862 22.3531L106.864 22.3421V22.3354C106.878 22.2396 106.891 22.147 106.905 22.0545C106.942 21.8143 106.994 21.5708 107.059 21.3295C107.134 21.054 107.227 20.7753 107.316 20.5065C107.397 20.2641 107.481 20.0128 107.553 19.7594C107.593 19.6206 107.584 19.4675 107.529 19.3396C107.453 19.1634 107.295 19.0488 107.127 19.0488C107.058 19.0488 106.993 19.0675 106.933 19.105C106.744 19.2206 106.554 19.3374 106.366 19.4531C106.36 19.4024 106.35 19.3518 106.337 19.3033C106.178 18.705 105.586 18.5386 105.409 18.5023C105.218 18.4626 105.018 18.4439 104.8 18.4439C104.336 18.4439 103.869 18.5331 103.432 18.629C102.229 18.8934 101.195 19.2229 100.273 19.636C100.27 19.636 100.268 19.636 100.265 19.636C100.236 19.636 100.21 19.6393 100.183 19.6448C99.5892 19.7771 98.9955 19.9093 98.4026 20.0426C96.4097 20.4888 94.3488 20.9494 92.3161 21.3714C91.4223 21.5565 90.5415 21.7328 89.6969 21.8936C89.6109 21.6292 89.454 21.4044 89.2276 21.2226C88.9066 20.9648 88.5363 20.6486 88.2268 20.263C88.2261 20.263 88.2254 20.2607 88.224 20.2596C88.2883 20.2001 88.4402 20.1296 88.6759 20.0492L88.7193 20.0338C89.0172 19.9313 89.3412 19.8784 89.6268 19.8321C89.8784 19.7914 89.9833 19.5457 89.9753 19.3209C89.9659 19.0411 89.7859 18.7513 89.5017 18.7513C89.48 18.7513 89.4569 18.7535 89.4345 18.7568C89.0071 18.8262 88.5544 18.911 88.1278 19.1171L88.1198 19.1215C87.8863 19.235 87.5493 19.398 87.3569 19.6614C87.315 19.6459 87.2702 19.6371 87.2253 19.6371C87.1957 19.6371 87.1653 19.6404 87.1349 19.647C86.5593 19.776 85.983 19.906 85.4074 20.036C83.4087 20.4866 81.3428 20.9516 79.3043 21.378C78.4206 21.5631 77.55 21.7372 76.7148 21.898C76.6295 21.6358 76.4733 21.411 76.2484 21.2292C75.9317 20.9714 75.5665 20.6563 75.2584 20.2663C75.2577 20.2652 75.2563 20.2641 75.2555 20.263C75.3192 20.2035 75.4703 20.1318 75.7068 20.0514L75.7494 20.0371C76.0459 19.9346 76.3684 19.8817 76.6533 19.8355C76.905 19.7947 77.0098 19.549 77.0019 19.3242C76.9917 19.0444 76.8124 18.7546 76.5282 18.7546C76.5058 18.7546 76.4834 18.7568 76.461 18.7601C76.0495 18.8273 75.6128 18.9088 75.1962 19.1039C74.9865 19.2019 74.6423 19.3628 74.4326 19.6107C71.9292 20.4095 69.2616 21.302 66.6938 22.406C65.3134 22.9998 64.0805 23.5981 62.9235 24.2361C62.8714 24.2647 62.8186 24.2945 62.7651 24.3242C63.2684 23.4978 63.789 22.6451 64.3104 21.8121C64.6503 21.27 64.9583 20.7874 65.2519 20.3368C65.4819 19.9853 65.5491 19.6437 65.4537 19.322C65.3546 18.9893 65.082 18.7976 64.706 18.7976C64.6517 18.7976 64.5968 18.802 64.5433 18.8097C64.5122 18.8141 64.4811 18.8185 64.45 18.8229C64.3581 18.835 64.2634 18.8471 64.1694 18.8725C63.9987 18.9188 63.8498 19.0102 63.7052 19.0994L63.6827 19.1138C63.434 19.2669 63.1708 19.4344 62.8786 19.625C62.4997 19.8729 62.1179 20.1296 61.7484 20.3786C61.5908 20.4855 61.4324 20.5913 61.2747 20.6971C60.3238 21.3339 59.2124 22.06 58.0533 22.6043C57.4834 22.872 56.8948 23.0913 56.304 23.2566C56.0871 23.3172 55.8007 23.3932 55.5086 23.445C55.5014 23.4461 55.4847 23.4494 55.4696 23.4516L55.4363 23.4571C55.3936 23.4626 55.3481 23.4692 55.3025 23.4736C55.2367 23.4802 55.1738 23.4857 55.1131 23.489C55.2627 23.3634 55.4153 23.2389 55.5636 23.1177C55.8658 22.8709 56.1789 22.6153 56.4761 22.3454C57.0055 21.8661 57.4176 21.3868 57.738 20.88C57.806 20.7731 57.8334 20.6288 57.8139 20.4844C57.7908 20.3136 57.7025 20.1605 57.584 20.0845C57.521 20.0448 57.4538 20.0239 57.3844 20.0239C57.2463 20.0239 57.1103 20.1087 57.0206 20.2497C56.8406 20.5351 56.6215 20.8106 56.351 21.0937C56.3207 21.0992 56.291 21.108 56.2628 21.1202C53.3768 22.3993 50.5531 23.2918 47.871 23.7711L47.8428 23.7766C47.3598 23.8625 46.8124 23.9606 46.2852 23.9606C45.8116 23.9606 45.4211 23.8824 45.0913 23.7215C44.8831 23.6201 44.7406 23.4692 44.6806 23.2841C44.6343 23.1431 44.6336 22.9745 44.6777 22.7839C44.6886 22.7365 44.7023 22.688 44.7204 22.6329C46.0119 21.9267 47.328 21.0717 48.6339 20.0922C50.0259 19.0477 51.449 17.8192 53.1115 16.227C54.4051 14.9886 55.8947 13.4902 57.1356 11.7714C57.811 10.8348 58.2818 10.0107 58.6166 9.17661C58.8111 8.69071 58.9615 8.23236 59.0772 7.77401C59.1531 7.47212 59.3108 6.84409 58.9355 6.46067C58.8067 6.32955 58.6498 6.26234 58.4676 6.26234C58.2311 6.26234 57.9918 6.37032 57.7806 6.46507C57.7467 6.4805 57.7134 6.49482 57.6816 6.50914C57.2694 6.68764 56.8681 6.88596 56.4884 7.09641C55.7306 7.51729 54.9612 8.04065 54.2026 8.65325C52.9242 9.68454 51.6544 10.9549 50.2074 12.6484C48.9521 14.1171 47.756 15.7125 46.6518 17.3883C46.1015 18.2246 45.5672 19.0928 45.0631 19.9688C44.8144 20.4018 44.5707 20.8414 44.3386 21.2744C44.2525 21.4342 44.1556 21.6193 44.0681 21.8121C43.05 22.3586 42.1179 22.7596 41.2205 23.0351C40.2428 23.3359 39.1719 23.5133 37.8667 23.5871C38.1913 22.5635 38.5341 21.5322 38.8863 20.5186C40.2674 16.5422 41.8952 12.493 43.8628 8.14091C44.8448 5.96816 45.8947 3.75794 47.0727 1.38356C47.1472 1.23371 47.1602 1.05522 47.1074 0.894356C47.0394 0.687217 46.8731 0.547288 46.6938 0.547288C46.5911 0.547288 46.4935 0.593564 46.411 0.681708C44.5779 2.65173 43.0695 4.97654 41.611 7.22422C40.9349 8.26542 40.2363 9.34298 39.5168 10.3655C38.4444 11.8904 37.2469 13.3304 36.0119 14.7936C35.5209 15.3754 35.0559 15.9064 34.5931 16.4133C34.5107 16.3152 34.4347 16.2304 34.3603 16.1521C33.392 15.133 32.1663 14.5721 30.9081 14.5721C30.5552 14.5721 30.1973 14.6162 29.8451 14.7022C28.9925 14.9104 28.1277 15.3467 27.3431 15.9626C26.5361 16.5973 26.0198 17.2837 25.7638 18.0638C25.4861 18.9099 25.5491 19.8288 25.9453 20.7224C26.2266 21.3559 26.6771 21.9718 27.2318 22.4864C25.9685 23.2499 24.6256 23.9518 23.2365 24.5743C19.5804 26.2138 15.6163 27.3597 11.454 27.9822C9.58981 28.2609 8.15442 28.3854 6.80002 28.3854C6.41749 28.3854 6.0393 28.3744 5.67629 28.3535C4.70298 28.2973 3.85476 28.1419 3.08174 27.8786C2.34127 27.6263 1.79387 27.2693 1.40844 26.7845C1.19729 26.519 1.0129 26.1818 0.861044 25.7797C0.784393 25.5781 0.62603 25.4569 0.438019 25.4569C0.295565 25.4569 0.114785 25.5318 0.0352418 25.7411C-0.0139303 25.8711 -0.0117609 26.0276 0.042473 26.1697C0.380893 27.0633 0.840073 27.7277 1.44605 28.2003C2.10409 28.7138 2.88795 28.9595 3.5684 29.1325C4.48966 29.366 5.50419 29.4795 6.67131 29.4795C7.43926 29.4795 8.25638 29.4333 9.32081 29.3286C13.5272 28.9165 17.6345 27.9403 21.5292 26.4286C23.883 25.5141 26.0957 24.4134 28.1067 23.1541C29.6332 24.1193 31.5047 24.4377 32.786 24.5941C33.4932 24.6801 34.2135 24.6922 34.9098 24.7032L35.0653 24.7054C35.3922 24.7109 35.6951 24.7131 35.9894 24.7131C35.9894 24.7175 35.9894 24.7231 35.9894 24.7275C35.9974 25.567 35.9851 26.2468 35.9497 26.8639C35.3603 28.965 34.8397 31.0738 34.4008 33.1331C34.3697 33.2797 34.3848 33.4273 34.4434 33.5507C34.523 33.7182 34.677 33.8217 34.8455 33.8217C35.0393 33.8217 35.1918 33.6763 35.2439 33.4427C35.3762 32.8477 35.599 32.266 35.8152 31.703C35.962 31.3195 36.1145 30.9229 36.2396 30.5174C36.5202 29.6129 36.7046 28.5595 36.8022 27.298C36.8066 27.2385 36.8109 27.1779 36.8152 27.1184L36.8167 27.0974C37.0438 26.2909 37.2817 25.48 37.5254 24.6845C37.7705 24.6735 38.0091 24.6591 38.2369 24.6426C39.357 24.56 40.2653 24.4156 41.0954 24.1865C41.9067 23.9628 42.7549 23.6312 43.6885 23.1728C43.7167 23.1596 43.7442 23.1453 43.7724 23.1309C43.7897 23.6874 44.0031 24.1666 44.3805 24.4796C44.8751 24.8894 45.5267 24.9787 45.9736 25.0095C46.1073 25.0194 46.2469 25.0238 46.3886 25.0238C47.3453 25.0238 48.3078 24.8079 49.2392 24.5996C49.3491 24.5754 49.4575 24.5512 49.5667 24.5269C50.8445 24.2449 52.2365 23.8262 53.8237 23.2466C53.8744 23.2279 53.9257 23.2092 53.9778 23.1904C53.8968 23.2984 53.8331 23.4251 53.8049 23.5838C53.776 23.7446 53.7919 23.9044 53.8505 24.0454C53.9821 24.3639 54.2829 24.4796 54.4058 24.5148C54.57 24.5611 54.7479 24.5842 54.9496 24.5842C55.2389 24.5842 55.5325 24.5357 55.7559 24.4928C58.1624 24.0322 60.2638 22.6186 62.2958 21.2502L62.4383 21.1543C63.0167 20.7654 63.5041 20.4425 64.0024 20.1329C64.0313 20.1153 64.0602 20.0966 64.0899 20.0767C64.1701 20.0239 64.2533 19.9699 64.3278 19.9423C64.3567 19.9313 64.3849 19.9225 64.4131 19.9148C64.3957 19.9401 64.3791 19.9655 64.3617 19.9897C64.3104 20.0657 64.2569 20.144 64.207 20.2222C64.058 20.4547 63.9062 20.6927 63.7449 20.9494C63.4709 21.3846 63.178 21.8562 62.8222 22.4357C62.5561 22.8698 62.2907 23.3039 62.0261 23.738C61.6978 24.2757 61.3586 24.8321 61.0224 25.3775C60.5408 25.6871 60.0455 26.0188 59.5096 26.3901C57.2419 27.9624 55.377 29.3396 53.6451 30.9504C51.5784 32.8731 50.0758 34.8222 49.0526 36.9101C49.0295 36.9564 49.0056 37.0037 48.981 37.0522C48.8335 37.342 48.6664 37.6714 48.6513 38.0438C48.6317 38.5132 48.8957 38.9264 49.2797 39.0256C49.3628 39.0465 49.4496 39.0575 49.5378 39.0575C49.9753 39.0575 50.3933 38.7975 50.7613 38.5672C50.8163 38.5331 50.8705 38.4989 50.9226 38.4669C51.859 37.8995 52.802 37.201 53.7261 36.3889C55.2989 35.0062 56.8406 33.2532 58.4394 31.0331C59.6419 29.3627 60.7165 27.6627 61.6103 26.216C61.6218 26.2083 61.6341 26.2006 61.6457 26.1929C61.6696 26.1774 61.6927 26.162 61.7166 26.1466C62.8164 25.458 64.0262 24.7969 65.3119 24.1821C67.9665 22.9117 70.7317 21.9454 72.8447 21.2458C73.3009 21.0948 73.797 20.934 74.3994 20.74C74.5866 21.1003 74.9468 21.4992 75.4725 21.93C75.5238 21.9718 75.5744 22.0093 75.6229 22.0457C75.6431 22.0611 75.6641 22.0765 75.6843 22.0919C75.5831 22.1107 75.4826 22.1294 75.3814 22.1481C74.8021 22.2528 74.2092 22.3432 73.6365 22.4302C72.9314 22.5371 72.2032 22.6484 71.491 22.7883C70.2841 23.0241 69.6188 23.37 69.3968 23.8747C69.3187 24.0521 69.2963 24.2515 69.3317 24.4531C69.459 25.1748 70.1171 25.5406 71.2871 25.5406C71.436 25.5406 71.5872 25.534 71.7368 25.5219C73.5591 25.3687 75.3756 25.0459 76.3185 23.7259C76.479 23.5023 76.6042 23.2588 76.6859 23.0175C77.5862 22.8467 78.5356 22.6561 79.5104 22.4522C81.5474 22.0269 83.6126 21.5609 85.6092 21.1113C86.1869 20.9813 86.7654 20.8513 87.3432 20.7213C87.3519 20.7191 87.3598 20.7169 87.3685 20.7147C87.4437 20.8491 87.5449 20.9868 87.6758 21.1345L87.738 21.205C87.973 21.4694 88.2153 21.7427 88.493 21.9608C88.5291 21.9895 88.5653 22.017 88.6 22.0424C88.6202 22.0578 88.6405 22.0732 88.66 22.0875C88.5486 22.1085 88.4366 22.1283 88.3252 22.1481C87.7619 22.2495 87.1848 22.3365 86.6266 22.4203C85.9136 22.5272 85.176 22.6384 84.4565 22.7806C83.6965 22.9315 82.653 23.207 82.3609 23.8636C82.2821 24.041 82.2582 24.2405 82.2922 24.4432C82.4433 25.3434 83.4463 25.5318 84.2613 25.5318C84.3878 25.5318 84.5151 25.5274 84.6402 25.5186C86.3655 25.393 88.2616 25.09 89.2493 23.7909C89.4352 23.5463 89.5791 23.2786 89.6687 23.0109C90.6088 22.8335 91.6002 22.6362 92.6183 22.4236C94.343 22.0644 96.1023 21.6755 97.7113 21.3152C97.5413 21.4882 97.3866 21.6667 97.2478 21.8518C96.9968 22.1856 96.6837 22.601 96.6765 23.1376C96.67 23.6091 96.944 24.0752 97.375 24.3253C97.5883 24.4487 97.8407 24.5093 98.1473 24.5093C98.2731 24.5093 98.4062 24.4994 98.5667 24.4796C98.9688 24.4278 99.3318 24.355 99.6774 24.257C100.106 24.1358 100.498 23.954 100.826 23.792C101.225 23.5948 101.638 23.3833 102.054 23.1618C103.435 22.428 104.77 21.6391 106.313 20.6993C106.294 20.7632 106.275 20.8271 106.256 20.891C106.116 21.3835 106.024 21.8947 105.98 22.4082C105.935 22.9569 106.031 23.4218 106.259 23.7546C106.601 24.2537 107.128 24.4344 107.51 24.4994C107.76 24.5424 108.026 24.5622 108.32 24.5622C108.546 24.5622 108.787 24.5501 109.077 24.5247C109.222 24.5115 109.354 24.4256 109.432 24.2922C109.486 24.1986 109.512 24.0873 109.507 23.9705C109.494 23.6796 109.306 23.4428 109.087 23.4428L109.081 23.4406ZM107.126 19.268C107.134 19.268 107.142 19.268 107.149 19.2691C107.14 19.2691 107.131 19.2691 107.122 19.2691C107.123 19.2691 107.125 19.2691 107.126 19.2691V19.268ZM106.925 21.2436C107.042 20.8106 107.196 20.3897 107.331 19.9622C107.196 20.3897 107.042 20.8094 106.925 21.2436C106.908 21.3064 106.891 21.3681 106.876 21.4309C106.891 21.3681 106.907 21.3053 106.925 21.2436ZM89.6752 19.5931C89.6557 19.6008 89.634 19.6074 89.6109 19.6107C89.5415 19.6217 89.4721 19.6338 89.4034 19.6448C89.4728 19.6327 89.5422 19.6217 89.6109 19.6107C89.6348 19.6074 89.6557 19.6008 89.6752 19.5931ZM89.4496 18.9738C89.4677 18.9705 89.4844 18.9694 89.501 18.9694C89.5039 18.9694 89.5068 18.9694 89.5104 18.9694C89.4909 18.9694 89.4706 18.9694 89.4496 18.9727C89.3947 18.9816 89.3405 18.9904 89.2855 19.0003C89.3397 18.9904 89.3947 18.9816 89.4496 18.9727V18.9738ZM76.5275 18.9716C76.5275 18.9716 76.5333 18.9716 76.5362 18.9716C76.5167 18.9716 76.4964 18.9716 76.4754 18.9749C76.4935 18.9716 76.5109 18.9705 76.5275 18.9705V18.9716ZM65.3206 19.4091C65.3307 19.4443 65.3387 19.4785 65.343 19.5137C65.3387 19.4796 65.3307 19.4443 65.3206 19.4091C65.3148 19.3892 65.3076 19.3694 65.2996 19.3507C65.3076 19.3694 65.3148 19.3881 65.3206 19.4091ZM57.5261 20.285C57.5369 20.2916 57.5463 20.3004 57.5558 20.3092C57.5463 20.3004 57.5362 20.2916 57.5261 20.285ZM57.3822 20.242C57.3858 20.242 57.3902 20.2431 57.3938 20.2442C57.3865 20.2442 57.3793 20.2442 57.3728 20.2442C57.3757 20.2442 57.3793 20.2431 57.3822 20.2431V20.242ZM57.6317 20.7246C57.6657 20.6706 57.6772 20.6078 57.6722 20.545C57.6772 20.6078 57.6657 20.6717 57.6317 20.7246ZM46.688 0.764343C46.7025 0.764343 46.7169 0.766547 46.7314 0.768751C46.7169 0.766547 46.7017 0.764343 46.6873 0.764343C46.6873 0.764343 46.6873 0.764343 46.688 0.764343ZM46.9519 1.24693C46.9606 1.2293 46.9671 1.21168 46.9729 1.19294C46.9671 1.21057 46.9606 1.2282 46.9519 1.24693C46.8131 1.52569 46.6757 1.80555 46.5376 2.08541C46.675 1.80555 46.8131 1.52569 46.9519 1.24693ZM25.8875 18.1574C25.8195 18.3645 25.7754 18.5717 25.7515 18.7777C25.7747 18.5717 25.8195 18.3645 25.8875 18.1574ZM0.427895 25.6728C0.427895 25.6728 0.430788 25.6728 0.432957 25.6728C0.435127 25.6728 0.436573 25.6728 0.438019 25.6728C0.435127 25.6728 0.431511 25.6728 0.428619 25.6728H0.427895ZM3.58648 28.911C3.42305 28.8691 3.25818 28.824 3.09476 28.7744C3.25891 28.824 3.42305 28.8702 3.58648 28.911C3.58937 28.911 3.59226 28.9121 3.59516 28.9132C3.59226 28.9132 3.58937 28.9121 3.58648 28.911ZM6.66552 29.2548C6.63153 29.2548 6.59827 29.2548 6.56428 29.2537C6.61201 29.2537 6.65974 29.2537 6.70674 29.2537C6.693 29.2537 6.67926 29.2537 6.6648 29.2537L6.66552 29.2548ZM18.5478 27.2363C19.0699 27.0743 19.5891 26.9013 20.1054 26.7206C19.5891 26.9024 19.0699 27.0743 18.5478 27.2363ZM23.2727 24.7814C24.0037 24.4531 24.729 24.1016 25.4442 23.7237C24.729 24.1005 24.0037 24.4531 23.2727 24.7814ZM34.8404 33.597C34.8288 33.597 34.818 33.597 34.8064 33.5948C34.8216 33.597 34.8368 33.597 34.852 33.5948C34.8484 33.5948 34.844 33.5948 34.8404 33.5948V33.597ZM43.7391 8.012C43.8678 7.72774 43.9973 7.44237 44.1274 7.15921C43.9973 7.44347 43.8678 7.72774 43.7391 8.012ZM45.3379 3.18611C45.142 3.59267 44.9467 3.99924 44.7536 4.4069C44.9474 3.99924 45.142 3.59267 45.3379 3.18611ZM39.6108 10.5241C40.5335 9.21297 41.4005 7.84563 42.2842 6.49152C41.4005 7.84563 40.5328 9.21187 39.6108 10.5241C39.1849 11.129 38.7409 11.7207 38.2846 12.3013C38.7402 11.7207 39.1849 11.129 39.6108 10.5241ZM36.0957 14.9655C36.2476 14.7859 36.3987 14.6063 36.5499 14.4256C36.3987 14.6063 36.2469 14.7859 36.0957 14.9655C35.9721 15.112 35.8484 15.2575 35.7241 15.4018C35.8484 15.2575 35.9728 15.1109 36.0957 14.9655ZM34.2735 16.3306C34.2055 16.259 34.1361 16.1907 34.066 16.1246C34.1361 16.1918 34.2055 16.2601 34.2735 16.3306ZM32.3825 18.8956C32.4534 18.8306 32.525 18.7678 32.5951 18.7028C32.8656 18.4505 33.1317 18.1938 33.3942 17.9315C33.1324 18.1938 32.8663 18.4505 32.5951 18.7028C32.525 18.7678 32.4534 18.8317 32.3825 18.8956ZM30.9037 14.7892C30.9421 14.7892 30.9797 14.7914 31.0173 14.7925C30.9551 14.7903 30.8929 14.7903 30.83 14.7925C30.8546 14.7925 30.8792 14.7903 30.9037 14.7903V14.7892ZM29.8639 14.9159C29.9594 14.8928 30.0548 14.8729 30.1495 14.8564C30.0541 14.8729 29.9594 14.8928 29.8639 14.9159C29.7648 14.9401 29.6672 14.9677 29.5696 14.9974C29.6672 14.9677 29.7656 14.9401 29.8639 14.9159ZM27.4053 16.1543C27.4964 16.0827 27.5897 16.0133 27.6844 15.945C27.5897 16.0122 27.4964 16.0827 27.4053 16.1543C27.3641 16.1863 27.3236 16.2193 27.2838 16.2524C27.3243 16.2193 27.3648 16.1863 27.4053 16.1543ZM27.2448 22.7079C27.3496 22.6451 27.4552 22.5822 27.5593 22.5172C27.4552 22.5811 27.3496 22.6439 27.2448 22.7079ZM27.0929 20.8811C26.8427 20.5241 26.2866 19.5875 26.539 18.5915C26.6981 17.9646 27.1486 17.3685 27.8782 16.8209C28.887 16.0629 29.9883 15.6453 30.9782 15.6453C31.488 15.6453 31.9747 15.7533 32.4245 15.9648C32.9704 16.2215 33.4744 16.6105 33.9242 17.1228C33.4383 17.6318 32.9769 18.0891 32.5192 18.5144C31.1959 19.7451 29.7149 20.8932 28.1176 21.9256C27.7119 21.6237 27.367 21.2722 27.0922 20.8811H27.0929ZM31.2328 23.2224C30.3723 23.0186 29.681 22.7883 29.0938 22.5062C30.0295 21.8749 30.9291 21.2017 31.7715 20.4998C32.6805 19.7429 33.58 18.8978 34.5186 17.9194C34.784 18.3414 35.0067 18.7998 35.1817 19.2846C35.6257 20.5131 35.873 21.898 35.9547 23.6268C35.8687 23.6268 35.7826 23.6268 35.6959 23.6268C34.2605 23.6168 32.734 23.5783 31.232 23.2235L31.2328 23.2224ZM32.901 23.7215C33.2676 23.7601 33.6342 23.7876 34.003 23.8053C33.635 23.7865 33.2676 23.7601 32.901 23.7215ZM36.0104 24.4873C35.6951 24.4873 35.3791 24.484 35.0639 24.4796C34.9048 24.4774 34.745 24.474 34.5859 24.4718C34.745 24.4751 34.9048 24.4774 35.0639 24.4796C35.4182 24.4851 35.7725 24.4884 36.1276 24.4873C36.0885 24.4873 36.0502 24.4873 36.0111 24.4873H36.0104ZM36.108 23.846H36.1102C36.1102 23.846 36.1088 23.846 36.108 23.846ZM35.9367 19.1854C36.0082 19.3925 36.0733 19.6019 36.1326 19.8134C36.0733 19.6019 36.0082 19.3914 35.9367 19.1854ZM36.6554 27.266C36.6475 27.3652 36.6395 27.4643 36.6301 27.5646C36.6388 27.4654 36.6475 27.3652 36.6554 27.266C36.6576 27.2374 36.6598 27.2087 36.6612 27.1801C36.6591 27.2087 36.6576 27.2374 36.6554 27.266ZM36.7408 24.6823C36.761 24.6151 36.782 24.5468 36.803 24.4796C36.782 24.5468 36.7617 24.6151 36.7408 24.6823ZM36.85 23.619C36.8015 22.731 36.7061 21.8738 36.5665 21.0684C36.3018 19.5446 35.8361 18.2489 35.181 17.2132C36.6034 15.664 37.9187 14.0278 39.13 12.4853C40.3123 10.9803 41.3781 9.33968 42.4093 7.75418C43.0579 6.75595 43.7225 5.73348 44.4181 4.74185C43.0637 7.61095 41.8684 10.3159 40.7816 12.9646C39.263 16.6678 37.9954 20.1539 36.9093 23.619C36.8897 23.619 36.8695 23.619 36.85 23.6201V23.619ZM41.2465 23.2455C41.0997 23.2907 40.9515 23.3326 40.8033 23.3722C40.9515 23.3337 41.099 23.2918 41.2465 23.2455C41.5293 23.1585 41.8091 23.0615 42.0861 22.9547C41.8091 23.0604 41.5293 23.1585 41.2465 23.2455ZM43.925 22.8114C43.8302 22.8599 43.7355 22.9095 43.64 22.9558C43.7355 22.9084 43.8295 22.8588 43.925 22.8114ZM54.3191 13.8813C54.2894 13.9133 54.259 13.9441 54.2287 13.975C54.2583 13.9441 54.2894 13.9122 54.3191 13.8813C54.4189 13.7766 54.5194 13.6698 54.6192 13.5629C54.5194 13.6698 54.4189 13.7755 54.3191 13.8813ZM57.6266 9.51707C57.4711 9.82667 57.3012 10.1275 57.119 10.4216C57.3005 10.1275 57.4711 9.82667 57.6266 9.51707C57.6801 9.41129 57.7315 9.30442 57.7806 9.19644C57.7307 9.30442 57.6794 9.41129 57.6266 9.51707ZM58.4647 6.47829C58.4799 6.47829 58.4958 6.47829 58.511 6.4805C58.4922 6.4794 58.4734 6.4794 58.4546 6.4794C58.4582 6.4794 58.4611 6.4794 58.4647 6.4794V6.47829ZM58.4495 7.10963C58.4495 7.10963 58.4445 7.11073 58.4423 7.11404C58.4445 7.11183 58.4466 7.10963 58.4495 7.10963ZM57.8746 7.3344C57.7799 7.37516 57.6866 7.41813 57.5934 7.4611C57.6866 7.41703 57.7806 7.37516 57.8746 7.3344ZM57.7177 6.71518C57.7459 6.70306 57.7749 6.68984 57.8038 6.67662C57.7741 6.68984 57.7452 6.70306 57.7177 6.71518C57.6469 6.74603 57.576 6.77798 57.5059 6.80994C57.5767 6.77798 57.6469 6.74603 57.7177 6.71518ZM56.2317 8.20372C55.8731 8.42628 55.5231 8.66537 55.1825 8.91769C55.5238 8.66537 55.8731 8.42628 56.2317 8.20372ZM46.7502 17.5382C47.294 16.7118 47.8616 15.9042 48.4524 15.1164C49.0425 14.3286 49.6564 13.5607 50.292 12.817C50.3875 12.7046 50.4844 12.5933 50.5805 12.482C50.4836 12.5933 50.3875 12.7046 50.292 12.817C49.6557 13.5618 49.0425 14.3286 48.4524 15.1164C47.8623 15.9042 47.2947 16.7129 46.7502 17.5382C46.4739 17.9569 46.2042 18.3811 45.941 18.8097C46.205 18.3811 46.4747 17.9569 46.7502 17.5382ZM45.8687 20.4348C47.7597 17.1669 49.9579 14.2174 52.4028 11.6667C53.75 10.2608 55.0205 9.19534 56.2874 8.40865C56.6417 8.18829 57.0033 7.98556 57.3612 7.80597C57.5507 7.71121 57.7373 7.62307 57.9151 7.54594C57.9347 7.53713 57.9694 7.5195 58.0128 7.49746C58.0677 7.46882 58.1632 7.42034 58.2507 7.38177C58.2456 7.4005 58.2405 7.42034 58.2355 7.43907C58.1805 7.65833 58.1162 7.87979 58.0446 8.09905C57.9036 8.52875 57.7242 8.96066 57.5124 9.38265C56.6952 11.0089 55.4551 12.4181 54.2374 13.6995C52.9958 15.0051 51.6631 16.2733 50.2761 17.4699C48.8545 18.6962 47.3916 19.787 45.928 20.7114C45.8137 20.7841 45.7017 20.8535 45.5925 20.9207C45.685 20.7566 45.7776 20.5946 45.8694 20.4348H45.8687ZM44.5736 22.5745C44.5606 22.6175 44.549 22.6605 44.5389 22.7034C44.5157 22.8037 44.502 22.9018 44.4991 22.9965C44.502 22.9029 44.5157 22.8048 44.5389 22.7034C44.549 22.6594 44.5606 22.6164 44.5736 22.5745ZM45.9757 24.7825C46.0473 24.7881 46.1182 24.7914 46.1898 24.7936C46.1182 24.7914 46.0466 24.7881 45.9757 24.7825ZM46.3843 24.7969C46.3438 24.7969 46.3026 24.7958 46.2621 24.7947C46.3098 24.7947 46.3575 24.7969 46.406 24.7969C46.3987 24.7969 46.3915 24.7969 46.3843 24.7969ZM49.5414 24.3022C49.9001 24.2228 50.258 24.1358 50.6153 24.041C50.2588 24.1358 49.9008 24.2239 49.5414 24.3022ZM54.3574 22.8114C54.1672 22.8841 53.9763 22.9558 53.7854 23.0263C53.1346 23.2643 52.4773 23.4901 51.8142 23.6951C52.4773 23.4901 53.1353 23.2643 53.7854 23.0263C53.9763 22.9569 54.1672 22.8852 54.3574 22.8114C54.5476 22.7387 54.737 22.6638 54.9265 22.5889C54.737 22.6649 54.5476 22.7387 54.3574 22.8114ZM54.5013 23.6411C54.5013 23.6411 54.5013 23.6411 54.5006 23.6411C54.5006 23.6411 54.5006 23.6411 54.5013 23.6411ZM54.5121 23.7755C54.5056 23.7887 54.502 23.7953 54.502 23.7953C54.502 23.7953 54.5049 23.7887 54.5121 23.7755ZM54.6821 23.694C54.6589 23.6896 54.6358 23.6841 54.6134 23.6774C54.6358 23.683 54.6589 23.6896 54.6821 23.694C54.6821 23.694 54.6821 23.694 54.6828 23.694C54.6828 23.694 54.6842 23.694 54.685 23.694C54.6835 23.694 54.6821 23.694 54.6821 23.694ZM55.5498 22.872C55.3372 23.0461 55.1246 23.2191 54.9149 23.3976C55.1239 23.2191 55.3372 23.0461 55.5498 22.872ZM54.9446 24.3562C54.9388 24.3562 54.933 24.3562 54.9272 24.3562C54.9482 24.3562 54.9699 24.3562 54.9908 24.355C54.9749 24.355 54.9598 24.3573 54.9438 24.3573L54.9446 24.3562ZM55.3119 23.6863C55.2006 23.6984 55.0892 23.7061 54.9771 23.7083C55.0885 23.7061 55.2006 23.6984 55.3119 23.6863ZM56.3293 23.4659C56.1963 23.5034 56.0632 23.5386 55.9287 23.5717C56.0632 23.5397 56.1963 23.5034 56.3293 23.4659C56.6309 23.3811 56.9288 23.2841 57.2238 23.1739C56.9295 23.2841 56.6309 23.3811 56.3293 23.4659ZM61.3326 20.8921C61.1063 21.0441 60.8792 21.194 60.6514 21.3427C60.8799 21.194 61.1063 21.0441 61.3326 20.8921ZM64.7219 19.6526C64.7219 19.6526 64.7204 19.6526 64.7197 19.6526C64.7204 19.6526 64.7219 19.6526 64.7226 19.6526H64.7219ZM64.7067 19.0102C64.711 19.0102 64.7154 19.0102 64.7197 19.0102C64.7132 19.0102 64.7067 19.0102 64.7009 19.0102C64.7031 19.0102 64.7052 19.0102 64.7067 19.0102ZM64.6705 19.647C64.6705 19.647 64.6705 19.647 64.6698 19.647C64.6373 19.6492 64.6069 19.6515 64.5765 19.6548C64.6069 19.6515 64.638 19.6492 64.6705 19.647ZM64.3408 19.7032C64.416 19.679 64.4876 19.6647 64.5635 19.657C64.4883 19.6658 64.4167 19.6801 64.3408 19.7032ZM64.3053 20.3687C64.3415 20.3125 64.3791 20.2563 64.4167 20.2013C64.3791 20.2574 64.3415 20.3125 64.3053 20.3687C64.228 20.4888 64.1513 20.6111 64.0747 20.7312C64.1513 20.61 64.228 20.4888 64.3053 20.3687ZM49.2992 38.8019C49.2204 38.781 49.148 38.7457 49.0844 38.6994C49.148 38.7468 49.2204 38.7821 49.2992 38.8019ZM49.5335 38.8316C49.5291 38.8316 49.5255 38.8316 49.5212 38.8316C49.5429 38.8316 49.5646 38.8316 49.5863 38.8305C49.5689 38.8305 49.5508 38.8327 49.5335 38.8327V38.8316ZM50.8655 38.2576C50.8655 38.2576 50.8582 38.262 50.8553 38.2642C50.8589 38.262 50.8626 38.2598 50.8655 38.2576ZM52.303 37.2858C52.7651 36.942 53.2141 36.5762 53.6495 36.1928C53.2134 36.5762 52.7651 36.9409 52.303 37.2858ZM52.2423 36.3074C51.7918 36.6567 51.3304 36.9828 50.8698 37.277C50.6333 37.4279 50.3918 37.5745 50.1525 37.7111L50.0852 37.7497C50.0006 37.7981 49.9052 37.8532 49.8408 37.8841C49.8205 37.894 49.7475 37.9216 49.7041 37.9348C49.6882 37.9403 49.6716 37.9436 49.6557 37.948L49.6275 37.9557L49.5993 37.9634C49.5942 37.9634 49.5877 37.9634 49.579 37.9645C49.574 37.9645 49.5696 37.9645 49.5646 37.9656C49.6441 37.7574 49.7533 37.548 49.8596 37.3453C49.8835 37.3001 49.9066 37.255 49.9297 37.2109C50.2024 36.6809 50.5133 36.1521 50.8539 35.6386C51.4772 34.6977 52.2177 33.7843 53.1158 32.8477C54.9026 30.9835 56.9078 29.4751 58.6332 28.2444C58.9702 28.0042 59.3223 27.7541 59.6796 27.504C59.4474 27.8654 59.2283 28.2014 59.0179 28.5177C57.4972 30.8039 56.1341 32.558 54.7291 34.0355C53.8939 34.9136 53.0811 35.6573 52.2437 36.3074H52.2423ZM54.8101 34.2173C54.6105 34.4277 54.4066 34.6327 54.2005 34.8354C54.4066 34.6327 54.6105 34.4266 54.8101 34.2173ZM58.3374 30.8645C58.2283 31.0154 58.1191 31.1664 58.0077 31.3173C58.1183 31.1675 58.2283 31.0166 58.3374 30.8645C58.6534 30.4249 58.9637 29.9798 59.2681 29.5313C58.9637 29.9809 58.6542 30.4249 58.3374 30.8645ZM59.1184 28.6741C58.9514 28.9253 58.7822 29.1765 58.6115 29.4255C58.7822 29.1765 58.9514 28.9264 59.1184 28.6741ZM61.1026 25.556C61.2552 25.3081 61.4064 25.0602 61.5582 24.8123C61.4064 25.0602 61.2552 25.3092 61.1026 25.556ZM61.658 25.9372C62.0955 25.6629 62.5388 25.4007 62.9871 25.1483C62.5388 25.4007 62.0955 25.664 61.658 25.9372ZM66.735 22.6098C67.6454 22.2187 68.566 21.854 69.4923 21.5102C68.566 21.854 67.6462 22.2187 66.735 22.6098ZM74.6083 20.7665C74.6481 20.8271 74.6922 20.8877 74.7385 20.9461C74.6922 20.8866 74.6481 20.8271 74.6083 20.7665ZM71.5062 23.0009C71.7325 22.9569 71.9596 22.915 72.1873 22.8764C71.9596 22.9161 71.7325 22.9569 71.5062 23.0009C71.483 23.0053 71.4584 23.0109 71.4317 23.0153C71.4584 23.0097 71.4837 23.0053 71.5062 22.9998V23.0009ZM70.9942 23.8185C71.1909 23.7535 71.3897 23.7028 71.5893 23.6609C71.7889 23.619 71.9899 23.5849 72.1917 23.5529C71.9899 23.5849 71.7889 23.6179 71.5893 23.6609C71.3897 23.7039 71.1916 23.7535 70.9942 23.8185ZM70.2429 24.2063C70.2624 24.1655 70.2978 24.1215 70.3535 24.0752C70.2978 24.1215 70.2624 24.1644 70.2429 24.2063ZM71.2849 25.3136C71.2603 25.3136 71.2357 25.3136 71.2111 25.3136C71.2364 25.3136 71.2617 25.3136 71.2863 25.3136C71.2863 25.3136 71.2856 25.3136 71.2849 25.3136ZM71.7267 25.2949C72.0709 25.2662 72.4477 25.2299 72.8338 25.1737C72.4469 25.2299 72.0709 25.2651 71.7267 25.2949ZM75.2223 23.4152C74.6394 23.8548 73.9105 24.0322 73.2149 24.1755C73.1411 24.1909 73.0674 24.2063 72.9922 24.2217C72.4614 24.3341 71.9133 24.4498 71.3767 24.4498C71.0998 24.4498 70.8554 24.419 70.6297 24.3562C70.5328 24.3286 70.4656 24.2967 70.4222 24.2702C70.4222 24.2702 70.4229 24.2702 70.4237 24.2702C70.5321 24.181 70.7266 24.1237 70.8828 24.0785C70.9334 24.0642 70.9819 24.0499 71.026 24.0355C71.5004 23.8802 71.9769 23.8086 72.4817 23.7325L72.6118 23.7127C73.5114 23.5772 74.4355 23.4229 75.4233 23.2455C75.3611 23.3061 75.2946 23.3634 75.2237 23.4174L75.2223 23.4152ZM75.8709 22.9403C75.5983 22.9899 75.3264 23.0395 75.0538 23.088C75.3264 23.0395 75.599 22.991 75.8709 22.9403ZM76.0322 22.2429C75.8933 22.2693 75.7545 22.2947 75.6156 22.32C75.7545 22.2947 75.8933 22.2682 76.0322 22.2429ZM76.218 23.5562C76.1782 23.6124 76.1363 23.6653 76.0929 23.7171C76.1363 23.6653 76.1782 23.6113 76.218 23.5562C76.239 23.5265 76.2592 23.4978 76.2788 23.4681C76.2592 23.4978 76.239 23.5276 76.218 23.5562ZM76.1826 21.4165C76.2534 21.4738 76.3156 21.5355 76.3691 21.5994C76.3156 21.5355 76.2534 21.4749 76.1826 21.4165ZM79.488 22.2275C79.2754 22.2715 79.062 22.3145 78.8487 22.3586C79.062 22.3145 79.2746 22.2726 79.488 22.2275ZM87.1581 19.8586C87.1819 19.8531 87.2051 19.8509 87.2268 19.8509C87.2044 19.8509 87.1812 19.8531 87.1573 19.8586H87.1581ZM88.1741 19.3198C88.276 19.2702 88.3794 19.2284 88.4836 19.192C88.3787 19.2284 88.2753 19.2713 88.1741 19.3198ZM82.4296 24.3804C82.4238 24.3462 82.4209 24.3143 82.4195 24.2812C82.4209 24.3132 82.4238 24.3462 82.4296 24.3804C82.4339 24.4079 82.4397 24.4333 82.4462 24.4586C82.4397 24.4333 82.4339 24.4068 82.4296 24.3804ZM88.3389 22.3597C88.4517 22.3399 88.5638 22.3189 88.6759 22.298C88.5638 22.3189 88.451 22.3399 88.3389 22.3597ZM84.4724 22.9921C84.4551 22.9954 84.4363 22.9998 84.4167 23.0031C84.4363 22.9987 84.4551 22.9954 84.4724 22.9921ZM84.2591 25.3037C84.2461 25.3037 84.2331 25.3037 84.2208 25.3037C84.2374 25.3037 84.2533 25.3037 84.2692 25.3037C84.2656 25.3037 84.2627 25.3037 84.2598 25.3037H84.2591ZM88.2015 23.4086C87.5956 23.8636 86.8124 24.0454 86.0618 24.192C85.991 24.2063 85.9186 24.2206 85.8456 24.235C85.3474 24.3352 84.8325 24.4388 84.3278 24.4388C84.0552 24.4388 83.8144 24.409 83.5924 24.3473C83.4948 24.3198 83.4268 24.2878 83.3834 24.2614C83.4919 24.1722 83.6871 24.1149 83.844 24.0697C83.8946 24.0554 83.9431 24.041 83.9879 24.0267C84.4717 23.8692 84.9569 23.7964 85.471 23.7204C85.539 23.7105 85.607 23.7006 85.675 23.6896C86.5463 23.5573 87.443 23.4086 88.4033 23.2367C88.3404 23.2973 88.2731 23.3557 88.2008 23.4097L88.2015 23.4086ZM88.6289 23.2632C88.6998 23.1783 88.7641 23.088 88.8205 22.991C88.7641 23.088 88.7005 23.1783 88.6289 23.2632ZM88.8545 22.9326C88.6513 22.9701 88.4481 23.0053 88.2449 23.0417C88.4481 23.0053 88.6513 22.969 88.8545 22.9326ZM88.8437 21.984C88.8842 22.0203 88.9196 22.0589 88.9478 22.0997C88.9189 22.0589 88.8834 22.0203 88.8437 21.984ZM106.773 23.1034C106.773 23.1034 106.773 23.1034 106.771 23.1012C106.772 23.1034 106.772 23.1034 106.772 23.1034H106.773ZM105.392 18.7138C105.47 18.7303 105.55 18.7546 105.629 18.7865C105.55 18.7546 105.47 18.7292 105.392 18.7138ZM105.588 19.798C105.586 19.8035 105.584 19.8079 105.582 19.8112C105.584 19.8079 105.586 19.8024 105.588 19.798ZM105.412 19.3826C105.35 19.3595 105.287 19.3429 105.224 19.3308C105.222 19.3308 105.219 19.3308 105.217 19.3297C105.219 19.3297 105.222 19.3297 105.224 19.3308C105.287 19.344 105.35 19.3606 105.412 19.3826ZM105.09 19.3132C105.013 19.3066 104.935 19.3044 104.856 19.3033C104.935 19.3033 105.012 19.3066 105.09 19.3132ZM105.215 19.3297C105.204 19.3275 105.187 19.3264 105.173 19.3242C105.187 19.3264 105.204 19.3286 105.215 19.3297ZM105.154 19.3209C105.154 19.3209 105.154 19.3209 105.153 19.3209C105.153 19.3209 105.153 19.3209 105.154 19.3209ZM104.801 18.6576C104.828 18.6576 104.856 18.6587 104.882 18.6598C104.82 18.6587 104.757 18.6587 104.695 18.6598C104.731 18.6598 104.766 18.6576 104.801 18.6576ZM104.189 19.3529C104.342 19.3319 104.494 19.3165 104.647 19.3088C104.494 19.3165 104.341 19.3319 104.189 19.3529C104.185 19.3529 104.181 19.3529 104.177 19.354C104.182 19.354 104.185 19.3529 104.189 19.3529ZM100.267 19.8498C100.275 19.8498 100.285 19.8498 100.294 19.8498C100.283 19.8498 100.273 19.8498 100.262 19.8498C100.263 19.8498 100.265 19.8498 100.267 19.8498ZM103.132 19.5754C103.058 19.5942 102.984 19.614 102.91 19.6338C102.383 19.7715 101.859 19.9258 101.346 20.112C101.86 19.9258 102.383 19.7715 102.91 19.6338C102.984 19.614 103.059 19.5953 103.132 19.5754ZM98.5595 21.6171C98.5566 21.6193 98.5544 21.6215 98.5523 21.6237C98.5544 21.6215 98.5573 21.6193 98.5595 21.6171ZM98.5284 21.6435C98.5161 21.6545 98.5038 21.6644 98.4915 21.6755C98.3599 21.7912 98.2326 21.9135 98.1119 22.0424C98.2326 21.9135 98.3599 21.7912 98.4915 21.6744C98.5038 21.6633 98.5161 21.6534 98.5284 21.6424V21.6435ZM89.5682 22.8015C89.5653 22.8125 89.561 22.8246 89.5581 22.8357C89.5617 22.8246 89.5653 22.8125 89.5682 22.8015C90.133 22.6946 90.6977 22.5845 91.2611 22.4721C90.697 22.5845 90.133 22.6957 89.5682 22.8015ZM92.3363 21.5829C91.8815 21.6777 91.4266 21.7702 90.9718 21.8606C91.4274 21.7702 91.8822 21.6777 92.3363 21.5829C92.9936 21.4463 93.6502 21.3064 94.3061 21.1653C93.6502 21.3075 92.9936 21.4474 92.3363 21.5829ZM96.9766 21.2513C97.4632 21.1433 97.9492 21.0342 98.4351 20.9251C97.9492 21.0342 97.4625 21.1422 96.9766 21.2513ZM97.7561 22.4666C97.7409 22.4864 97.7257 22.5073 97.7106 22.5283C97.7106 22.5283 97.7106 22.5283 97.7098 22.5283C97.7098 22.5283 97.7098 22.5283 97.7106 22.5272C97.7257 22.5062 97.7409 22.4864 97.7561 22.4655V22.4666ZM97.4141 23.077C97.4177 23.0593 97.422 23.0428 97.4271 23.0263C97.422 23.0428 97.4177 23.0604 97.4141 23.077C97.4141 23.077 97.4141 23.0803 97.4126 23.0847C97.4126 23.0803 97.4133 23.0781 97.4141 23.077ZM97.4083 23.1772C97.4083 23.1596 97.4083 23.1431 97.4083 23.1254C97.4083 23.142 97.4083 23.1596 97.4083 23.1772C97.4105 23.1838 97.4126 23.1915 97.4148 23.1993C97.4126 23.1915 97.4097 23.1827 97.4083 23.1772ZM97.4256 23.2488C97.4256 23.2488 97.4271 23.2488 97.4264 23.2466C97.4264 23.2477 97.4264 23.2499 97.4264 23.2499C97.4264 23.2499 97.4264 23.2499 97.4249 23.2499L97.4256 23.2488ZM97.6245 22.6528C97.6447 22.6219 97.6664 22.5911 97.6874 22.5602C97.6874 22.5602 97.6874 22.5602 97.6881 22.5591C97.6881 22.5591 97.6881 22.5591 97.6874 22.5602C97.6664 22.5911 97.6455 22.6219 97.6245 22.6528ZM97.5001 23.3722C97.5197 23.3954 97.5413 23.4163 97.5623 23.4372C97.5406 23.4163 97.5197 23.3954 97.5001 23.3722ZM97.8103 23.5992C97.7901 23.5926 97.7706 23.5838 97.751 23.5783C97.7713 23.5838 97.7908 23.5937 97.8103 23.5992C97.8342 23.6069 97.8595 23.6124 97.8841 23.6179C97.8595 23.6124 97.8349 23.6069 97.8103 23.5992ZM97.9369 23.6312C97.9448 23.6312 97.9506 23.6323 97.9542 23.6334C97.9506 23.6334 97.9448 23.6334 97.9376 23.6323L97.9369 23.6312ZM97.9911 23.6367C97.9788 23.6367 97.9665 23.6345 97.9535 23.6323C97.9658 23.6334 97.9781 23.6356 97.9911 23.6367C98.0316 23.64 98.0721 23.6422 98.1133 23.6433C98.0728 23.6433 98.0316 23.6411 97.9911 23.6367ZM97.9571 23.6334C97.9571 23.6334 97.9608 23.6334 97.9615 23.6334C97.9615 23.6334 97.9586 23.6334 97.9571 23.6334ZM98.1444 24.2856C98.1394 24.2856 98.1343 24.2856 98.13 24.2856C98.1444 24.2856 98.1596 24.2856 98.1741 24.2856C98.1639 24.2856 98.1545 24.2867 98.1444 24.2867V24.2856ZM98.3549 23.6356C98.4019 23.6323 98.4489 23.6268 98.4959 23.6213C98.5161 23.619 98.5356 23.6168 98.5559 23.6135C98.5364 23.6157 98.5161 23.619 98.4959 23.6213C98.4489 23.6268 98.4019 23.6312 98.3549 23.6356ZM98.5515 24.257C98.5515 24.257 98.5515 24.257 98.5508 24.257C98.5508 24.257 98.5508 24.257 98.5515 24.257C98.6441 24.2449 98.7359 24.2316 98.8285 24.2173C98.7367 24.2316 98.6441 24.2449 98.5515 24.257ZM98.574 23.6124C98.5776 23.6124 98.5826 23.6113 98.587 23.6102C98.5993 23.608 98.6354 23.6025 98.6361 23.6025C98.6376 23.6025 98.6 23.608 98.5877 23.6102C98.5834 23.6102 98.5783 23.6113 98.5747 23.6124H98.574ZM100.073 23.2213C99.9905 23.2555 99.9074 23.2863 99.8235 23.3149C99.9074 23.2863 99.9913 23.2555 100.073 23.2213ZM101.981 22.2495C102.171 22.147 102.36 22.0435 102.549 21.9388C102.792 21.8044 103.033 21.6678 103.274 21.5311C103.033 21.6689 102.791 21.8044 102.549 21.9388C102.36 22.0435 102.17 22.147 101.981 22.2495ZM105.457 19.7043C105.452 19.7154 105.446 19.7286 105.439 19.7429C105.419 19.7881 105.398 19.8333 105.377 19.8784L105.345 19.9467C105.323 19.9952 105.306 20.0481 105.296 20.1032C104.211 20.7588 103.321 21.2777 102.5 21.7328C101.696 22.1779 100.947 22.569 100.21 22.9271C100.171 22.9458 100.134 22.9635 100.098 22.9811C100.089 22.9844 100.077 22.9899 100.062 22.9965C100.051 23.002 100.039 23.0064 100.035 23.0086C99.9609 23.0395 99.8814 23.0692 99.791 23.1001C99.6297 23.1552 99.4612 23.2059 99.2754 23.2521C99.1054 23.2951 98.9362 23.3304 98.7728 23.3579C98.7395 23.3634 98.7056 23.3689 98.6723 23.3744L98.621 23.3822C98.613 23.3822 98.5993 23.3855 98.5718 23.3899L98.5515 23.3921C98.5291 23.3954 98.5067 23.3976 98.4836 23.4009C98.438 23.4064 98.3924 23.4108 98.3462 23.4141C98.2768 23.4196 98.2131 23.4218 98.1517 23.4218C98.1394 23.4218 98.1278 23.4218 98.1155 23.4218C98.0736 23.4218 98.0352 23.4196 97.9984 23.4163C97.9882 23.4163 97.9781 23.4141 97.968 23.413C97.9608 23.4108 97.9528 23.4097 97.9448 23.4086L97.9268 23.4064C97.8971 23.3998 97.8667 23.3921 97.8385 23.3833C97.8313 23.3811 97.8241 23.3778 97.8169 23.3755C97.8096 23.3722 97.8017 23.37 97.7944 23.3667C97.7821 23.359 97.7691 23.3513 97.7561 23.3436C97.7438 23.337 97.7315 23.3304 97.7207 23.3216C97.7084 23.3127 97.6968 23.3039 97.6852 23.294C97.6737 23.283 97.6628 23.2731 97.6534 23.2654H97.652C97.6274 23.24 97.6071 23.218 97.5891 23.1971C97.5847 23.1904 97.5797 23.1849 97.576 23.1794C97.5717 23.1728 97.5667 23.1662 97.5638 23.1607C97.5623 23.1585 97.5616 23.1563 97.5601 23.1541C97.5587 23.1475 97.5565 23.1398 97.5551 23.1332C97.5594 23.1166 97.5645 23.0979 97.5703 23.0814C97.5782 23.0637 97.5862 23.0461 97.5948 23.0285C97.6332 22.9536 97.6816 22.8786 97.7279 22.8081C97.7474 22.7784 97.7677 22.7486 97.7887 22.7189L97.7937 22.7112L97.8089 22.6902C97.8234 22.6704 97.8378 22.6506 97.8523 22.6318C97.9586 22.4908 98.0743 22.3531 98.1965 22.222C98.3115 22.0997 98.4351 21.9796 98.5653 21.865L98.6058 21.8297L98.6195 21.8176L98.6304 21.8088C98.6578 21.7867 98.6853 21.7636 98.7135 21.7416C98.7837 21.6854 98.856 21.6303 98.9297 21.5763C99.4453 21.2006 100.077 20.8546 100.805 20.5483C101.416 20.2916 102.093 20.069 102.936 19.8487C103.265 19.7627 103.539 19.6922 103.826 19.636C103.89 19.6239 103.953 19.6118 104.017 19.6008C104.052 19.5942 104.088 19.5886 104.123 19.5831L104.154 19.5787H104.162L104.167 19.5765L104.203 19.571C104.365 19.549 104.512 19.5347 104.653 19.528C104.723 19.5247 104.787 19.5225 104.848 19.5225C104.932 19.5225 105.008 19.5258 105.083 19.5325C105.096 19.5336 105.11 19.5358 105.124 19.5369C105.13 19.5369 105.137 19.538 105.143 19.5391C105.151 19.5413 105.159 19.5424 105.167 19.5435C105.181 19.5457 105.198 19.5468 105.205 19.549C105.27 19.5622 105.326 19.5776 105.377 19.5964C105.384 19.5986 105.389 19.6008 105.395 19.603L105.412 19.6096C105.417 19.6118 105.422 19.6129 105.426 19.6151C105.438 19.6228 105.451 19.6316 105.459 19.6382C105.465 19.6426 105.47 19.647 105.475 19.6504C105.475 19.6504 105.475 19.6526 105.474 19.6537C105.47 19.6636 105.467 19.6746 105.462 19.6867L105.456 19.7021L105.457 19.7043ZM106.606 20.2784C106.227 20.5109 105.848 20.7411 105.467 20.9703C105.848 20.7411 106.227 20.5098 106.606 20.2784ZM106.721 22.9337C106.717 22.9183 106.715 22.9018 106.712 22.8863C106.715 22.9018 106.718 22.9183 106.721 22.9348C106.728 22.9701 106.738 23.0042 106.748 23.0395C106.738 23.0053 106.728 22.9701 106.721 22.9348V22.9337ZM106.756 23.0714C106.756 23.0714 106.756 23.0726 106.757 23.0737C106.763 23.088 106.769 23.1012 106.776 23.1155C106.769 23.1012 106.763 23.0869 106.756 23.0726V23.0714ZM106.839 23.2312C106.841 23.2345 106.841 23.2345 106.842 23.2367C106.841 23.2345 106.841 23.2334 106.839 23.2312ZM106.943 23.3491C106.943 23.3491 106.944 23.3491 106.946 23.3513C106.944 23.3502 106.943 23.3491 106.943 23.3491ZM107.001 23.3987C107.001 23.3987 106.981 23.3822 106.969 23.3722C106.981 23.3822 107.002 23.3987 107.001 23.3987ZM107.269 23.5518C107.324 23.5728 107.381 23.5904 107.437 23.6069C107.381 23.5915 107.324 23.5739 107.269 23.5518ZM107.251 23.5441C107.251 23.5441 107.251 23.5441 107.248 23.543C107.25 23.543 107.251 23.5441 107.251 23.5441ZM107.243 23.5419C107.243 23.5419 107.235 23.5386 107.23 23.5364C107.228 23.5364 107.226 23.5342 107.224 23.5342C107.233 23.5375 107.239 23.5408 107.243 23.5419ZM107.195 23.5188C107.182 23.5122 107.169 23.5034 107.156 23.4967C107.169 23.5045 107.181 23.5122 107.195 23.5188ZM107.191 24.1975C107.299 24.2339 107.411 24.2603 107.523 24.2801C107.41 24.2614 107.299 24.2339 107.191 24.1975ZM107.69 23.662C107.693 23.662 107.698 23.6631 107.703 23.6642C107.698 23.6642 107.692 23.6631 107.69 23.662ZM107.812 23.6774C107.812 23.6774 107.812 23.6774 107.813 23.6774C107.813 23.6774 107.813 23.6774 107.812 23.6774ZM108.317 24.3407C108.314 24.3407 108.31 24.3407 108.306 24.3407C108.316 24.3407 108.327 24.3407 108.337 24.3407C108.33 24.3407 108.324 24.3407 108.317 24.3407ZM109.066 23.662C109.072 23.662 109.079 23.662 109.085 23.662C109.092 23.662 109.1 23.6642 109.107 23.6653C109.093 23.6642 109.08 23.662 109.066 23.6631V23.662ZM109.361 23.9826C109.36 23.9628 109.357 23.943 109.353 23.9231C109.357 23.943 109.359 23.9628 109.361 23.9826ZM141.113 29.9908H141.105C141.09 29.9908 141.075 29.9908 141.059 29.9908C140.205 29.9908 139.363 29.5335 138.687 28.705C138.387 28.337 138.147 27.9194 137.996 27.4974C137.844 27.0776 137.785 26.6512 137.805 26.1146C137.85 24.917 138.177 23.6664 138.865 22.0589C139.359 20.9053 139.952 19.6669 140.733 18.1596C141.29 17.082 141.887 16.0045 142.464 14.9622C143.04 13.921 143.636 12.8445 144.194 11.7658C145.042 10.1297 145.966 8.17066 146.394 6.04749C146.486 5.59024 146.563 5.04926 146.436 4.51268C146.305 3.96178 145.955 3.51224 145.451 3.24671C145.051 3.03626 144.608 2.92939 144.136 2.92939C143.937 2.92939 143.733 2.94922 143.53 2.98668C142.972 3.09135 142.428 3.33154 141.9 3.56403C141.827 3.59598 141.754 3.62903 141.681 3.65988C139.582 4.57438 137.437 5.89654 135.125 7.7035C132.798 9.52147 130.607 11.4893 128.959 12.9988C126.964 14.8267 124.932 16.7945 122.922 18.8482C121.058 20.7522 119.137 22.807 117.214 24.9533C116.368 25.8965 115.518 26.8617 114.642 27.8742C116.008 25.6122 117.34 23.3381 118.614 21.0915C120.971 16.9355 123.251 12.6748 125.39 8.42628C126.594 6.03537 127.784 3.58386 128.929 1.14116C129.004 0.9825 129.014 0.799601 128.96 0.637636C128.891 0.433803 128.728 0.301586 128.544 0.301586C128.478 0.301586 128.412 0.318113 128.348 0.352269C125.603 1.80224 122.791 3.20374 119.988 4.51819C117.562 5.65635 114.728 6.92122 111.78 7.52611C110.639 7.75969 109.511 7.87869 108.426 7.87869C107.923 7.87869 107.42 7.85334 106.931 7.80266C106.921 7.80266 106.91 7.80156 106.9 7.80156C106.794 7.80156 106.692 7.85665 106.61 7.95691C106.522 8.06379 106.473 8.20923 106.473 8.35356C106.473 8.65105 106.653 8.87692 106.911 8.90446C107.401 8.95515 107.907 8.98049 108.415 8.98049C110.62 8.98049 112.986 8.50782 115.65 7.53603C118.431 6.52126 121.151 5.17596 123.782 3.87584L124.005 3.76566C125.139 3.20484 126.306 2.61317 127.481 2.00387C125.651 5.85357 123.722 9.69005 121.742 13.4174C119.51 17.6186 117.136 21.8319 114.686 25.9405C113.308 28.2532 111.867 30.5935 110.405 32.8984C110.317 33.0362 110.293 33.2169 110.338 33.381C110.401 33.6069 110.591 33.7711 110.788 33.7711C110.897 33.7711 110.996 33.7204 111.075 33.6256C112.956 31.3515 114.707 29.2933 116.431 27.3343C118.325 25.1803 120.21 23.121 122.032 21.2138C124.005 19.1479 125.993 17.168 127.941 15.3302C130.108 13.283 132.127 11.4871 134.114 9.83769C136.494 7.86216 138.408 6.52457 140.32 5.5021C140.895 5.19469 141.465 4.91814 142.016 4.68125C142.101 4.64489 142.187 4.60743 142.273 4.56887C142.774 4.34851 143.291 4.12154 143.806 4.04992C143.916 4.0345 144.03 4.02678 144.143 4.02678C144.637 4.02678 145.062 4.17222 145.341 4.43665C145.55 4.63498 145.629 4.90602 145.597 5.31589C145.566 5.71364 145.454 6.12682 145.347 6.52567L145.332 6.58076C145.214 7.01708 145.07 7.47102 144.903 7.93047C144.607 8.7458 144.221 9.61843 143.688 10.6773C143.07 11.9069 142.391 13.1288 141.735 14.311C141.264 15.1605 140.777 16.0386 140.315 16.9146C139.605 18.2577 138.993 19.5005 138.441 20.7136C137.852 22.0082 137.274 23.4108 137.032 24.8971C136.938 25.4745 136.841 26.2325 136.938 26.984C137.001 27.4809 137.159 27.9866 137.407 28.4868C137.914 29.5104 138.722 30.34 139.622 30.7631C140.091 30.9835 140.571 31.0959 141.049 31.0959C141.068 31.0959 141.088 31.0959 141.106 31.0959C141.394 31.0904 141.544 30.8105 141.542 30.5362C141.541 30.2673 141.393 29.9941 141.111 29.9941L141.113 29.9908ZM146.254 5.98358C146.277 5.8701 146.298 5.75441 146.315 5.63762C146.298 5.75441 146.277 5.869 146.254 5.98358ZM106.877 8.02523C106.884 8.02523 106.891 8.02192 106.898 8.02192C106.905 8.02192 106.912 8.02192 106.919 8.02302C106.905 8.02192 106.891 8.02302 106.877 8.02523ZM108.413 8.76013C108.286 8.76013 108.159 8.75792 108.032 8.75572C108.191 8.76013 108.351 8.76013 108.509 8.75903C108.477 8.75903 108.445 8.76013 108.413 8.76013ZM117.737 6.4838C119.844 5.59575 121.907 4.56997 123.959 3.55521C121.907 4.56997 119.844 5.59465 117.737 6.4838ZM120.028 4.72973C118.626 5.38751 117.208 6.02656 115.762 6.57085C117.208 6.02766 118.626 5.38751 120.028 4.72973C121.788 3.90448 123.538 3.05169 125.277 2.17245C123.538 3.05169 121.789 3.90448 120.029 4.72973H120.028ZM128.54 0.523049C128.54 0.523049 128.542 0.523049 128.543 0.523049C128.54 0.523049 128.536 0.523049 128.534 0.523049C128.536 0.523049 128.538 0.523049 128.54 0.523049ZM128.392 0.561612C128.166 0.680606 127.94 0.799601 127.713 0.917494C127.939 0.798499 128.166 0.680606 128.392 0.561612ZM110.787 33.5496C110.787 33.5496 110.787 33.5496 110.786 33.5496C110.796 33.5496 110.806 33.5474 110.816 33.5463C110.807 33.5474 110.797 33.5496 110.787 33.5496H110.787ZM110.984 33.4515C110.97 33.4692 110.954 33.4835 110.939 33.4956C110.954 33.4835 110.97 33.4681 110.984 33.4515ZM117.723 25.6023C118.455 24.7848 119.196 23.976 119.94 23.1717C119.195 23.976 118.455 24.7859 117.723 25.6023ZM141.282 4.06755C139.114 5.06688 137.099 6.40668 135.188 7.89962C137.1 6.40668 139.114 5.06688 141.282 4.06755ZM140.27 5.29275C140.828 4.99417 141.396 4.71651 141.975 4.46861C141.396 4.71761 140.828 4.99417 140.27 5.29275ZM144.042 3.15195C144.072 3.15195 144.102 3.14975 144.132 3.14975C144.162 3.14975 144.192 3.15085 144.222 3.15195C144.162 3.14975 144.102 3.14975 144.042 3.15195ZM144.277 11.2392C144.466 10.8668 144.651 10.49 144.829 10.1087C144.652 10.49 144.467 10.8668 144.277 11.2392ZM144.755 8.7447C144.658 8.97939 144.559 9.21187 144.455 9.44214C144.559 9.21077 144.658 8.97829 144.755 8.7447ZM143.802 10.8095C143.536 11.3383 143.261 11.8628 142.981 12.384C143.261 11.8628 143.536 11.3394 143.802 10.8095ZM137.522 28.3513C137.99 29.2966 138.753 30.1219 139.664 30.5494C138.753 30.1208 137.99 29.2966 137.522 28.3513ZM141.049 30.8722C141.025 30.8722 141.002 30.8711 140.978 30.87C141.02 30.87 141.062 30.8722 141.105 30.8711C141.086 30.8711 141.067 30.8711 141.049 30.8711V30.8722ZM141.105 30.2111C141.105 30.2111 141.109 30.2111 141.111 30.2111C141.123 30.2111 141.133 30.2133 141.144 30.2144C141.131 30.2133 141.119 30.2111 141.105 30.2111ZM208.446 23.5408C208.435 23.5408 208.424 23.5408 208.414 23.543C207.766 23.6124 207.11 23.6477 206.464 23.6477C206.308 23.6477 206.149 23.6455 205.993 23.6411C205.671 23.6323 205.247 23.6168 204.82 23.5706C204.448 23.5298 204.161 23.4406 203.916 23.2907C203.475 23.0197 203.159 22.5999 202.892 21.9289C202.861 21.8529 202.832 21.7757 202.801 21.6975C202.637 21.2733 202.451 20.7929 202.162 20.3974C201.686 19.744 200.986 19.4124 200.081 19.4124C199.556 19.4124 198.952 19.5247 198.285 19.7473C196.965 20.1869 195.602 20.7488 193.994 21.5157C193.833 21.5928 193.668 21.6722 193.501 21.7548C193.817 21.4617 194.138 21.1664 194.46 20.8789C194.901 20.4844 195.318 20.1329 195.732 19.8057C195.755 19.7881 195.776 19.7682 195.797 19.744C195.903 19.6426 195.961 19.4939 195.961 19.3242C195.961 19.3011 195.959 19.2823 195.957 19.2713C195.956 19.2515 195.954 19.2317 195.951 19.2129C195.951 19.2107 195.95 19.2074 195.949 19.2052C195.949 19.2041 195.949 19.2019 195.948 19.1997C195.935 19.1325 195.915 19.0719 195.886 19.0179C195.869 18.986 195.847 18.9551 195.82 18.9254C195.742 18.8284 195.643 18.7755 195.542 18.7744C195.528 18.7722 195.513 18.7722 195.499 18.7722C195.462 18.7722 195.425 18.7788 195.39 18.7898C193.791 19.0157 192.373 19.1931 191.057 19.3297C190.824 19.354 190.581 19.3661 190.315 19.3661C189.833 19.3661 189.355 19.3264 188.91 19.2846C188.495 19.2449 188.075 19.1909 187.663 19.1248L187.612 19.116L187.588 19.1116C187.369 18.867 187.061 18.7226 186.754 18.7226C186.71 18.7226 186.666 18.7259 186.623 18.7314C186.527 18.7447 186.398 18.781 186.296 18.9309C186.217 18.8515 186.114 18.8075 186.001 18.8075C185.969 18.8075 185.937 18.8108 185.906 18.8185C185.272 18.965 184.736 19.16 184.268 19.4113C184.151 19.4741 184.033 19.5424 183.907 19.6184C181.606 20.5935 179.254 21.2601 177.283 21.4981C176.594 21.5807 175.893 21.6611 175.216 21.7383C174.713 21.7956 174.21 21.8529 173.707 21.9124C173.528 21.3923 173.156 21.0827 172.796 20.7819C172.675 20.6816 172.55 20.577 172.436 20.4679C172.422 20.4558 172.409 20.4425 172.394 20.4282C172.336 20.3742 172.171 20.2189 172.13 20.1329C172.163 20.101 172.238 20.0591 172.296 20.0283L172.313 20.0184C172.626 19.8454 173.032 19.7969 173.391 19.7539L173.498 19.7407C173.786 19.7054 173.928 19.408 173.921 19.1336C173.914 18.8945 173.788 18.6378 173.526 18.6378C173.509 18.6378 173.493 18.6378 173.475 18.6411C172.075 18.8141 171.341 19.1755 171.187 19.7715C169.015 20.6133 167.071 21.2986 165.246 21.865C163.301 22.4677 161.391 23.0307 159.409 23.2808C159.14 23.3149 158.894 23.3315 158.656 23.3315C158.522 23.3315 158.387 23.326 158.257 23.316C158.165 23.3083 158.071 23.2995 157.977 23.2896C157.935 23.2852 157.894 23.2808 157.852 23.2753C157.845 23.2753 157.832 23.2731 157.817 23.2709C157.797 23.2687 157.775 23.2654 157.762 23.2632L157.754 23.261C157.74 23.2566 157.725 23.2532 157.711 23.2488C157.7 23.2455 157.688 23.2433 157.677 23.24C157.617 23.2235 157.554 23.2026 157.484 23.1772C157.32 23.1177 157.189 23.0571 157.071 22.9855C156.998 22.9414 156.946 22.904 156.914 22.8731C156.91 22.8698 156.902 22.861 156.894 22.8511C156.888 22.8445 156.882 22.8379 156.876 22.8313L156.875 22.8291C156.87 22.8103 156.865 22.7916 156.86 22.774C156.86 22.7376 156.859 22.7068 156.86 22.677C156.86 22.6671 156.862 22.6462 156.865 22.6274C156.865 22.6186 156.866 22.6098 156.867 22.6021L156.869 22.59L156.872 22.5756C156.876 22.5536 156.88 22.5305 156.884 22.5084C156.901 22.4225 156.925 22.331 156.956 22.2308C156.971 22.1834 156.987 22.136 157.005 22.0842C157.016 22.0545 157.027 22.0247 157.037 21.995L157.044 21.9763C157.046 21.9707 157.049 21.9641 157.051 21.9586C157.098 21.8429 157.148 21.7272 157.201 21.616C157.21 21.595 157.221 21.5752 157.231 21.5543C157.612 21.3703 157.956 21.1984 158.28 21.0309C159.917 20.1902 161.584 19.2162 163.235 18.1376C164.865 17.0721 166.395 15.9307 167.779 14.7473C169.062 13.6488 170.334 12.4148 171.668 10.9748C172.274 10.3192 172.911 9.60301 173.614 8.78657C173.694 8.69402 173.775 8.60147 173.856 8.50892C174.311 7.98997 174.78 7.45339 175.112 6.81434C175.363 6.33065 175.469 5.90646 175.437 5.51862C175.395 4.99417 175.099 4.55785 174.666 4.38156C174.512 4.31876 174.337 4.28681 174.144 4.28681C173.804 4.28681 173.461 4.38266 173.169 4.47632C172.637 4.6482 172.126 4.8917 171.653 5.12969C170.045 5.93841 168.426 7.11403 166.703 8.72267C165.546 9.80464 164.426 10.9737 163.343 12.1041C163.107 12.3509 162.871 12.5977 162.634 12.8423L162.504 12.9778C161.81 13.6984 161.091 14.4443 160.436 15.2343C159.77 16.0375 159.132 16.8584 158.538 17.6748C157.861 18.6047 157.157 19.6008 156.616 20.6728C156.486 20.7345 156.357 20.7962 156.227 20.8568C154.282 21.7625 152.498 22.4236 150.773 22.8808C149.393 23.2455 147.941 23.4604 146.336 23.5364C146.1 23.5474 145.904 23.5529 145.718 23.5529C145.589 23.5529 145.468 23.5507 145.35 23.5452L145.299 23.543C145.055 23.532 144.877 23.5254 144.663 23.4406C144.647 23.4306 144.632 23.4218 144.619 23.4152L144.605 23.4086C144.578 23.3943 144.55 23.3822 144.52 23.37C145.274 23.1552 145.971 22.893 146.532 22.6704C147.374 22.3365 148.207 21.9388 149.006 21.4893C149.387 21.2744 149.862 21.0078 150.244 20.6563C150.421 20.4943 150.659 20.2332 150.684 19.8366C150.709 19.4509 150.576 19.1237 150.33 18.9595C150.174 18.856 149.977 18.8053 149.729 18.8053C149.511 18.8053 149.287 18.8438 149.09 18.8769C149.02 18.889 148.954 18.9 148.892 18.9088C148.388 18.9816 147.795 19.073 147.217 19.2063C145.89 19.5115 144.827 19.9093 143.968 20.4205C143.757 20.5461 143.543 20.6938 143.311 20.8722L143.24 20.9262C143.052 21.0706 142.857 21.2193 142.695 21.4132L142.685 21.4254C142.508 21.6358 142.325 21.854 142.239 22.1636C142.193 22.3277 142.176 22.5095 142.188 22.7034C141.799 22.7398 141.402 22.7585 141.004 22.7585C140.834 22.7585 140.662 22.7552 140.491 22.7486C140.485 22.7486 140.479 22.7486 140.474 22.7486C140.199 22.7486 140.052 23.0164 140.05 23.2819C140.048 23.5562 140.196 23.8394 140.484 23.8504C140.654 23.857 140.827 23.8603 140.998 23.8603C141.55 23.8603 142.107 23.8251 142.653 23.7557C143.002 24.0609 143.49 24.1997 143.885 24.3132L143.913 24.3209L143.992 24.3429C144.071 24.365 144.149 24.387 144.227 24.4112C144.23 24.4112 144.232 24.4123 144.234 24.4134C144.301 24.4575 144.376 24.4851 144.438 24.5082C144.748 24.6239 145.1 24.6371 145.383 24.6481C145.496 24.6525 145.614 24.6547 145.734 24.6547C146.217 24.6547 146.695 24.6206 147.183 24.582C148.197 24.5027 149.019 24.3936 149.769 24.2394C150.714 24.0454 151.683 23.7799 152.731 23.4251C153.809 23.0615 154.896 22.6318 156.042 22.1151C155.995 22.3156 155.97 22.5062 155.966 22.688C155.961 22.9668 156.013 23.2224 156.121 23.4273C156.314 23.7953 156.663 23.9893 157.012 24.1457C157.298 24.2735 157.586 24.3495 157.917 24.3859C158.152 24.4123 158.431 24.4388 158.717 24.4388C158.867 24.4388 159.005 24.4322 159.14 24.4168C160.113 24.3121 161.028 24.1545 161.86 23.9485C163.973 23.424 166.162 22.7563 168.552 21.9079C169.458 21.5862 170.409 21.2314 171.454 20.826C171.668 21.1422 171.945 21.3758 172.216 21.6027C172.313 21.6843 172.413 21.768 172.509 21.854C172.576 21.9146 172.636 21.9763 172.687 22.038C172.549 22.0545 172.412 22.071 172.274 22.0886C171.438 22.1944 170.453 22.3244 169.485 22.4798L169.439 22.4875C168.728 22.6021 167.993 22.72 167.306 23.002L167.295 23.0064C166.855 23.1871 166.12 23.4879 166.207 24.2724C166.288 24.9963 166.957 25.2695 167.504 25.3709C167.776 25.4216 168.07 25.4469 168.376 25.4469C169.619 25.4469 170.892 25.0294 171.741 24.6801C172.471 24.3793 173.452 23.8846 173.736 23.0153C174.235 22.9569 174.735 22.8996 175.235 22.8423C175.924 22.764 176.636 22.6825 177.336 22.5977C178.604 22.4445 179.929 22.1547 181.286 21.7372C180.782 22.3365 180.511 22.9007 180.456 23.4593C180.431 23.7083 180.474 23.9397 180.579 24.1292C180.876 24.6636 181.585 24.7264 181.796 24.733C181.826 24.733 181.856 24.7341 181.887 24.7341C182.476 24.7341 183.058 24.5578 183.55 24.3859C184.869 23.9242 185.967 23.2808 186.811 22.4754C187.527 21.7934 187.904 21.1124 187.966 20.3941C187.969 20.3566 187.971 20.318 187.972 20.2784C188.034 20.2872 188.095 20.2949 188.155 20.3026C188.873 20.3985 189.526 20.4503 190.15 20.4602C190.199 20.4602 190.247 20.4613 190.297 20.4613C191.077 20.4613 191.862 20.3588 192.622 20.2607C192.796 20.2376 192.971 20.2156 193.144 20.1935C193.363 20.1671 193.586 20.1385 193.819 20.1087C193.44 20.4503 193.066 20.7984 192.701 21.1389C192.125 21.6744 191.531 22.2286 190.928 22.7475C190.504 23.1122 190.062 23.4659 189.612 23.7986C189.41 23.9474 189.367 24.1942 189.395 24.3749C189.435 24.6382 189.618 24.8288 189.831 24.8288C189.897 24.8288 189.964 24.8112 190.03 24.7748C192.794 23.2786 195.302 21.9619 197.998 20.9968L198.01 20.9923C198.678 20.7533 199.369 20.5065 200.072 20.5054C200.4 20.5054 200.717 20.5682 200.944 20.6772C201.17 20.7852 201.309 20.8965 201.475 21.1036C201.493 21.1257 201.511 21.1488 201.527 21.1708L201.533 21.1786C201.533 21.1786 201.54 21.1885 201.544 21.1951C201.572 21.238 201.597 21.2777 201.618 21.3141C201.673 21.4077 201.727 21.5124 201.782 21.6325C201.868 21.8209 201.934 21.995 202.003 22.1779C202.033 22.255 202.062 22.3343 202.096 22.4181C202.397 23.1893 202.775 23.7292 203.283 24.1171C204.002 24.6658 204.864 24.6999 205.697 24.733L205.742 24.7352C205.982 24.7451 206.225 24.7495 206.467 24.7495C207.121 24.7495 207.784 24.7142 208.437 24.6437C208.696 24.6162 208.876 24.3892 208.876 24.0939C208.876 23.7986 208.677 23.5419 208.45 23.5419L208.446 23.5408ZM195.818 19.3253C195.818 19.3253 195.818 19.3209 195.818 19.3187C195.818 19.3209 195.818 19.3231 195.818 19.3253ZM173.527 18.856C173.532 18.856 173.537 18.8571 173.542 18.8582C173.525 18.8582 173.507 18.8571 173.488 18.8582C173.501 18.8559 173.514 18.856 173.527 18.856H173.527ZM174.514 6.26344C174.537 6.21717 174.557 6.16869 174.577 6.12131C174.557 6.16869 174.536 6.21717 174.514 6.26344ZM174.146 4.50386C174.151 4.50386 174.156 4.50386 174.161 4.50386C174.149 4.50386 174.138 4.50386 174.126 4.50386C174.133 4.50386 174.138 4.50386 174.145 4.50386H174.146ZM173.201 4.68897C173.201 4.68897 173.203 4.68897 173.203 4.68897C173.203 4.68897 173.201 4.68897 173.201 4.68897ZM168.711 8.06269C168.855 7.947 169 7.83351 169.146 7.72223C169 7.83461 168.855 7.947 168.711 8.06269ZM166.779 8.90667C166.932 8.76454 167.086 8.6235 167.241 8.48358C167.085 8.6235 166.932 8.76454 166.779 8.90667C166.604 9.07084 166.43 9.23611 166.256 9.40248C166.429 9.23611 166.604 9.06974 166.779 8.90667ZM164.783 11.7978C165.256 11.3097 165.731 10.8216 166.212 10.3412C165.731 10.8205 165.256 11.3097 164.783 11.7978C164.648 11.9366 164.513 12.0744 164.379 12.2132C164.514 12.0744 164.648 11.9366 164.783 11.7978ZM162.716 13.0197C162.156 13.6015 161.593 14.181 161.055 14.787C161.593 14.181 162.156 13.6003 162.716 13.0197ZM161.967 14.7253C161.835 14.8674 161.704 15.0107 161.575 15.155C161.705 15.0107 161.836 14.8685 161.967 14.7253ZM160.78 16.0838C160.566 16.3438 160.356 16.6072 160.148 16.8727C160.356 16.6072 160.566 16.3449 160.78 16.0838ZM158.635 17.8335C158.786 17.6252 158.939 17.4192 159.094 17.2132C158.939 17.4181 158.786 17.6252 158.635 17.8335C158.548 17.9525 158.461 18.0726 158.374 18.1938C158.461 18.0737 158.548 17.9536 158.635 17.8335ZM160.24 17.0413C160.649 16.5212 161.138 15.9108 161.66 15.3335C162.499 14.4047 163.387 13.4946 164.245 12.6153C164.452 12.4038 164.658 12.1922 164.864 11.9807L164.936 11.9058C166.153 10.653 167.412 9.35731 168.779 8.2566C169.578 7.61315 170.383 7.05233 171.172 6.59178C171.619 6.33065 172.062 6.09927 172.488 5.90315C172.94 5.69601 173.421 5.48667 173.904 5.41065C173.976 5.39963 174.07 5.38641 174.164 5.38641C174.257 5.38641 174.332 5.39963 174.393 5.42497C174.426 5.43929 174.457 5.46243 174.493 5.49879C174.507 5.51422 174.512 5.51973 174.514 5.52413C174.518 5.53074 174.522 5.53956 174.527 5.54727C174.53 5.55498 174.535 5.56159 174.539 5.56931C174.553 5.61228 174.554 5.65415 174.535 5.7456C174.51 5.8679 174.466 5.9902 174.397 6.13123C174.13 6.67992 173.718 7.1526 173.318 7.60874C173.246 7.69138 173.175 7.77401 173.103 7.85665C171.718 9.46859 170.548 10.739 169.42 11.854C168.191 13.0682 166.907 14.1909 165.602 15.1914C164.207 16.2601 162.666 17.298 160.892 18.3612C159.991 18.9022 159.083 19.4113 158.186 19.8806C158.745 19.0113 159.385 18.1266 160.24 17.0402V17.0413ZM157.826 20.1396C157.777 20.2178 157.729 20.296 157.681 20.3742C157.728 20.2949 157.777 20.2178 157.826 20.1396ZM157.144 21.3637C157.125 21.4044 157.103 21.4452 157.084 21.486C157.103 21.4441 157.124 21.4044 157.144 21.3637ZM140.443 22.9657C140.453 22.9657 140.461 22.9624 140.471 22.9624C140.476 22.9624 140.48 22.9624 140.484 22.9624C140.649 22.969 140.814 22.9712 140.978 22.9723C140.813 22.9723 140.649 22.969 140.484 22.9624C140.469 22.9624 140.456 22.9635 140.443 22.9657ZM140.996 23.6334C140.827 23.6334 140.658 23.6301 140.49 23.6235C140.666 23.6301 140.842 23.6334 141.019 23.6334C141.011 23.6334 141.004 23.6334 140.996 23.6334ZM142.37 22.2429C142.34 22.3487 142.327 22.4588 142.326 22.5701C142.326 22.4588 142.34 22.3487 142.37 22.2429ZM148.954 21.2766C148.622 21.4628 148.284 21.6391 147.941 21.8066C148.283 21.638 148.622 21.4628 148.954 21.2766ZM148.395 20.8436C148.291 20.8976 148.187 20.9516 148.082 21.0045C148.186 20.9516 148.291 20.8976 148.395 20.8436ZM150.538 19.8211C150.526 19.9732 150.467 20.1054 150.385 20.2222C150.467 20.1054 150.526 19.9721 150.538 19.8211ZM150.27 19.1556C150.249 19.1413 150.226 19.1281 150.203 19.1171C150.226 19.1292 150.249 19.1413 150.27 19.1556ZM149.849 19.8839C149.856 19.8762 149.862 19.8696 149.868 19.8619C149.862 19.8685 149.855 19.8762 149.849 19.8839C149.836 19.8983 149.821 19.9115 149.808 19.9247C149.821 19.9104 149.836 19.8983 149.849 19.8839ZM149.727 19.0201C149.738 19.0201 149.749 19.0201 149.76 19.0201C149.743 19.0201 149.727 19.0201 149.71 19.0201C149.716 19.0201 149.722 19.0201 149.727 19.0201ZM147.238 19.4179C147.375 19.3859 147.513 19.3573 147.652 19.3297C147.514 19.3573 147.376 19.3859 147.238 19.4179ZM143.375 21.0629C143.41 21.0364 143.445 21.01 143.48 20.9835C143.445 21.01 143.41 21.0353 143.375 21.0629ZM143.443 21.822C143.374 21.8804 143.308 21.9432 143.247 22.0104C143.308 21.9432 143.375 21.8804 143.443 21.822ZM143.078 22.5712C143.08 22.4864 143.165 22.385 143.247 22.287C143.259 22.2726 143.271 22.2572 143.284 22.2429C143.422 22.0754 143.603 21.9388 143.778 21.8066L143.814 21.779C144.728 21.0871 145.807 20.7202 146.643 20.4767C147.141 20.3324 147.654 20.2145 148.212 20.1175C148.279 20.1054 148.346 20.0944 148.413 20.0823C148.772 20.0184 149.143 19.9522 149.507 19.928C149.163 20.1748 148.774 20.4128 148.348 20.6354C146.359 21.6744 144.705 22.2892 143.141 22.569C143.12 22.5723 143.099 22.5767 143.078 22.58C143.078 22.5767 143.078 22.5745 143.078 22.5712ZM142.979 22.8169C143.039 22.807 143.098 22.7982 143.157 22.7883C143.098 22.7993 143.039 22.8081 142.979 22.8169ZM144.279 24.1997C144.27 24.1964 144.262 24.1931 144.253 24.1898C144.149 24.1567 144.042 24.1281 143.936 24.0972C144.042 24.127 144.148 24.1567 144.253 24.1898C144.262 24.192 144.27 24.1964 144.279 24.1997C144.3 24.214 144.324 24.2272 144.347 24.2383C144.324 24.2261 144.3 24.214 144.279 24.1997ZM144.406 23.5496C144.432 23.5584 144.457 23.5673 144.482 23.5783C144.457 23.5684 144.431 23.5584 144.406 23.5496ZM145.731 24.4289C145.708 24.4289 145.684 24.4278 145.661 24.4278C145.705 24.4278 145.749 24.4278 145.792 24.4278C145.772 24.4278 145.752 24.4278 145.731 24.4278V24.4289ZM149.747 24.0157C149.534 24.0598 149.32 24.0983 149.106 24.1336C149.32 24.0983 149.534 24.0598 149.747 24.0157C150.495 23.8625 151.235 23.6675 151.968 23.4406C151.235 23.6664 150.495 23.8614 149.747 24.0157ZM156.918 21.8683C156.918 21.8683 156.92 21.8617 156.922 21.8595C156.922 21.8595 156.924 21.8551 156.927 21.8484C156.924 21.8551 156.922 21.8595 156.922 21.8595C156.921 21.8617 156.92 21.8639 156.918 21.8683C156.916 21.8727 156.914 21.8782 156.912 21.8848C156.901 21.9157 156.889 21.9465 156.878 21.9785C156.86 22.0302 156.843 22.082 156.826 22.1349C156.842 22.082 156.86 22.0302 156.878 21.9785C156.889 21.9476 156.901 21.9157 156.912 21.8848C156.915 21.8782 156.917 21.8727 156.918 21.8683ZM156.231 23.2852C156.221 23.2654 156.211 23.2444 156.202 23.2246C156.211 23.2455 156.22 23.2654 156.231 23.2852C156.253 23.326 156.277 23.3645 156.303 23.402C156.277 23.3656 156.252 23.3271 156.231 23.2852ZM156.702 20.8568C156.769 20.7224 156.839 20.5891 156.911 20.4569C156.839 20.5891 156.769 20.7224 156.702 20.8568ZM156.717 22.6451C156.719 22.6274 156.721 22.6032 156.722 22.5834C156.721 22.6021 156.719 22.6274 156.717 22.6451ZM156.745 22.4401C156.739 22.471 156.734 22.5018 156.728 22.5316C156.727 22.536 156.726 22.5459 156.724 22.5558C156.726 22.5459 156.727 22.5349 156.728 22.5316C156.734 22.5007 156.739 22.4699 156.745 22.4401C156.752 22.4038 156.762 22.3674 156.771 22.3321C156.762 22.3685 156.752 22.4038 156.745 22.4401ZM156.81 23.0274C156.82 23.0395 156.831 23.0516 156.836 23.056C156.832 23.0516 156.821 23.0395 156.81 23.0274ZM157.048 23.9287C156.998 23.9055 156.946 23.8824 156.895 23.857C156.946 23.8824 156.998 23.9066 157.048 23.9287C157.105 23.954 157.162 23.976 157.219 23.997C157.163 23.976 157.105 23.954 157.048 23.9287ZM158.713 24.2129C158.707 24.2129 158.701 24.2129 158.696 24.2129C158.711 24.2129 158.727 24.2129 158.743 24.2129C158.733 24.2129 158.722 24.2129 158.712 24.2129H158.713ZM165.275 22.0765C165.06 22.1437 164.844 22.2098 164.629 22.2759C164.845 22.2098 165.06 22.1437 165.275 22.0765C166.037 21.8396 166.796 21.5906 167.552 21.3306C166.796 21.5906 166.037 21.8407 165.275 22.0765ZM168.514 21.6887C168.302 21.7636 168.09 21.8374 167.878 21.9113C168.09 21.8374 168.302 21.7636 168.514 21.6887ZM171.495 20.5759C171.248 20.6717 171.001 20.7676 170.753 20.8623C171.001 20.7676 171.248 20.6728 171.495 20.5759C171.516 20.61 171.537 20.642 171.559 20.6739C171.537 20.642 171.516 20.61 171.495 20.5759ZM172.264 19.8079C172.31 19.7826 172.357 19.7605 172.404 19.7396C172.356 19.7605 172.309 19.7826 172.264 19.8079C172.215 19.8355 172.169 19.8597 172.13 19.885C172.169 19.8597 172.215 19.8344 172.264 19.8079ZM172.578 21.66C172.506 21.595 172.432 21.5322 172.358 21.4694C172.432 21.5311 172.506 21.5939 172.578 21.66C172.6 21.681 172.623 21.7008 172.644 21.7228C172.623 21.7019 172.601 21.681 172.578 21.66ZM166.345 24.2316C166.319 24.0058 166.4 23.8273 166.531 23.6841C166.4 23.8273 166.319 24.0047 166.345 24.2316ZM168.949 22.785C168.754 22.8191 168.56 22.8555 168.367 22.8985C168.56 22.8555 168.754 22.818 168.949 22.785ZM168.221 23.6091C168.788 23.4615 169.366 23.3502 169.948 23.2588C169.366 23.3502 168.788 23.4604 168.221 23.6091C168.019 23.662 167.818 23.7259 167.622 23.8008C167.818 23.7248 168.019 23.6609 168.221 23.6091ZM168.371 25.2222C168.356 25.2222 168.343 25.2222 168.328 25.2222C168.392 25.2222 168.455 25.2222 168.52 25.22C168.47 25.2211 168.42 25.2233 168.371 25.2233V25.2222ZM169.475 24.1942C169.431 24.203 169.385 24.2118 169.336 24.2206C168.997 24.2867 168.532 24.3771 168.114 24.3771C167.78 24.3771 167.52 24.3198 167.342 24.2063C167.325 24.1953 167.311 24.1865 167.298 24.1766C167.393 24.1182 167.54 24.0598 167.607 24.0333C167.8 23.9562 168.009 23.889 168.246 23.8262C169.463 23.5078 170.748 23.3601 171.991 23.2169C172.125 23.2015 172.26 23.186 172.394 23.1706C171.589 23.7953 170.344 24.0311 169.476 24.1953L169.475 24.1942ZM173.632 22.8015C173.622 22.8423 173.611 22.8808 173.598 22.9205C173.611 22.8819 173.622 22.8423 173.632 22.8015C174.246 22.7288 174.861 22.6594 175.475 22.59C174.861 22.6605 174.246 22.7299 173.632 22.8015ZM186.874 19.1722C186.873 19.1689 186.871 19.1667 186.87 19.1634C186.871 19.1656 186.873 19.1689 186.874 19.1722ZM186.755 18.9419C186.755 18.9419 186.757 18.9419 186.758 18.9419C186.719 18.9419 186.679 18.9441 186.639 18.9496C186.677 18.9441 186.716 18.9419 186.755 18.9419H186.755ZM186.344 19.192C186.334 19.2195 186.326 19.2449 186.321 19.2713C186.326 19.246 186.334 19.2195 186.344 19.192ZM186.002 19.0256C186.014 19.0256 186.026 19.0267 186.037 19.0289C186.024 19.0278 186.01 19.0267 185.996 19.0267C185.998 19.0267 186 19.0267 186.002 19.0267V19.0256ZM184.362 20.339C184.403 20.3147 184.444 20.2905 184.485 20.2663C184.444 20.2905 184.402 20.3147 184.362 20.339C184.353 20.3467 184.345 20.3533 184.335 20.3599C184.345 20.3533 184.354 20.3467 184.362 20.339ZM181.327 23.7502C181.312 23.7413 181.298 23.7314 181.284 23.7226C181.298 23.7325 181.312 23.7413 181.327 23.7502ZM181.216 23.4152C181.203 23.467 181.196 23.5166 181.195 23.5629C181.196 23.5166 181.203 23.4659 181.216 23.4152ZM181.882 24.5093C181.852 24.5093 181.822 24.5093 181.793 24.5082C181.847 24.5093 181.9 24.5082 181.953 24.5071C181.929 24.5071 181.905 24.5093 181.882 24.5093ZM183.512 24.1666C183.445 24.1898 183.377 24.2129 183.309 24.2361C183.377 24.214 183.445 24.1909 183.512 24.1666C183.833 24.0543 184.15 23.9276 184.462 23.7843C184.151 23.9276 183.833 24.0543 183.512 24.1666ZM187.065 20.3379C186.986 20.8315 186.601 21.2601 186.275 21.5796C185.598 22.2418 184.701 22.7894 183.61 23.207C183.12 23.3954 182.599 23.575 182.113 23.6168C182.028 23.6246 181.946 23.6279 181.869 23.6279C181.832 23.6279 181.797 23.6279 181.761 23.6257C181.636 23.6201 181.603 23.6168 181.499 23.5882C181.458 23.5772 181.422 23.5651 181.389 23.5507L181.386 23.5485L181.376 23.5441C181.365 23.5375 181.354 23.5309 181.344 23.5243C181.357 23.4483 181.398 23.3172 181.514 23.0946C181.618 22.8985 181.739 22.7211 181.909 22.5216C182.224 22.1525 182.608 21.8055 183.156 21.3989C183.461 21.173 183.864 20.88 184.286 20.621L184.295 20.6166L184.313 20.6089C184.351 20.5924 184.387 20.5693 184.423 20.5395L184.475 20.5087C184.521 20.4811 184.567 20.4536 184.614 20.4271C185.016 20.2046 185.492 20.0338 186.11 19.8905C186.183 19.8729 186.252 19.8299 186.309 19.7649C186.468 19.9611 186.734 20.0591 186.954 20.1076C186.99 20.1153 187.027 20.123 187.063 20.1296C187.073 20.199 187.074 20.2751 187.063 20.339L187.065 20.3379ZM186.977 19.8883C186.88 19.8674 186.759 19.8299 186.646 19.7749C186.758 19.8299 186.88 19.8674 186.977 19.8883ZM188.163 20.079C188.317 20.0999 188.471 20.1175 188.625 20.1351C188.471 20.1186 188.317 20.0999 188.163 20.079ZM188.902 19.5027C188.499 19.4641 188.098 19.4124 187.698 19.3485C188.098 19.4124 188.5 19.4641 188.902 19.5027ZM190.291 20.2376C190.243 20.2376 190.195 20.2376 190.146 20.2365C190.237 20.2376 190.327 20.2365 190.417 20.2354C190.375 20.2354 190.333 20.2376 190.29 20.2376H190.291ZM191.067 19.5479C190.955 19.56 190.843 19.5666 190.73 19.5732C190.843 19.5677 190.955 19.56 191.067 19.5479C191.362 19.517 191.657 19.4851 191.951 19.452C191.657 19.4851 191.362 19.5181 191.067 19.5479ZM195.539 18.9937C195.549 18.9937 195.559 18.9959 195.57 18.9981C195.559 18.9959 195.548 18.9937 195.536 18.9937C195.537 18.9937 195.538 18.9937 195.539 18.9937ZM195.499 18.9915C195.512 18.9915 195.524 18.9915 195.536 18.9937C195.518 18.9915 195.501 18.9915 195.483 18.9937C195.489 18.9937 195.494 18.9926 195.5 18.9926L195.499 18.9915ZM195.546 19.7054C195.166 20.0095 194.794 20.3247 194.429 20.6508C194.794 20.3258 195.166 20.0095 195.546 19.7054ZM189.825 24.6052C189.817 24.6052 189.81 24.6041 189.803 24.603C189.814 24.603 189.824 24.6041 189.835 24.603C189.832 24.603 189.829 24.6041 189.825 24.6041V24.6052ZM194.037 21.7261C193.822 21.8297 193.607 21.9355 193.392 22.0413C193.607 21.9355 193.821 21.8297 194.037 21.7261C194.386 21.5598 194.737 21.3967 195.089 21.238C194.736 21.3967 194.386 21.5598 194.037 21.7261ZM200.067 20.2828C199.965 20.2828 199.864 20.2883 199.763 20.2982C199.863 20.2883 199.965 20.2828 200.067 20.2828ZM200.074 19.6327C200.074 19.6327 200.079 19.6327 200.081 19.6327C200.094 19.6327 200.107 19.6327 200.12 19.6327C200.105 19.6327 200.09 19.6327 200.074 19.6327ZM201.561 20.9295C201.563 20.9306 201.563 20.9328 201.564 20.934C201.563 20.9328 201.562 20.9306 201.561 20.9295ZM201.896 21.5047C201.869 21.4463 201.842 21.389 201.813 21.3328C201.842 21.389 201.869 21.4474 201.896 21.5047C201.928 21.5741 201.956 21.6402 201.984 21.7063C201.956 21.6413 201.928 21.5741 201.896 21.5047ZM203.862 23.4934C203.967 23.5584 204.076 23.6102 204.188 23.651C204.076 23.6091 203.966 23.5584 203.862 23.4934ZM205.99 23.8603C205.695 23.8526 205.399 23.8405 205.104 23.8163C205.399 23.8394 205.695 23.8526 205.99 23.8603ZM206.463 24.528C206.455 24.528 206.447 24.528 206.439 24.528C206.465 24.528 206.492 24.528 206.518 24.528C206.499 24.528 206.481 24.528 206.463 24.528ZM208.445 23.7601C208.453 23.7601 208.459 23.7623 208.466 23.7634C208.453 23.7623 208.438 23.7601 208.424 23.7612C208.431 23.7612 208.438 23.7601 208.445 23.7601Z" fill="#FF625E"/>
</svg>
