<svg width="72" height="41" viewBox="0 0 72 41" fill="none" xmlns="http://www.w3.org/2000/svg">
<path fill-rule="evenodd" clip-rule="evenodd" d="M32.2439 1.22607C32.2439 0.548932 32.7929 0 33.47 0H39.0469C39.724 0 40.2729 0.548932 40.2729 1.22607V1.22607C40.2729 2.19454 41.353 2.79395 42.2215 2.36545C44.9319 1.02826 47.9827 0.277027 51.209 0.277027C62.4476 0.277027 71.5584 9.39317 71.5584 20.6385C71.5584 28.858 66.691 35.9399 59.683 39.156C57.8556 39.9946 55.9618 38.5096 55.9618 36.499V36.499C55.9618 35.1759 56.8164 34.0264 57.9843 33.4045C62.5462 30.9755 65.652 26.1699 65.652 20.6385C65.652 12.6571 59.1856 6.18694 51.209 6.18694C47.7741 6.18694 44.6193 7.3867 42.1403 9.39025C40.8345 10.4456 40.2729 12.1222 40.2729 13.8012V36.7085C40.2729 38.9256 38.4756 40.723 36.2584 40.723H33.2739C32.7051 40.723 32.2439 40.2618 32.2439 39.693V39.693C32.2439 38.8794 31.3381 38.3776 30.6149 38.7504C27.8258 40.1882 24.6616 41 21.3079 41C10.0692 41 0.958496 31.8839 0.958496 20.6385C0.958496 9.39317 10.0692 0.277027 21.3079 0.277027C24.5341 0.277027 27.585 1.02826 30.2953 2.36545C31.1638 2.79395 32.2439 2.19454 32.2439 1.22607V1.22607ZM21.3079 6.18694C24.7427 6.18694 27.8975 7.3867 30.3765 9.39025C31.6824 10.4456 32.2439 12.1222 32.2439 13.8012V27.4758C32.2439 29.1549 31.6824 30.8314 30.3765 31.8868C27.8975 33.8903 24.7427 35.0901 21.3079 35.0901C13.3312 35.0901 6.86489 28.6199 6.86489 20.6385C6.86489 12.6571 13.3312 6.18694 21.3079 6.18694Z" fill="#04ADBF"/>
</svg>
